<svg width="196" height="196" viewBox="0 0 196 196" fill="none" xmlns="http://www.w3.org/2000/svg">
<circle cx="98" cy="98" r="98" fill="#B42E1E"/>
<circle cx="98" cy="98" r="82" fill="#B42E1E" stroke="#FFEC96" stroke-width="6"/>
<path d="M56.1013 86.7653C54.5333 86.7653 53.2557 86.2717 52.2684 85.2844C51.2812 84.2391 50.7876 82.584 50.7876 80.3191C50.7876 78.4027 51.107 76.5153 51.7458 74.6569C52.4427 72.7985 53.3138 71.1144 54.3591 69.6044C55.4044 68.0364 56.4207 66.7878 57.408 65.8587C58.9179 64.523 60.3117 63.8551 61.5893 63.8551C62.0539 63.8551 62.4604 64.0003 62.8089 64.2907C63.1573 64.523 63.3316 64.9004 63.3316 65.4231C63.3316 65.8296 63.1573 66.2361 62.8089 66.6427C62.5185 67.0492 62.112 67.4847 61.5893 67.9493C60.3117 69.0527 59.3244 70.3884 58.6276 71.9564C57.9887 73.4664 57.6693 74.6859 57.6693 75.6151C57.6693 75.9636 57.7564 76.283 57.9307 76.5733C58.163 76.8056 58.6566 77.096 59.4116 77.4444C60.1665 77.851 60.7182 78.4607 61.0667 79.2738C61.4151 80.0287 61.5893 80.7837 61.5893 81.5387C61.5893 82.8744 61.0957 84.0939 60.1084 85.1973C59.1212 86.2427 57.7855 86.7653 56.1013 86.7653ZM83.7081 121.784C79.8171 121.784 76.5359 121.552 73.8645 121.087C71.2512 120.681 69.538 119.839 68.725 118.561C68.4927 118.212 68.2604 117.69 68.0281 116.993C67.7958 116.296 67.6796 115.657 67.6796 115.076C67.6796 113.276 68.4636 112.086 70.0316 111.505C72.645 110.227 75.1712 108.892 77.6103 107.498C80.0494 106.104 82.2853 104.507 84.3178 102.707C87.8604 99.6287 89.6316 96.9283 89.6316 94.6053C89.6316 93.4438 89.167 92.5147 88.2378 91.8178C87.3087 91.1209 85.973 90.7724 84.2307 90.7724C82.895 90.7724 81.4432 90.9467 79.8752 91.2951C78.3653 91.6436 77.0296 92.1372 75.8681 92.776C75.1712 93.1825 74.5324 93.531 73.9516 93.8213C73.429 94.0536 72.9353 94.1698 72.4707 94.1698C71.7158 94.1698 71.135 93.7923 70.7285 93.0373C70.322 92.2824 70.1187 91.4693 70.1187 90.5982C70.1187 89.611 70.3801 88.6527 70.9027 87.7236C71.4835 86.7363 72.4998 85.7781 73.9516 84.8489C75.4616 83.8616 77.2328 83.0776 79.2654 82.4969C81.3561 81.8581 83.5629 81.5387 85.8858 81.5387C89.5445 81.5387 92.5063 82.4388 94.7712 84.2391C97.0941 85.9813 98.2556 88.3914 98.2556 91.4693C98.2556 93.4438 97.8201 95.3603 96.949 97.2187C96.0778 99.019 94.9744 100.674 93.6387 102.184C91.6642 104.507 89.3413 106.569 86.6698 108.369C83.9984 110.169 81.4141 111.65 78.917 112.812C79.9042 112.87 81.1238 112.928 82.5756 112.986C84.0275 112.986 85.189 112.986 86.0601 112.986C89.4864 112.986 91.9256 112.695 93.3774 112.115C94.8293 111.476 95.9327 110.75 96.6876 109.937C97.3845 109.182 97.9653 108.804 98.4298 108.804C99.0687 108.804 99.7075 109.269 100.346 110.198C101.043 111.069 101.392 112.289 101.392 113.857C101.392 116.877 99.9107 118.967 96.949 120.129C94.0453 121.232 89.6316 121.784 83.7081 121.784ZM131.833 139.555C130.207 139.555 128.929 139.09 128 138.161C127.071 137.232 126.577 135.519 126.519 133.021C126.519 131.686 126.606 129.972 126.78 127.882C126.955 125.849 127.216 123.875 127.564 121.958H111.972C109.881 121.958 108.284 121.377 107.18 120.216C106.135 118.996 105.612 117.632 105.612 116.122C105.612 115.193 105.787 114.234 106.135 113.247C106.484 112.26 106.948 111.215 107.529 110.111C109.213 106.743 111.333 103.462 113.888 100.268C116.501 97.0154 119.202 94.0246 121.989 91.2951C124.777 88.5656 127.303 86.3298 129.568 84.5876C131.02 83.5422 132.268 82.7292 133.314 82.1484C134.359 81.5677 135.346 81.2773 136.276 81.2773C137.495 81.2773 138.279 81.7419 138.628 82.6711C139.034 83.6003 139.237 84.8779 139.237 86.504C139.237 89.0012 139.005 91.992 138.54 95.4764C138.134 98.9609 137.669 102.416 137.147 105.843C137.031 106.83 136.914 107.846 136.798 108.892C136.682 109.937 136.566 111.04 136.45 112.202C137.205 112.144 138.018 112.115 138.889 112.115C139.818 112.057 140.834 112.028 141.938 112.028C142.577 112.028 143.157 112.173 143.68 112.463C144.261 112.695 144.551 113.276 144.551 114.205C144.551 115.135 144.29 116.209 143.767 117.428C143.303 118.59 142.664 119.635 141.851 120.564C141.096 121.436 140.283 121.871 139.412 121.871H134.969V123.788C134.969 125.53 135.172 127.156 135.579 128.666C135.985 130.176 136.885 131.25 138.279 131.889C139.092 132.237 139.499 132.76 139.499 133.457C139.499 133.98 139.266 134.705 138.802 135.635C138.337 136.622 137.553 137.522 136.45 138.335C135.346 139.148 133.807 139.555 131.833 139.555ZM116.937 112.986L128.871 112.376C129.045 111.331 129.249 109.995 129.481 108.369C129.713 106.685 129.945 105.001 130.178 103.316C130.41 101.574 130.584 100.006 130.7 98.6124C130.875 97.1606 130.962 96.1153 130.962 95.4764C130.962 94.5473 130.7 94.0827 130.178 94.0827C129.713 94.0827 129.045 94.373 128.174 94.9538C126.084 96.4637 123.79 98.4092 121.292 100.79C118.795 103.171 116.588 106.075 114.672 109.501C114.324 110.024 114.149 110.547 114.149 111.069C114.149 111.708 114.411 112.202 114.933 112.55C115.456 112.899 116.124 113.044 116.937 112.986Z" fill="#FFEC96"/>
<g clip-path="url(#clip0_65_2069)">
<g clip-path="url(#clip1_65_2069)">
<rect x="18" y="25" width="160" height="145.254" rx="72.6269" fill="#FFEC96"/>
<path fill-rule="evenodd" clip-rule="evenodd" d="M18 54.6876C18 84.2708 18.0012 84.3752 18.3124 84.3752C18.5208 84.3752 18.6252 84.2708 18.6252 84.0624C18.6252 83.802 18.7292 83.75 19.25 83.75H19.8752V83.1252C19.8752 82.5696 19.9168 82.5 20.25 82.5C20.6112 82.5 20.6236 82.4624 20.5908 81.4764C20.5716 80.9132 20.612 80.418 20.6808 80.3756C20.7492 80.3332 20.8076 85.8176 20.8108 92.5632C20.8136 99.3084 20.862 104.954 20.918 105.109C21.3696 106.359 22.0392 106.69 24.354 106.806C25.3712 106.857 27.0468 106.954 28.078 107.022C29.1092 107.09 30.7256 107.16 31.67 107.178C33.7452 107.216 33.5636 106.974 33.0624 109.041L32.642 110.776L31.0632 110.685C30.1948 110.635 28.6056 110.538 27.5312 110.469C25.1652 110.317 22.27 110.387 21.19 110.623C20.7532 110.718 20.226 110.816 20.0184 110.84C19.8104 110.865 19.2716 110.941 18.8204 111.01L18 111.134V128.131V145.129L18.586 145.217C18.9084 145.265 19.8048 145.343 20.578 145.389C22.9084 145.53 24.0636 145.628 26.4376 145.888C29.2464 146.196 31.6276 146.192 32.8436 145.875C33.484 145.708 35.2816 145.557 38.2344 145.421C39.2656 145.374 40.8476 145.296 41.75 145.248C42.6524 145.2 44.6564 145.12 46.2032 145.071C50.6448 144.93 52.6988 144.845 53.6252 144.767C55.9728 144.568 55.9076 144.536 56.044 145.938C56.214 147.685 56.256 147.918 56.5064 148.517C56.6404 148.838 56.75 149.145 56.7496 149.199C56.7492 149.253 56.134 149.294 55.3824 149.29C54.6308 149.286 53.762 149.336 53.452 149.402C53.142 149.469 52.2628 149.6 51.4988 149.695C50.7348 149.79 49.9688 149.888 49.7968 149.913C49.6252 149.939 49.0272 150.011 48.4688 150.074C47.91 150.137 47.3124 150.215 47.1408 150.247C46.9688 150.279 46.3712 150.347 45.8124 150.397C45.254 150.447 44.5156 150.552 44.172 150.631C43.828 150.709 43.2872 150.775 42.97 150.778C42.6528 150.78 42.3528 150.847 42.3032 150.928C42.2532 151.008 42.0908 151.071 41.9424 151.067C41.7936 151.064 40.8984 151.209 39.9532 151.39C39.008 151.572 38.0236 151.758 37.7656 151.805C37.508 151.852 37.1916 151.929 37.0624 151.977C36.9336 152.025 36.4416 152.156 35.9688 152.269C35.496 152.381 34.8632 152.544 34.5624 152.632C34.2616 152.719 33.6288 152.899 33.1564 153.032C32.6836 153.164 32.1564 153.335 31.9844 153.411C31.8124 153.488 31.3908 153.638 31.0468 153.744C27.7128 154.779 24.692 157.199 25.1652 158.456C25.3192 158.864 26.75 160.313 26.75 160.06C26.75 160 26.8888 160.077 27.0588 160.231C27.2288 160.385 27.33 160.572 27.284 160.646C27.238 160.72 27.4328 160.784 27.7172 160.786C28.2468 160.791 28.8572 161.122 28.6748 161.304C28.6188 161.36 28.8504 161.406 29.1892 161.406C29.528 161.406 29.962 161.516 30.1532 161.65C30.344 161.784 30.5724 161.849 30.6604 161.794C30.7484 161.74 30.81 161.754 30.798 161.824C30.7252 162.244 30.8212 162.35 31.1252 162.188C31.3152 162.086 31.4376 162.079 31.4376 162.172C31.4376 162.344 32.0416 162.58 32.3368 162.524C32.4444 162.503 32.7608 162.588 33.0396 162.712C33.3188 162.837 33.7912 162.982 34.09 163.035C34.3888 163.088 34.9512 163.286 35.34 163.475C35.7288 163.664 36.182 163.84 36.3472 163.866C36.5124 163.891 36.746 163.994 36.8668 164.095C37.0364 164.236 37.1192 164.226 37.2308 164.052C37.346 163.873 37.4012 163.868 37.5048 164.029C37.576 164.139 37.7516 164.184 37.8952 164.129C38.0448 164.072 38.1564 164.105 38.1564 164.207C38.1564 164.438 38.8308 164.693 38.9492 164.508C38.9988 164.43 39.2308 164.544 39.4652 164.762C39.9192 165.182 40.122 165.273 39.9368 164.974C39.8576 164.846 39.9132 164.826 40.1228 164.908C40.2872 164.972 40.7736 165.087 41.2032 165.163C41.6328 165.239 42.3316 165.41 42.756 165.542C43.1804 165.675 43.9288 165.801 44.4192 165.822C44.9092 165.842 45.2816 165.907 45.2464 165.966C45.2112 166.024 45.254 166.116 45.3412 166.17C45.4284 166.224 45.5 166.194 45.5 166.103C45.5 166.012 45.5704 165.938 45.6564 165.938C45.742 165.938 45.8124 166.03 45.8124 166.144C45.8124 166.29 46.0044 166.334 46.4748 166.297C47.0756 166.25 49.3 166.599 49.8752 166.831C50.004 166.883 50.2852 166.943 50.5 166.965C51.5852 167.074 51.9812 167.171 51.9484 167.318C51.9132 167.478 52.0792 167.464 52.8292 167.247C53.1252 167.161 53.1784 167.185 53.0796 167.358C52.978 167.536 52.9944 167.541 53.1644 167.383C53.4288 167.137 53.6808 167.127 53.532 167.368C53.4636 167.478 53.4892 167.506 53.5972 167.439C53.6944 167.379 54.0392 167.398 54.3636 167.482C54.688 167.565 55.3752 167.673 55.8908 167.721C56.4064 167.769 57.1796 167.842 57.6092 167.882C58.0392 167.923 58.8652 168.002 59.4452 168.057C60.0252 168.112 60.5 168.224 60.5 168.306C60.5 168.389 60.578 168.408 60.6736 168.348C60.7692 168.29 60.9088 168.338 60.984 168.456C61.0888 168.622 61.1208 168.601 61.1228 168.367C61.1244 168.142 61.1708 168.108 61.3004 168.238C61.3968 168.334 61.5768 168.374 61.7004 168.327C61.8408 168.273 61.9572 168.365 62.0116 168.572C62.0592 168.754 62.1616 168.864 62.2392 168.816C62.3168 168.768 62.3396 168.663 62.2904 168.583C62.1916 168.423 62.5776 168.38 62.7308 168.533C62.8508 168.653 64.1368 168.774 65.6168 168.804C66.2396 168.818 66.7496 168.881 66.7496 168.945C66.75 169.01 66.8204 169.062 66.9064 169.062C66.992 169.062 67.0624 168.949 67.0624 168.81C67.0624 168.578 67.0932 168.578 67.4476 168.81C67.668 168.954 68.156 169.062 68.5884 169.062C69.0036 169.062 69.43 169.149 69.5352 169.254C69.686 169.405 69.7916 169.405 70.0352 169.252C70.2304 169.13 70.3436 169.12 70.3436 169.223C70.3436 169.336 70.4368 169.336 70.646 169.224C71.0688 168.998 71.174 169.022 71.06 169.319C70.986 169.512 71.0112 169.536 71.1604 169.416C71.432 169.199 72.2992 169.275 72.6316 169.545C72.8036 169.684 72.8608 169.694 72.7872 169.572C72.6716 169.38 75.2124 169.432 75.53 169.628C75.5992 169.671 75.6564 169.649 75.6564 169.58C75.6564 169.51 75.8328 169.453 76.0488 169.453C76.2984 169.453 76.4136 169.524 76.366 169.648C76.3248 169.756 76.3532 169.844 76.4292 169.844C76.5056 169.844 76.5952 169.762 76.6288 169.661C76.674 169.525 76.8552 169.52 77.3332 169.641C77.7756 169.754 78.0272 169.754 78.138 169.643C78.242 169.539 78.3712 169.535 78.5012 169.632C78.6124 169.714 79.206 169.778 79.8208 169.774C80.436 169.769 80.9064 169.818 80.8664 169.883C80.8268 169.947 80.898 170 81.0248 170C81.1516 170 81.2788 169.937 81.3072 169.859C81.3376 169.777 81.7044 169.774 82.188 169.851C82.6436 169.924 83.1184 169.945 83.2428 169.897C83.3672 169.849 83.4688 169.88 83.4688 169.965C83.4688 170.05 83.604 170.155 83.7696 170.198C83.9644 170.25 84.0444 170.21 83.9972 170.086C83.9496 169.962 84.088 169.896 84.3928 169.896C84.6504 169.896 84.8208 169.962 84.7712 170.042C84.7216 170.122 84.8208 170.112 84.992 170.021C85.1628 169.93 85.3468 169.899 85.4008 169.953C85.4548 170.007 86.6244 170.05 87.9996 170.048C89.3748 170.047 90.5 170.104 90.5 170.175C90.5 170.246 90.67 170.24 90.8776 170.161C91.3688 169.974 92.8172 169.987 92.936 170.179C92.9896 170.266 93.1036 170.27 93.2092 170.191C93.434 170.021 103.472 170.037 103.742 170.208C103.85 170.276 103.938 170.268 103.938 170.19C103.938 170.112 104.412 170.063 104.992 170.08C105.572 170.097 106.178 170.044 106.339 169.962C106.56 169.849 106.602 169.861 106.51 170.008C106.427 170.143 106.453 170.165 106.591 170.08C106.702 170.011 108.101 169.933 109.701 169.905C115.995 169.796 117.305 169.749 117.51 169.622C117.642 169.541 117.771 169.569 117.849 169.696C117.945 169.851 118.029 169.858 118.189 169.726C118.318 169.618 118.488 169.602 118.623 169.686C118.745 169.762 118.918 169.776 119.008 169.72C119.098 169.662 119.456 169.606 119.804 169.594C120.152 169.582 120.592 169.523 120.781 169.463C121.016 169.388 121.126 169.419 121.127 169.56C121.129 169.726 121.154 169.727 121.258 169.564C121.346 169.425 121.681 169.38 122.346 169.418C122.874 169.448 123.328 169.406 123.356 169.324C123.385 169.235 123.55 169.251 123.76 169.364C123.993 169.488 124.177 169.501 124.299 169.4C124.401 169.317 125.328 169.199 126.359 169.139C127.391 169.078 128.362 168.962 128.517 168.879C128.672 168.797 129.024 168.78 129.298 168.843C129.94 168.989 130.491 169.019 130.42 168.904C130.39 168.854 130.831 168.796 131.401 168.775C131.97 168.754 132.529 168.66 132.642 168.566C132.766 168.464 133.128 168.434 133.549 168.492C134.146 168.574 134.25 168.548 134.252 168.317C134.254 168.106 134.284 168.093 134.389 168.259C134.487 168.414 134.554 168.422 134.635 168.29C134.719 168.154 134.801 168.155 134.967 168.293C135.106 168.408 135.188 168.416 135.188 168.313C135.188 168.218 135.535 168.162 136.032 168.177C136.496 168.191 136.849 168.158 136.815 168.104C136.715 167.942 137.322 167.839 137.548 167.979C137.665 168.052 137.845 168.032 137.962 167.935C138.076 167.84 138.582 167.756 139.085 167.749C139.588 167.741 139.968 167.682 139.928 167.617C139.889 167.553 139.914 167.495 139.983 167.489C140.052 167.483 140.426 167.457 140.812 167.432C141.984 167.355 143.066 167.154 143.299 166.971C143.462 166.842 143.536 166.845 143.583 166.984C143.631 167.127 143.739 167.129 144.037 166.993C144.343 166.854 144.456 166.86 144.555 167.019C144.658 167.186 144.693 167.186 144.75 167.016C144.792 166.891 145.216 166.762 145.824 166.69C147.401 166.505 148.938 166.197 148.938 166.066C148.938 166.001 149.258 165.98 149.649 166.02C150.08 166.063 150.324 166.032 150.268 165.942C150.214 165.854 150.476 165.798 150.902 165.807C151.302 165.815 151.674 165.752 151.728 165.667C151.83 165.51 152.538 165.328 153.391 165.241C153.648 165.215 153.894 165.175 153.938 165.152C153.98 165.13 154.262 165.096 154.562 165.076C154.863 165.056 155.309 164.96 155.552 164.862C155.796 164.765 156.052 164.72 156.12 164.763C156.189 164.806 156.327 164.743 156.426 164.624C156.524 164.505 156.735 164.441 156.894 164.483C157.053 164.524 157.231 164.482 157.288 164.389C157.346 164.295 157.67 164.219 158.009 164.219C158.348 164.219 158.625 164.144 158.625 164.053C158.625 163.961 158.758 163.909 158.921 163.936C159.083 163.962 159.364 163.85 159.546 163.687C159.727 163.523 159.875 163.47 159.875 163.57C159.875 163.794 160.381 163.807 160.6 163.588C160.688 163.499 160.966 163.389 161.217 163.344C161.467 163.3 161.695 163.197 161.724 163.116C161.802 162.896 162.374 162.938 162.382 163.164C162.386 163.272 162.474 163.184 162.577 162.969C162.774 162.56 162.936 162.485 163.665 162.465C163.907 162.458 164.142 162.392 164.188 162.317C164.234 162.243 164.332 162.22 164.406 162.266C164.48 162.311 164.587 162.274 164.644 162.182C164.715 162.067 164.814 162.072 164.967 162.199C165.14 162.342 165.188 162.333 165.188 162.158C165.188 162.034 165.434 161.816 165.734 161.672C166.035 161.529 166.281 161.48 166.281 161.565C166.281 161.65 166.359 161.719 166.454 161.719C166.549 161.719 166.585 161.61 166.534 161.476C166.483 161.343 166.503 161.272 166.578 161.318C166.653 161.365 166.802 161.298 166.908 161.17C167.014 161.042 167.303 160.938 167.55 160.938C167.798 160.938 168 160.867 168 160.781C168 160.695 168.138 160.625 168.305 160.625C168.683 160.625 169.368 159.965 169.277 159.69C169.238 159.574 169.282 159.533 169.38 159.593C169.562 159.706 170.188 159.382 170.188 159.175C170.188 159.106 170.328 158.898 170.5 158.714C171.826 157.291 167.857 154.449 162.297 152.839C158.991 151.882 158.342 151.719 157.84 151.719C157.536 151.719 157.132 151.609 156.941 151.476C156.75 151.342 156.594 151.26 156.594 151.294C156.594 151.563 153.412 150.764 152.891 150.364C152.564 150.114 151.629 149.496 150.812 148.991C148.893 147.805 148.755 147.685 148.934 147.351C149.124 146.995 149.222 146.347 149.237 145.334L149.25 144.496L149.758 144.588C151.941 144.979 172.038 144.998 176.203 144.613C176.547 144.581 177.092 144.55 177.414 144.543L178 144.531V143.047V141.562L177.258 141.546C176.85 141.536 176.305 141.536 176.047 141.546C175.789 141.555 174.805 141.553 173.859 141.542C172.914 141.53 171.49 141.524 170.695 141.529L169.25 141.538L169.231 140.574C169.22 140.043 169.203 137.957 169.192 135.938C169.181 133.918 169.115 132.177 169.045 132.069C168.85 131.768 169.064 131.745 172.766 131.673C177.761 131.576 178 131.439 178 128.677V126.898L177.418 126.418C177.098 126.154 176.606 125.895 176.324 125.842C175.366 125.663 176.223 125.159 177.492 125.157L178 125.156V119.849C178 115.673 177.958 114.555 177.805 114.605C177.697 114.64 177.182 114.704 176.66 114.746C176.137 114.789 175.524 114.871 175.296 114.928L174.883 115.032L175.138 114.52C175.466 113.863 175.514 112.616 175.245 111.719C175.129 111.332 175.034 110.998 175.033 110.976C175.032 110.955 175.144 110.938 175.281 110.938C175.754 110.938 176.608 110.426 176.814 110.018C177.204 109.247 177.228 108.437 177.236 95.6384L177.244 82.8116L176.881 82.226C176.681 81.904 176.53 81.6004 176.546 81.5516C176.562 81.5024 176.333 81.3748 176.038 81.268C175.742 81.1608 175.5 80.99 175.5 80.8884C175.5 80.7864 175.313 80.6924 175.085 80.6792C174.816 80.6636 174.742 80.6992 174.876 80.782C174.998 80.8568 174.656 80.9304 174.037 80.962C172.847 81.0232 172.642 80.9848 172.792 80.7288C172.85 80.6288 172.744 80.6812 172.557 80.8456C172.37 81.0096 172.024 81.1596 171.788 81.1784C171.049 81.2368 169.502 81.406 169.094 81.4724C168.879 81.5072 168.211 81.5824 167.609 81.6388C167.008 81.6956 166.235 81.7748 165.892 81.8148C165.549 81.8552 164.951 81.916 164.564 81.9504C164.176 81.9844 163.192 82.116 162.375 82.2428C161.558 82.3696 160.36 82.5116 159.711 82.558C159.062 82.6044 158.429 82.6748 158.304 82.7144C157.719 82.9008 156.732 82.9672 156.828 82.8136C156.883 82.7244 157.004 82.6984 157.098 82.756C157.199 82.8184 157.222 82.788 157.156 82.6804C157.011 82.4464 156.977 82.4516 156.675 82.7536C156.529 82.8992 156.109 83.0244 155.687 83.048C155.284 83.0704 154.496 83.1656 153.938 83.26C152.599 83.4856 152.171 83.4848 152.312 83.2572C152.382 83.1444 152.354 83.1192 152.24 83.1896C152.14 83.252 152.092 83.3588 152.134 83.4268C152.176 83.4952 151.808 83.5952 151.316 83.6492C150.083 83.7848 149.363 83.8932 149.138 83.9776C149.033 84.0168 148.904 83.978 148.85 83.892C148.787 83.7896 148.677 83.7984 148.534 83.9172C148.413 84.0172 148.14 84.066 147.928 84.0256C147.716 83.9848 147.522 84.0088 147.498 84.0788C147.473 84.1484 146.926 84.2428 146.281 84.2884C144.15 84.4384 143.707 84.4924 143.312 84.648C143.098 84.7328 142.43 84.8528 141.828 84.9144C141.226 84.976 140.066 85.1276 139.25 85.2512C138.434 85.3748 137.203 85.548 136.516 85.6356C135.828 85.7228 135.037 85.8564 134.758 85.9316C134.478 86.0068 134.25 86.0376 134.25 86C134.25 85.962 133.978 86.07 133.644 86.24C133.311 86.41 132.984 86.4992 132.916 86.4388C132.849 86.378 132.844 86.416 132.906 86.5236C132.968 86.6308 132.962 86.7192 132.892 86.7192C132.333 86.722 132.201 88.0296 132.249 93.1L132.297 98.1092L131.831 97.6872C131.574 97.4552 131.328 97.2268 131.284 97.1792C130.484 96.3236 127.392 95.9132 126.107 96.4924C125.534 96.7508 125.528 96.75 124.539 96.1972C119.625 93.4512 111.253 93.4652 106.22 96.2276C105.724 96.4992 105.236 96.6748 105.136 96.6172C105.036 96.5596 105.004 96.5692 105.068 96.6388C105.13 96.7084 104.814 97.0384 104.364 97.3728C103.214 98.2272 102.186 99.2504 101.572 100.151C101.178 100.73 100.834 101.019 100.188 101.313L99.33 101.705L99.1936 101.36C98.2588 98.9956 98.1968 96.742 99.0652 96.6968C100.2 96.6376 100.664 96.5904 101.681 96.43C104.936 95.9172 107.694 94.5076 110.096 92.128C110.791 91.4396 111.417 90.892 111.488 90.9108C111.559 90.9296 111.572 90.8728 111.517 90.784C111.462 90.6956 111.574 90.4036 111.765 90.1352C111.956 89.8672 112.304 89.2732 112.538 88.816C112.772 88.3584 112.992 88.0124 113.026 88.0468C113.061 88.0816 113.098 87.9904 113.109 87.844C113.12 87.698 113.212 87.2968 113.312 86.9532C113.412 86.6092 113.533 86.1172 113.579 85.8592C113.626 85.6016 113.732 85.306 113.814 85.202C113.897 85.0984 113.922 84.946 113.871 84.8632C113.82 84.7804 113.89 84.6016 114.025 84.4656C114.161 84.33 114.205 84.2188 114.123 84.2188C113.968 84.2188 114.012 82.0988 114.179 81.5C114.252 81.238 114.238 81.2192 114.106 81.4064C113.978 81.5892 113.942 81.5208 113.94 81.0936C113.93 78.9272 112.906 76.0964 111.337 73.8996C110.848 73.2152 110.842 73.1896 111.173 73.1736C111.361 73.1644 111.433 73.1892 111.331 73.2284C111.112 73.3136 111.674 74.3556 112.007 74.4836C112.122 74.5276 112.183 74.6196 112.141 74.6876C112.099 74.7556 112.169 74.8512 112.298 74.9004C112.426 74.95 112.536 75.1156 112.543 75.2684C112.549 75.4216 112.689 75.758 112.854 76.0156C113.15 76.4808 113.22 76.6216 113.412 77.1484C113.55 77.5256 113.608 77.7904 113.713 78.5156C113.762 78.8592 113.844 79.246 113.895 79.3752C113.946 79.504 113.976 79.662 113.962 79.7264C113.949 79.7912 114.003 79.8436 114.084 79.8436C114.164 79.8436 114.19 79.5976 114.142 79.2968L114.053 78.75H116.026C117.896 78.75 118 78.7664 118 79.0624C118 79.3684 118.104 79.3752 123 79.3752C127.896 79.3752 128 79.3684 128 79.0624C128 78.802 128.104 78.75 128.625 78.75C129.146 78.75 129.25 78.802 129.25 79.0624C129.25 79.362 129.354 79.3752 131.75 79.3752C134.146 79.3752 134.25 79.362 134.25 79.0624C134.25 78.802 134.354 78.75 134.875 78.75C135.396 78.75 135.5 78.802 135.5 79.0624C135.5 79.3228 135.604 79.3752 136.125 79.3752C136.646 79.3752 136.75 79.3228 136.75 79.0624C136.75 78.802 136.854 78.75 137.375 78.75C137.896 78.75 138 78.802 138 79.0624C138 79.3228 138.104 79.3752 138.625 79.3752C139.146 79.3752 139.25 79.3228 139.25 79.0624C139.25 78.802 139.354 78.75 139.875 78.75C140.396 78.75 140.5 78.802 140.5 79.0624C140.5 79.3488 140.604 79.3752 141.75 79.3752C142.997 79.3752 143.564 79.0244 142.688 78.7952C142.082 78.6372 142.799 78.1252 143.625 78.1252C144.451 78.1248 145.168 78.6372 144.562 78.7952C143.965 78.9516 144.193 79.3752 144.875 79.3752C145.396 79.3752 145.5 79.3228 145.5 79.0624C145.5 78.802 145.604 78.75 146.125 78.75C146.646 78.75 146.75 78.802 146.75 79.0624C146.75 79.362 146.854 79.3752 149.25 79.3752C151.646 79.3752 151.75 79.362 151.75 79.0624C151.75 78.802 151.854 78.75 152.375 78.75C152.896 78.75 153 78.802 153 79.0624C153 79.3704 153.104 79.3752 159.953 79.3752C165.769 79.3752 166.906 79.3396 166.906 79.1588C166.906 78.85 167.41 78.7544 169.055 78.752C170.396 78.75 170.5 78.7724 170.5 79.0624C170.5 79.3644 170.604 79.3752 173.625 79.3752C176.646 79.3752 176.75 79.3644 176.75 79.0624C176.75 78.802 176.854 78.75 177.375 78.75H178V51.8752V25H98H18V54.6876ZM77.7648 60.6436C79.1544 61.0296 79.0844 61.2372 77.592 61.1564C76.1376 61.0776 74.3212 61.3692 73.3908 61.8308L72.922 62.0632L73.3908 61.5876C74.33 60.6348 76.244 60.2216 77.7648 60.6436ZM91.0468 61.3312C91.4764 61.3816 92.144 61.4612 92.5296 61.5072C92.9156 61.5536 93.3372 61.646 93.4672 61.7128C93.5968 61.7792 93.9844 61.8832 94.328 61.9436C98.2568 62.632 102.448 65.952 104.476 69.9816C104.819 70.664 105.364 71.43 105.81 71.8568C106.224 72.2536 106.904 72.9028 107.321 73.2992C110.767 76.5808 112.096 80.5068 111.202 84.7656C109.858 91.1704 105.002 94.2608 96.7832 93.9416C89.3556 93.6532 85.1716 94.2568 84.906 95.6552C84.8036 96.1916 87.5308 98.1508 89.162 98.7128C89.51 98.8328 89.8652 98.9876 89.952 99.0572C90.0988 99.1756 90.5636 99.2832 92.656 99.6848C93.1116 99.7724 94.0756 99.8436 94.7984 99.8436H96.1128L96.284 100.478C96.378 100.828 96.4924 101.211 96.5384 101.331C96.606 101.507 96.458 101.533 95.7708 101.466C94.3284 101.324 93.5052 101.688 92.5656 102.882L92.24 103.296L91.4872 102.76C88.3404 100.522 83.3732 100.112 80.0036 101.812C78.97 102.334 78.7756 103.312 79.662 103.535C80.0448 103.631 80.2968 103.607 82.3752 103.279C84.4076 102.958 88.0856 103.251 88.742 103.786C88.8496 103.873 88.9376 103.894 88.9376 103.832C88.9376 103.341 91.216 105.175 91.5284 105.918C91.8348 106.646 91.81 106.734 91.3464 106.558C90.036 106.06 87.6888 106.749 85.198 108.363C82.888 109.861 81.1436 110.624 79.4852 110.861C77.2288 111.185 76.6272 111.221 76.4484 111.042C76.3296 110.924 76.2812 110.929 76.2812 111.062C76.2812 111.167 76.0728 111.25 75.8124 111.25C75.5548 111.25 75.3436 111.197 75.3436 111.132C75.3436 110.919 72.1652 111.211 71.5156 111.483C69.6936 112.246 70.3468 113.058 72.9128 113.219C73.6052 113.263 74.2772 113.336 74.4064 113.383C74.5352 113.43 74.8516 113.502 75.1092 113.543C79.0608 114.179 82.8792 117.558 83.5532 121.016C83.6204 121.359 83.7 121.746 83.7304 121.875C83.876 122.492 83.9124 124.847 83.7752 124.762C83.6924 124.711 83.6252 124.736 83.6252 124.818C83.6252 124.958 83.0428 125.183 82.5292 125.24C82.3992 125.254 82.0588 125.387 81.7728 125.535C81.4868 125.683 81.154 125.766 81.0328 125.719C80.9116 125.673 80.8124 125.695 80.8124 125.768C80.8124 126.162 74.9808 126.242 73.5784 125.867C73.08 125.734 72.534 125.625 72.3652 125.625C72.1964 125.625 71.936 125.559 71.7868 125.478C71.6376 125.397 71.0296 125.186 70.4352 125.009C68.508 124.436 65.9024 122.834 64.0936 121.11C63.4492 120.495 62.7296 119.819 62.4948 119.607C62.26 119.395 61.902 118.957 61.6992 118.634C61.4964 118.311 61.1284 117.73 60.8816 117.344C60.6344 116.957 60.4276 116.606 60.4216 116.562C60.4156 116.52 60.3336 116.344 60.2396 116.172C60.1452 116 60.0192 115.631 59.9592 115.352C59.8992 115.072 59.7736 114.844 59.6804 114.844C59.5868 114.844 59.5568 114.798 59.6132 114.741C59.6696 114.684 59.6368 114.542 59.5396 114.426C59.0068 113.784 59.3848 110.296 60.1792 108.524C60.3352 108.175 60.5164 107.715 60.582 107.5C60.7472 106.958 62.7308 103.098 63.1364 102.528C63.3192 102.271 63.4688 101.984 63.4688 101.89C63.4688 101.796 63.5392 101.719 63.6252 101.719C63.7108 101.719 63.7812 101.646 63.7812 101.556C63.7812 101.371 64.4236 100.418 64.6016 100.338C64.666 100.31 64.7188 100.187 64.7188 100.065C64.7188 99.9432 64.7892 99.8436 64.8752 99.8436C64.9608 99.8436 65.0312 99.7516 65.0312 99.6388C65.0312 99.526 65.1544 99.2976 65.3048 99.1312C65.4552 98.9644 65.7172 98.5644 65.8872 98.242C66.0572 97.92 66.242 97.6564 66.2984 97.6564C66.3548 97.6564 66.4424 97.5332 66.4928 97.3828C66.5436 97.2324 66.876 96.6524 67.232 96.0936C69.402 92.6892 69.9488 90.1808 69.48 85.7812C69.3196 84.272 69.2772 79.7056 69.4132 78.5936C69.5952 77.1096 69.8888 75.5932 70.0332 75.3908C70.0944 75.3048 70.1944 75.0236 70.256 74.7656C70.3912 74.196 71.1356 72.2964 71.2656 72.1876C71.362 72.1072 71.5016 71.8708 72.1792 70.6372C73.1228 68.9204 74.852 66.8756 76.784 65.1924C77.2604 64.7772 80.642 62.8128 80.8828 62.8116C80.9728 62.8112 81.2356 62.712 81.466 62.592C81.6964 62.4716 82.1184 62.3232 82.4036 62.2624C82.6888 62.2012 82.992 62.0988 83.078 62.0348C83.2336 61.9184 83.8196 61.7536 84.5624 61.6164C84.7772 61.5768 85.2004 61.4892 85.5028 61.422C85.8052 61.3544 86.5768 61.284 87.218 61.2656C87.8588 61.2468 88.3988 61.216 88.4176 61.1972C88.472 61.1428 90.1888 61.23 91.0468 61.3312ZM69.5424 70.1124C68.972 70.8264 68.8532 70.9376 68.6584 70.9376C68.2412 70.9376 66.74 71.7808 66.2044 72.3164C65.6136 72.9072 65.53 72.8824 65.8768 72.2188C66.2476 71.5092 67.5528 70.4688 68.0728 70.4688C68.2044 70.4688 68.3124 70.3868 68.3124 70.2864C68.3124 70.186 68.3536 70.1452 68.4036 70.1952C68.4536 70.2456 68.7176 70.1896 68.9896 70.0712C69.656 69.7812 69.7984 69.792 69.5424 70.1124ZM63.1572 73.4376C63.0516 74.5484 63.0448 74.5644 63.0252 73.75C63.0068 72.9956 63.1292 72.0924 63.2324 72.2204C63.2524 72.2452 63.2188 72.7928 63.1572 73.4376ZM105.148 73.8404C104.861 74.13 105.38 75.1276 106.423 76.2892C107.183 77.1356 108.134 76.5464 107.7 75.498C107.276 74.4744 105.6 73.386 105.148 73.8404ZM96.5244 76.4412C96.2028 76.9 96.2176 77.3296 96.5888 78.3064C97.1572 79.802 98.4708 79.8188 98.468 78.3304C98.4644 76.6616 97.2184 75.45 96.5244 76.4412ZM64.0868 77.3396C64.0916 77.4992 64.0312 77.4752 63.8884 77.2612C63.7756 77.092 63.6776 76.7772 63.6704 76.5624C63.6584 76.1888 63.6668 76.192 63.8688 76.6408C63.9848 76.8984 64.0828 77.2128 64.0868 77.3396ZM29.0936 76.8752C29.0936 77.2916 29.0416 77.3436 28.6252 77.3436C28.2084 77.3436 28.1564 77.2916 28.1564 76.8752C28.1564 76.4584 28.2084 76.4064 28.6252 76.4064C29.0416 76.4064 29.0936 76.4584 29.0936 76.8752ZM25.4512 77.0792C25.5492 77.14 25.6656 77.1168 25.7092 77.0284C25.7532 76.9396 25.768 76.9568 25.742 77.0664C25.7164 77.176 25.5988 77.24 25.4804 77.2088C25.3624 77.1772 24.8556 77.162 24.3548 77.1748C23.854 77.1872 23.478 77.1428 23.5196 77.0756C23.6128 76.9244 25.206 76.9276 25.4512 77.0792ZM27.3752 77.12C27.3752 77.3792 27.1124 77.5508 26.9984 77.3664C26.9512 77.29 26.7004 77.2524 26.4408 77.2828C26.0228 77.3312 25.8408 77.2112 26.0364 77.016C26.214 76.838 27.3752 76.9288 27.3752 77.12ZM41.8348 77.5684C41.892 77.9496 41.902 78.354 41.8568 78.4668C41.8116 78.5796 41.7692 78.4084 41.7624 78.086C41.75 77.5084 41.7408 77.5 41.1252 77.5C40.604 77.5 40.5 77.448 40.5 77.1876C40.5 76.4312 41.7164 76.7784 41.8348 77.5684ZM114.094 77.5092C114.094 77.8924 114.032 78.1052 113.938 78.0468C113.852 77.9936 113.781 77.7084 113.781 77.4128C113.781 77.1168 113.852 76.8752 113.938 76.8752C114.024 76.8752 114.094 77.1604 114.094 77.5092ZM30.3048 77.6076C30.1544 77.6472 29.9084 77.6472 29.758 77.6076C29.6076 77.5684 29.7304 77.5364 30.0312 77.5364C30.332 77.5364 30.4552 77.5684 30.3048 77.6076ZM63.6252 78.134C63.6252 78.7008 63.822 78.928 64.1996 78.796C64.3188 78.754 64.3516 78.5336 64.2924 78.1696C64.184 77.5028 64.428 77.568 64.8108 78.3084C64.9464 78.57 64.9924 78.7444 64.9136 78.6956C64.7416 78.5896 63.2728 79.5264 62.5992 80.1716C62.3356 80.424 62.0608 80.5764 61.988 80.5104C61.9156 80.4444 61.9004 80.468 61.9544 80.5628C62.0084 80.6576 61.9528 80.8688 61.8308 81.0316C61.6196 81.3144 61.6132 81.312 61.698 80.9764C61.752 80.7612 61.7152 80.6252 61.6028 80.6252C61.5016 80.6252 61.4672 80.7028 61.5256 80.7976C61.602 80.9212 61.3048 80.9396 60.4804 80.8632C59.8464 80.8044 59.0468 80.7404 58.7032 80.7208L58.078 80.6848L58.0316 79.7176L57.9852 78.75H59.8676H61.75V78.1168V77.4836L62.6876 77.5176L63.6252 77.5512V78.134ZM37.8436 78.3128C37.8436 78.488 38.68 78.4684 39.1708 78.2816C39.396 78.196 39.544 78.1848 39.4996 78.2568C39.4552 78.3284 39.662 78.3964 39.9596 78.4076C40.2568 78.4188 40.5 78.36 40.5 78.2764C40.5 77.9748 41.09 78.13 41.1744 78.4536C41.2524 78.7512 41.3388 78.7736 42.0912 78.69C42.548 78.6392 42.8336 78.638 42.7256 78.6872C42.6176 78.7364 42.56 78.8264 42.598 78.8876C42.6356 78.9484 42.1964 78.9464 41.6224 78.8828C41.048 78.8188 39.9804 78.7196 39.25 78.6616C38.5196 78.6036 37.8516 78.5144 37.7656 78.4636C37.68 78.4128 37.4232 78.3904 37.1952 78.4144C36.9676 78.4384 36.746 78.4004 36.7028 78.3304C36.66 78.2604 36.8992 78.1996 37.2344 78.1956C37.5696 78.1912 37.8436 78.244 37.8436 78.3128ZM51.75 78.4376C51.75 78.724 51.854 78.75 53 78.75C54.2292 78.75 54.25 78.7564 54.25 79.1408C54.25 79.4532 54.172 79.5312 53.8592 79.5312C53.6444 79.5312 53.4688 79.6016 53.4688 79.6876C53.4688 79.7736 53.6404 79.8436 53.85 79.8436C54.06 79.8436 54.2752 79.914 54.328 80C54.3812 80.086 54.5788 80.1644 54.7672 80.1744C55.0184 80.1876 55.0392 80.2112 54.844 80.2624C54.6984 80.3008 54.4344 80.2552 54.258 80.1608C54.082 80.0664 53.9376 80.0468 53.9376 80.1172C53.9376 80.188 53.802 80.2456 53.6364 80.2456C53.4708 80.2456 53.3648 80.198 53.4008 80.14C53.4368 80.082 52.9596 80.0264 52.3404 80.0172C51.0152 79.9968 50.5036 79.8804 50.8308 79.6728C51.002 79.5644 50.9904 79.5356 50.7736 79.5336C50.6232 79.5324 50.5 79.6064 50.5 79.698C50.5 79.8032 50.2276 79.836 49.758 79.7868C49.3496 79.7444 48.8532 79.7044 48.6548 79.6984C48.4564 79.6924 48.3264 79.6348 48.3664 79.5704C48.406 79.506 48.0412 79.4532 47.5552 79.4532C46.6288 79.4536 45.1664 79.2792 45.7736 79.2408C46.2676 79.2096 46.212 78.94 45.6952 78.862C45.4588 78.826 46.4432 78.7864 47.8828 78.7736C50.388 78.7512 50.5 78.7368 50.5 78.4376C50.5 78.1772 50.604 78.1252 51.1252 78.1252C51.646 78.1252 51.75 78.1772 51.75 78.4376ZM56.75 78.4376C56.75 78.698 56.646 78.75 56.1252 78.75C55.604 78.75 55.5 78.698 55.5 78.4376C55.5 78.1772 55.604 78.1252 56.1252 78.1252C56.646 78.1252 56.75 78.1772 56.75 78.4376ZM136.75 78.4376C136.75 78.698 136.646 78.75 136.125 78.75C135.604 78.75 135.5 78.698 135.5 78.4376C135.5 78.1772 135.604 78.1252 136.125 78.1252C136.646 78.1252 136.75 78.1772 136.75 78.4376ZM139.25 78.4376C139.25 78.698 139.146 78.75 138.625 78.75C138.104 78.75 138 78.698 138 78.4376C138 78.1772 138.104 78.1252 138.625 78.1252C139.146 78.1252 139.25 78.1772 139.25 78.4376ZM141.75 78.4376C141.75 78.698 141.646 78.75 141.125 78.75C140.604 78.75 140.5 78.698 140.5 78.4376C140.5 78.1772 140.604 78.1252 141.125 78.1252C141.646 78.1252 141.75 78.1772 141.75 78.4376ZM149.25 78.4376C149.25 78.698 149.146 78.75 148.625 78.75C148.104 78.75 148 78.698 148 78.4376C148 78.1772 148.104 78.1252 148.625 78.1252C149.146 78.1252 149.25 78.1772 149.25 78.4376ZM84.9892 78.6776C83.2856 79.8352 82.9284 83.4696 84.3748 84.93C86.3744 86.9492 88.9376 85.0508 88.9376 81.5504C88.9376 78.8344 86.9192 77.366 84.9892 78.6776ZM50.8516 78.7016C51.002 78.7408 51.248 78.7408 51.3984 78.7016C51.5488 78.662 51.4256 78.63 51.1252 78.63C50.8244 78.63 50.7012 78.662 50.8516 78.7016ZM44.5236 78.988C44.7532 79.0604 44.8752 79.0344 44.8752 78.9132C44.8752 78.7976 44.9704 78.8232 45.128 78.9808C45.2672 79.1196 45.3276 79.2832 45.2628 79.3432C45.198 79.4036 45.1148 79.3692 45.078 79.2664C45.0412 79.164 44.9088 79.1192 44.7844 79.1672C44.6596 79.2148 44.1544 79.2024 43.6616 79.1388C43.01 79.0548 42.8508 78.9916 43.078 78.9072C43.4172 78.7816 43.9676 78.812 44.5236 78.988ZM55.3436 79.3752C55.3436 79.7916 55.2916 79.8436 54.8752 79.8436C54.4584 79.8436 54.4064 79.7916 54.4064 79.3752C54.4064 78.9584 54.4584 78.9064 54.8752 78.9064C55.2916 78.9064 55.3436 78.9584 55.3436 79.3752ZM62.5824 79.3952C62.6268 79.5348 62.5808 79.7368 62.48 79.844C62.3344 79.9984 62.3672 80.002 62.6396 79.862C62.8284 79.7652 63.0324 79.6052 63.0936 79.5064C63.1656 79.3896 63.1352 79.3696 63.0068 79.4492C62.892 79.52 62.744 79.4808 62.6552 79.356C62.5332 79.1848 62.5184 79.1924 62.5824 79.3952ZM26.4376 79.7708C28.0492 79.9312 30.3464 80.176 30.7344 80.2288C30.992 80.264 31.7304 80.3352 32.3752 80.3868C33.0196 80.4384 33.6524 80.5088 33.7812 80.5424C33.91 80.5764 34.578 80.6472 35.2656 80.6996C35.9532 80.752 36.6212 80.8228 36.75 80.8564C36.8788 80.8904 37.4764 80.96 38.078 81.012C39.2008 81.1088 41.4988 81.3536 42.6092 81.4948C42.9532 81.5384 43.6544 81.6036 44.168 81.6396C44.6816 81.6756 45.4548 81.7436 45.8868 81.7904C46.3184 81.8372 46.9884 81.9068 47.3752 81.9448C47.7616 81.9832 48.8516 82.094 49.7968 82.1916C50.742 82.2892 51.7616 82.3896 52.0624 82.4152C52.3632 82.4408 53.1016 82.5088 53.7032 82.5664C54.3048 82.624 55.1484 82.7044 55.578 82.7448C57.6676 82.942 60.7288 83.2904 60.7368 83.332C60.86 83.9892 60.586 85.5992 60.37 85.488C59.9864 85.2904 59.2052 85.18 57.4532 85.0764C55.7428 84.9752 54.9948 84.9172 52.5312 84.6924C51.6288 84.6104 50.2928 84.5 49.5624 84.4476C48.832 84.3952 47.9884 84.3216 47.6876 84.284C47.3868 84.2464 46.6132 84.1804 45.9688 84.1368C45.3244 84.0936 44.5156 84.0164 44.172 83.9652C43.828 83.914 43.1952 83.852 42.7656 83.8268C41.8736 83.7744 38.3596 83.45 37.628 83.3524C37.36 83.3168 36.7188 83.2516 36.2032 83.2072C34.964 83.1012 32.48 82.8584 28.9376 82.4972C27.3476 82.3348 25.5216 82.16 24.8792 82.108C23.462 81.9936 23.5344 82.112 23.6068 80.0208L23.6252 79.4944L24.836 79.6132C25.502 79.6784 26.2228 79.7496 26.4376 79.7708ZM52.1408 79.6876C51.7008 79.7996 51.7128 79.808 52.336 79.8252C52.7012 79.8356 53 79.7736 53 79.6876C53 79.5128 52.8268 79.5128 52.1408 79.6876ZM57.6092 80.3124C57.9412 80.6792 57.6684 80.74 57.308 80.3796C57.0848 80.1564 57.0624 80.1588 57.0624 80.4056C57.0624 80.5548 57.0188 80.6332 56.9652 80.5796C56.8376 80.4524 57.0128 80 57.1896 80C57.2648 80 57.454 80.1408 57.6092 80.3124ZM66.5936 81.0124C66.5936 81.32 66.3632 81.5516 65.4732 82.138C64.8568 82.544 64.0716 83.1432 63.7288 83.4696C62.9656 84.1956 62.8612 84.1356 63.3024 83.224C63.7084 82.3852 64.8052 81.3376 65.7048 80.9292C66.5484 80.546 66.5936 80.5504 66.5936 81.0124ZM175.692 80.8104C175.726 80.9124 175.847 81.0272 175.961 81.0652C176.077 81.104 176.124 81.062 176.067 80.9696C176.011 80.8792 176.089 80.7724 176.24 80.7332C176.407 80.6896 176.341 80.654 176.073 80.6432C175.795 80.6316 175.653 80.694 175.692 80.8104ZM165.661 81.52C165.456 81.7508 165.462 81.7668 165.713 81.6704C165.868 81.6112 166.182 81.5576 166.411 81.5516C166.785 81.5416 166.796 81.5264 166.516 81.4064C166.063 81.2116 165.918 81.2308 165.661 81.52ZM79.3668 83.4352C78.8444 83.846 78.7152 84.4188 79.014 84.9968C79.6896 86.3032 81.9064 85.9428 81.9064 84.5264C81.9064 83.3784 80.3104 82.6928 79.3668 83.4352ZM174.531 83.4688C174.568 83.6604 174.319 83.7344 173.281 83.8384C172.568 83.9096 171.914 83.9776 171.828 83.9892C171.742 84.0008 171.25 84.0632 170.734 84.128C170.219 84.1928 169.648 84.2684 169.466 84.2964C169.285 84.324 168.195 84.4912 167.045 84.668C164.356 85.0816 156.428 86.0412 153.391 86.3212C152.789 86.3764 151.537 86.5272 150.609 86.6556C149.681 86.7844 148.696 86.9156 148.422 86.9472C148.147 86.9788 146.34 87.1848 144.406 87.4048C142.473 87.6248 140.258 87.916 139.484 88.0516C137.902 88.3288 137.785 88.3472 136.047 88.5928C135.359 88.6896 134.674 88.8048 134.524 88.848C134.197 88.9428 134.137 88.4124 134.445 88.1592C134.62 88.0152 136.571 87.678 138.703 87.4228C139.133 87.3712 140.223 87.2292 141.125 87.1072C143.1 86.8396 150.077 85.9856 151.281 85.864C151.754 85.8164 152.316 85.7472 152.531 85.7108C152.746 85.6744 153.836 85.5348 154.953 85.4008C156.07 85.2668 157.512 85.0884 158.156 85.0044C160.623 84.6836 163.314 84.3612 165.344 84.144C166.504 84.0196 168.051 83.8488 168.781 83.7644C169.512 83.6796 170.531 83.5652 171.047 83.5096C171.562 83.4544 172.476 83.3552 173.078 83.2892C174.38 83.1468 174.471 83.158 174.531 83.4688ZM23.93 83.9844C23.9556 83.576 23.9768 83.556 24.0936 83.828C24.1676 84 24.2328 84.0576 24.2392 83.956C24.258 83.6348 24.842 83.5648 25.2528 83.834C25.5668 84.04 25.882 84.0728 26.8376 83.9988C28.124 83.8996 28.4168 83.964 28.12 84.2816C27.9864 84.4248 27.6228 84.4624 26.884 84.4096C24.64 84.2492 24.1976 85.668 26.408 85.936C26.9368 86 27.1264 86.0872 27.09 86.25C27.0492 86.4328 27.0936 86.428 27.3244 86.2252C27.5084 86.0636 27.72 86.0156 27.922 86.0896C28.3112 86.2328 29.1148 86.016 29.3436 85.706C29.438 85.5784 29.5436 85.5016 29.578 85.536C29.6124 85.5704 29.6516 85.418 29.6648 85.1972C29.6812 84.9184 29.648 84.8616 29.556 85.0108C29.4468 85.1872 29.406 85.1808 29.3264 84.974C29.2736 84.8356 29.0252 84.6816 28.7744 84.6316C28.4616 84.5688 28.346 84.47 28.4052 84.3152C28.4924 84.088 29.0452 84.0824 29.8752 84.2996C30.154 84.3728 30.2036 84.358 30.0484 84.2484C29.9012 84.1448 30.18 84.1216 30.9076 84.1776C32.212 84.2776 32.4092 84.3752 31.3072 84.3752C30.604 84.3752 30.5 84.4152 30.5 84.6876C30.5 84.974 30.604 85 31.75 85H33V86.8752C33 88.646 33.0172 88.75 33.3124 88.75C33.4844 88.75 33.6252 88.8496 33.6252 88.9716C33.6252 89.3696 33.44 89.6876 33.2084 89.6876C33.0836 89.6876 33.0252 89.6172 33.078 89.5312C33.1312 89.4452 33.1004 89.3752 33.0092 89.3752C32.9184 89.3752 32.8428 89.4628 32.8412 89.5704C32.84 89.6912 32.7952 89.706 32.724 89.6092C32.6612 89.5236 31.6952 89.4288 30.578 89.3992C29.2796 89.3648 28.5004 89.28 28.4176 89.1648C28.3216 89.0304 28.2684 89.0348 28.2092 89.1808C28.1652 89.2888 28.0732 89.342 28.0044 89.2996C27.7868 89.1652 25.7288 89.022 25.852 89.1496C25.9164 89.2168 25.8524 89.4012 25.7092 89.5592C25.3552 89.95 25.9084 90.5648 26.728 90.6912C27.6072 90.8268 29.4404 90.9948 29.8744 90.9796C30.0892 90.972 30.3164 91.0472 30.38 91.1468C30.4648 91.28 30.496 91.2764 30.4976 91.1328C30.4988 91.0252 30.6232 90.9384 30.7736 90.94C31.0072 90.942 31.0128 90.9644 30.8124 91.0936C30.6104 91.2244 30.6148 91.2456 30.8424 91.2476C30.9876 91.2488 31.1528 91.1748 31.2096 91.0832C31.2664 90.9912 31.4148 90.9552 31.5396 91.0032C31.664 91.0508 32.6236 91.1312 33.672 91.1816C34.7204 91.2324 35.6412 91.3348 35.718 91.4096C35.7952 91.4844 36.0696 91.5032 36.3284 91.4516C36.6624 91.3848 36.7664 91.4096 36.6868 91.538C36.6256 91.6376 36.6496 91.7188 36.7408 91.7188C36.8316 91.7188 36.9064 91.6528 36.9064 91.5724C36.9064 91.386 38.004 91.5488 38.3036 91.7796C38.4772 91.9132 38.5008 91.9064 38.4068 91.75C38.31 91.5892 38.4576 91.5672 39.1188 91.644C39.5776 91.6972 40.076 91.74 40.2264 91.7396C40.3768 91.7388 40.5 91.8236 40.5 91.928C40.5 92.0552 40.7064 92.098 41.1252 92.058C41.8076 91.9928 41.8152 92.0068 41.6496 93.008C41.5072 93.8704 40.6564 93.9036 40.6564 93.0468C40.6564 92.5676 40.608 92.5 40.2656 92.5C39.9792 92.5 39.8752 92.5832 39.8752 92.8124C39.8752 93.0728 39.7708 93.1252 39.25 93.1252C38.7292 93.1252 38.6252 93.1772 38.6252 93.4376C38.6252 93.6472 38.5208 93.75 38.3088 93.75C38.0032 93.75 37.5996 94.4188 37.754 94.6692C37.792 94.7304 37.752 94.8828 37.6652 95.0076C37.5292 95.2032 37.5168 95.2024 37.5752 95C37.6124 94.8712 37.5796 94.5956 37.5028 94.388C37.412 94.1424 37.4212 93.9744 37.5296 93.9072C37.6212 93.8508 37.4656 93.808 37.184 93.8124C35.396 93.8408 32.3472 93.484 32.1796 93.2268C32.0944 93.0956 32.0248 93.1056 31.9232 93.2628C31.818 93.426 31.5596 93.4552 30.8684 93.3816C30.3652 93.3284 29.2304 93.2516 28.3472 93.2112C27.464 93.1708 26.6788 93.0992 26.6024 93.0524C26.0948 92.7384 25.1048 93.846 25.5212 94.2624C25.8076 94.5488 26.5032 94.9204 26.3804 94.7212C26.2772 94.5548 28.33 94.6588 28.4688 94.8272C28.5116 94.8792 29.496 94.9456 30.6564 94.9744C31.8164 95.0032 32.8384 95.0872 32.9272 95.1608C33.016 95.2344 33.1668 95.246 33.2628 95.1864C33.638 94.9532 35.5 95.1664 35.5024 95.4432C35.5044 95.6696 35.526 95.6728 35.6704 95.4688C35.7952 95.2924 35.856 95.2828 35.9156 95.4296C35.9592 95.5372 36.0632 95.6252 36.1472 95.6252C36.2312 95.6252 36.2564 95.5548 36.2032 95.4688C36.15 95.3828 36.1812 95.3124 36.272 95.3124C36.3632 95.3124 36.4384 95.4004 36.44 95.508C36.4416 95.6412 36.4788 95.6492 36.5572 95.5332C36.6204 95.4396 36.834 95.322 37.0324 95.272C37.3368 95.1952 37.3632 95.2168 37.2012 95.4116C37.096 95.5388 37.0744 95.6304 37.1532 95.6152C37.9304 95.4676 38.0464 95.5972 37.9528 96.5056C37.9028 96.99 37.9036 97.9744 37.954 98.6932L38.0464 100H39.8984H41.75V100.516C41.75 101.121 41.9852 101.406 42.4844 101.406C42.7884 101.406 42.8436 101.488 42.8436 101.933C42.8436 102.426 42.8836 102.466 43.462 102.559C44.0136 102.647 44.0904 102.715 44.1796 103.189C44.2644 103.642 44.3584 103.736 44.8116 103.82C45.2796 103.908 45.3436 103.978 45.3436 104.399C45.3436 104.827 45.304 104.868 44.9656 104.783C44.4716 104.659 43.9768 104.829 44.276 105.02C44.4152 105.109 44.3416 105.142 44.0548 105.121C43.7208 105.095 43.6452 105.026 43.714 104.81C43.8128 104.498 43.5392 104.421 43.4156 104.726C43.3556 104.874 43.2976 104.866 43.1768 104.692C43.0888 104.566 42.9604 104.519 42.8916 104.588C42.8224 104.657 42.8968 104.808 43.056 104.925C43.3108 105.111 43.2436 105.129 42.5088 105.073C40.6732 104.931 38.1944 104.814 37.492 104.836C36.9764 104.852 36.7492 104.798 36.7476 104.656C36.746 104.532 36.7008 104.514 36.6304 104.609C36.4312 104.88 35.0556 104.808 35.1584 104.531C35.2336 104.33 35.2088 104.327 34.9824 104.511C34.8108 104.651 34.7188 104.665 34.7188 104.55C34.7188 104.454 34.5604 104.383 34.3672 104.393C34.1028 104.407 34.0832 104.429 34.2892 104.483C34.4396 104.522 34.5624 104.624 34.5624 104.71C34.5624 104.8 34.4148 104.818 34.2108 104.753C34.0176 104.691 33.5996 104.65 33.2816 104.662C32.964 104.675 32.6612 104.615 32.6084 104.53C32.556 104.445 32.4292 104.376 32.3268 104.377C32.2148 104.379 32.234 104.44 32.3752 104.531C32.5524 104.646 32.4836 104.683 32.0924 104.685C31.808 104.686 31.6096 104.632 31.6512 104.565C31.6928 104.497 31.5916 104.442 31.426 104.442C31.2604 104.442 31.1252 104.488 31.1252 104.543C31.1252 104.599 30.9668 104.627 30.7732 104.606C30.4948 104.575 25.0564 104.345 23.9088 104.315C23.6704 104.309 23.6444 103.966 23.6304 100.655C23.622 98.646 23.6092 96.956 23.6016 96.8996C23.518 96.27 23.6936 83.64 23.7812 83.9844L23.9004 84.4532L23.93 83.9844ZM36.5936 84.7828C36.5936 84.8164 36.2596 84.8428 35.8516 84.8412C35.4312 84.84 35.1932 84.7856 35.3024 84.7164C35.4872 84.5988 36.5936 84.656 36.5936 84.7828ZM41.5548 85.384C41.6224 85.29 41.87 85.2656 42.1408 85.3264L42.6092 85.4316L42.1016 85.4736C41.8224 85.4968 41.5116 85.5228 41.4116 85.5312C41.3112 85.54 41.2004 85.4416 41.1652 85.3124C41.1084 85.104 41.12 85.104 41.2692 85.3124C41.3796 85.466 41.478 85.4908 41.5548 85.384ZM174.534 96.962C174.538 107.37 174.512 108.623 174.295 108.706C173.946 108.84 173.598 108.575 173.202 107.876C173.013 107.54 172.574 106.972 172.226 106.614C171.878 106.256 171.594 105.904 171.594 105.831C171.594 105.758 171.465 105.63 171.307 105.545C171.15 105.46 170.685 105.144 170.274 104.844C169.862 104.543 169.411 104.214 169.271 104.112C169.044 103.948 169.059 103.912 169.406 103.782C169.621 103.702 169.787 103.574 169.774 103.498C169.742 103.302 170.523 101.977 170.756 101.834C170.882 101.756 170.916 101.517 170.856 101.146C170.8 100.8 170.822 100.613 170.913 100.669C171.073 100.768 171.064 97.7 170.905 97.54C170.856 97.4908 170.902 97.3428 171.009 97.2108C171.164 97.0196 171.164 96.9952 171.008 97.0888C170.9 97.1532 170.812 97.1316 170.812 97.0404C170.812 96.9496 170.883 96.8752 170.969 96.8752C171.055 96.8752 170.981 96.7308 170.804 96.5544C170.588 96.3376 170.517 96.1292 170.587 95.91C170.65 95.712 170.629 95.6232 170.534 95.682C170.449 95.7344 170.344 95.6556 170.301 95.506C170.258 95.3568 170.178 95.1252 170.122 94.992C170.049 94.8164 170.12 94.7464 170.378 94.7376C172.358 94.6676 173.312 94.354 173.312 93.7728C173.312 93.1012 172.989 92.9152 172.025 93.0324C171.573 93.0872 170.76 93.1696 170.218 93.2156L169.234 93.2992L167.882 91.9624C167.138 91.2276 166.403 90.5856 166.247 90.536C166.092 90.4868 166.001 90.3868 166.046 90.314C166.091 90.2412 165.912 90.134 165.647 90.076C164.956 89.9244 164.326 89.5764 164.586 89.49C164.702 89.4516 164.656 89.4432 164.484 89.472C164.133 89.5304 162.377 89.088 162.148 88.8832C161.93 88.6876 161.714 88.7212 161.843 88.9304C161.92 89.0544 161.886 89.0672 161.735 88.972C161.466 88.802 159.246 88.774 159.35 88.942C159.391 89.0084 159.35 89.0624 159.259 89.0624C159.168 89.0624 159.094 88.9908 159.094 88.9032C159.094 88.8128 158.757 88.756 158.312 88.772C157.883 88.7872 157.531 88.854 157.531 88.92C157.531 88.9864 157.865 89.0156 158.274 88.9844C159.005 88.9292 159.001 88.9324 158 89.204C157.442 89.3556 156.604 89.6292 156.14 89.812C155.675 89.9952 155.218 90.1008 155.124 90.0472C155.03 89.9936 155.002 90.0048 155.063 90.0716C155.203 90.2276 154.796 90.6396 154.442 90.6992C154.294 90.724 154.189 90.822 154.21 90.9164C154.231 91.0108 154.073 91.1324 153.858 91.186C153.644 91.24 153.468 91.364 153.468 91.4624C153.468 91.5604 153.267 91.854 153.023 92.1148C152.778 92.3756 152.496 92.742 152.396 92.9292C152.296 93.1164 152.127 93.2484 152.021 93.2228C151.915 93.1972 151.877 93.2044 151.937 93.2392C151.997 93.2736 151.968 93.4752 151.871 93.6868C151.744 93.9668 151.661 94.0168 151.569 93.8716C151.487 93.742 151.442 93.8256 151.44 94.1108C151.438 94.4024 151.377 94.5124 151.257 94.4384C151.151 94.3724 151.119 94.3952 151.18 94.4932C151.314 94.7116 151.132 95.1788 150.954 95.0692C150.878 95.022 150.859 95.0964 150.912 95.2336C150.969 95.3812 150.888 95.5816 150.715 95.7224C150.554 95.8532 150.51 95.916 150.617 95.8616C150.734 95.8028 150.812 95.8648 150.812 96.0156C150.812 96.1548 150.76 96.236 150.695 96.196C150.532 96.0952 150.488 96.626 150.453 99.1028L150.422 101.252L149.908 101.565C149.261 101.959 148.485 102.827 148.072 103.62C147.896 103.956 147.708 104.187 147.652 104.132C147.598 104.077 147.594 104.19 147.644 104.384C147.696 104.578 147.673 104.697 147.595 104.649C147.517 104.6 147.439 104.783 147.422 105.054C147.346 106.261 147.373 110.529 147.458 110.797C147.535 111.038 147.47 111.098 147.112 111.114C146.87 111.125 146.496 111.152 146.281 111.174C146.066 111.196 144.836 111.263 143.547 111.323C140.981 111.441 140.296 111.488 138.798 111.644C137.869 111.741 137.807 111.728 137.914 111.46C137.977 111.302 138.113 110.765 138.216 110.267C138.32 109.77 138.464 109.418 138.537 109.486C138.61 109.554 138.546 109.416 138.395 109.18C138.244 108.943 138.157 108.609 138.202 108.437C138.246 108.265 138.233 108.156 138.172 108.193C138.111 108.231 137.99 108.073 137.903 107.842L137.744 107.422L138.536 107.416C139.328 107.409 140.376 107.296 142.141 107.028C142.656 106.949 143.535 106.843 144.094 106.792C145.497 106.664 145.607 106.616 145.801 106.06C145.895 105.79 145.924 105.618 145.866 105.676C145.807 105.734 145.613 105.688 145.434 105.572C145.184 105.409 144.821 105.391 143.859 105.491C141.318 105.755 141.022 105.784 139.797 105.881C139.109 105.936 138.384 106.041 138.185 106.115C137.655 106.313 136.94 106.28 136.797 106.05C136.568 105.686 135.413 104.869 134.75 104.604C134.39 104.46 134.13 104.287 134.171 104.221C134.262 104.073 134.442 102.105 134.415 101.562C134.242 98.2036 134.243 97.7752 134.415 97.5676C134.547 97.408 134.55 97.3436 134.425 97.3436C134.301 97.3436 134.25 96.3056 134.25 93.7596V90.1752L134.914 90.0932C135.279 90.048 136.598 89.87 137.844 89.6976C139.09 89.5256 140.566 89.3476 141.125 89.3024C141.684 89.2572 142.738 89.1464 143.469 89.0564C145.059 88.8604 147.553 88.6068 147.677 88.628C147.726 88.6364 147.871 88.602 148 88.5516C148.437 88.3804 151.515 88.006 151.672 88.1048C151.758 88.1588 151.547 88.2392 151.203 88.2832C150.822 88.3324 150.593 88.4388 150.617 88.5568C150.639 88.6632 150.586 88.75 150.5 88.75C150.414 88.75 150.344 88.6796 150.344 88.5932C150.344 88.4476 148.799 89.1716 148.625 89.3988C148.511 89.5472 147.412 89.62 147.279 89.4876C147.217 89.4256 147.09 89.376 146.997 89.3772C146.904 89.3788 146.934 89.4544 147.062 89.5456C147.271 89.6928 147.271 89.7036 147.062 89.6424C146.934 89.6044 146.696 89.6412 146.536 89.7244C146.334 89.8284 146.276 89.8232 146.347 89.7076C146.473 89.5032 145.83 89.3224 145.32 89.4188C145.088 89.4632 145.182 89.4972 145.578 89.5124C146.502 89.5472 145.971 89.804 144.724 89.926C142.991 90.0952 142.472 90.1564 141.928 90.2568C141.566 90.3236 141.36 90.2868 141.264 90.1376C141.167 89.9872 141.09 89.9736 141.008 90.094C140.853 90.3216 140.246 90.4584 138.557 90.6472C137.788 90.7332 136.971 90.9012 136.74 91.0204C136.51 91.14 136.292 91.2088 136.257 91.174C136.222 91.1392 136.196 91.3468 136.198 91.636C136.201 91.9248 136.238 92.1588 136.281 92.156C136.572 92.136 136.638 92.2144 136.438 92.3436C136.237 92.4732 136.243 92.4956 136.476 92.4976C136.627 92.4988 136.75 92.4216 136.75 92.3256C136.75 92.2252 136.89 92.1876 137.079 92.2372C137.26 92.2844 137.577 92.2592 137.782 92.1812C138.085 92.066 138.16 92.0904 138.174 92.3084C138.19 92.5484 138.201 92.5468 138.266 92.2936C138.325 92.0668 138.472 92.0176 138.996 92.0496C139.358 92.072 139.734 92.04 139.833 91.9788C139.932 91.918 140.58 91.838 141.273 91.8016C141.966 91.7656 142.586 91.7032 142.651 91.6632C143.01 91.4412 143.938 91.3844 143.94 91.584C143.942 91.738 143.975 91.746 144.059 91.6132C144.128 91.5052 144.981 91.3584 146.127 91.2576C149.432 90.9664 150.031 90.7976 150.031 90.1572C150.031 89.8156 149.932 89.6776 149.602 89.5568C149.181 89.4032 149.18 89.3992 149.55 89.3872C150.133 89.3684 150.513 89.79 150.334 90.2588C150.239 90.5108 150.242 90.6096 150.344 90.5464C150.43 90.4936 150.5 90.3488 150.5 90.2252C150.5 90.054 150.725 90 151.438 90H152.375V89.0624C152.375 88.4524 152.311 88.1252 152.193 88.1252C151.672 88.1252 152.332 87.9024 152.965 87.8644C153.371 87.84 154.37 87.724 155.186 87.6064C156.002 87.4888 156.793 87.4252 156.944 87.4644C157.095 87.504 157.219 87.4752 157.219 87.4C157.219 87.3252 157.623 87.2404 158.117 87.212C159.593 87.1264 160.226 87.0688 161.008 86.9484C161.697 86.8424 161.75 86.8584 161.75 87.1672C161.75 87.7944 162.93 87.6384 163.073 86.992C163.136 86.7088 163.222 86.5784 163.268 86.6972C163.322 86.8384 163.385 86.8536 163.454 86.7424C163.707 86.3328 165.738 86.4528 165.695 86.8752C165.664 87.1788 165.69 87.2136 165.808 87.0312C165.893 86.9024 165.927 86.6856 165.885 86.5496C165.842 86.4136 165.897 86.2972 166.006 86.2908C166.74 86.2496 168.53 86.0504 169.25 85.9304C170.952 85.646 171.382 85.5828 172.844 85.4008C173.66 85.2992 174.374 85.2376 174.429 85.2636C174.484 85.2896 174.532 90.5536 174.534 96.962ZM171.045 85.9128C171.01 85.9488 170.714 86.0024 170.388 86.0324C170.063 86.062 169.551 86.118 169.25 86.1568C168.949 86.1952 168.226 86.2732 167.642 86.3296C166.248 86.4648 165.735 86.9268 166.139 87.682C166.287 87.9596 166.402 87.986 167.037 87.8904C167.438 87.83 168.012 87.7528 168.312 87.7192C168.613 87.6856 169.457 87.5896 170.188 87.5056C170.918 87.4216 171.82 87.3216 172.192 87.2832C173.236 87.1764 173.829 86.4308 173.252 85.952C173.053 85.7872 171.204 85.7544 171.045 85.9128ZM23.9768 86.6408C23.9788 86.9844 24.0108 87.1068 24.048 86.9124C24.0852 86.718 24.084 86.4368 24.0448 86.2872C24.0056 86.138 23.9752 86.2968 23.9768 86.6408ZM57.476 86.67C57.3176 86.828 56.7496 86.8444 56.656 86.6932C56.6116 86.6212 56.802 86.5624 57.0792 86.5624C57.3564 86.5624 57.5352 86.6108 57.476 86.67ZM164.68 86.6744C163.91 86.7912 164.078 87.5 164.875 87.5C165.465 87.5 165.5 87.474 165.5 87.0312C165.5 86.748 165.423 86.5716 165.305 86.586C165.197 86.5988 164.916 86.6388 164.68 86.6744ZM25.344 87.1088C24.9232 87.8948 25.4156 88.1564 27.6876 88.354C28.16 88.3952 29.0568 88.474 29.6796 88.5296C30.5012 88.6028 30.8124 88.58 30.8124 88.4468C30.8124 88.3456 30.868 88.2972 30.9356 88.3388C31.1316 88.46 31.144 87.6328 30.9496 87.3988C30.8196 87.242 30.8204 87.1876 30.9536 87.1876C31.052 87.1876 31.1752 87.3984 31.2264 87.6564C31.366 88.3524 31.75 88.2588 31.75 87.5288V86.9324L30.5392 86.9292C29.8732 86.9272 28.4812 86.874 27.4464 86.8112L25.5644 86.6968L25.344 87.1088ZM61.4944 87.4952C61.3892 87.6004 61.1292 87.154 61.1328 86.8752C61.1348 86.7392 61.2268 86.8048 61.352 87.0312C61.4708 87.2456 61.5348 87.4548 61.4944 87.4952ZM159.25 87.7228C159.25 88.0252 159.33 88.1252 159.573 88.1252C159.819 88.1252 159.885 88.0408 159.847 87.7752C159.773 87.2556 159.25 87.21 159.25 87.7228ZM62.0668 88.0888C62.2792 88.3264 62.6968 88.7092 62.9944 88.9392L63.5356 89.3572L63.1456 89.5056C62.9308 89.5872 62.43 89.9024 62.0324 90.2056C61.6348 90.5092 61.2624 90.71 61.2044 90.6524C61.1464 90.5944 61.1132 90.6172 61.1304 90.7032C61.1984 91.0392 61.1156 91.25 60.9168 91.25C60.802 91.25 60.7048 91.338 60.7004 91.4452C60.696 91.5528 60.506 92.0272 60.2788 92.5L59.8652 93.3592L59.95 92.6952C60.0012 92.2956 59.972 92.0312 59.8768 92.0312C59.7892 92.0312 59.7188 92.418 59.7188 92.9C59.7188 93.4392 59.6596 93.732 59.5624 93.672C59.3656 93.5504 59.3548 91.4064 59.5512 91.4064C59.6308 91.4064 59.728 91.5292 59.7672 91.6796C59.8064 91.83 59.8468 91.5136 59.8568 90.9764C59.8728 90.1104 59.9104 90 60.1876 90C60.396 90 60.5 89.896 60.5 89.6876C60.5 89.5156 60.414 89.3752 60.3088 89.3752C60.204 89.3752 60.2744 89.2656 60.4652 89.1316C60.6628 88.9932 60.8124 88.724 60.8124 88.5068C60.8124 88.2312 60.898 88.1252 61.12 88.1252C61.3292 88.1252 61.3988 88.05 61.3376 87.8908C61.1872 87.498 61.6516 87.624 62.0668 88.0888ZM36.7216 89.1016C36.68 89.394 36.586 89.4464 36.164 89.4136C35.4528 89.358 35.526 89.6548 36.242 89.73C36.638 89.7716 36.5416 89.7932 35.9452 89.7972C35.0676 89.8032 34.5504 89.6472 34.7584 89.4392C34.8184 89.3796 34.988 89.4284 35.1356 89.548C35.3132 89.692 35.364 89.6996 35.2864 89.5704C35.222 89.4628 35.2436 89.3752 35.3344 89.3752C35.4256 89.3752 35.5 89.2344 35.5 89.0624C35.5 88.8012 35.604 88.75 36.136 88.75C36.706 88.75 36.7664 88.7864 36.7216 89.1016ZM156.594 89.0624C156.594 89.1484 156.77 89.2188 156.984 89.2188C157.199 89.2188 157.375 89.1484 157.375 89.0624C157.375 88.9764 157.199 88.9064 156.984 88.9064C156.77 88.9064 156.594 88.9764 156.594 89.0624ZM170.578 89.2156C170.32 89.2828 169.826 89.3464 169.48 89.3564C168.275 89.392 167.723 90.2816 168.625 90.736C169.017 90.9336 169.312 90.9248 171.648 90.646C173.061 90.4776 173.197 90.3876 173.128 89.6684L173.078 89.1408L172.062 89.1168C171.504 89.104 170.836 89.1484 170.578 89.2156ZM34.4064 89.5312C34.4064 89.6172 34.2128 89.6804 33.9764 89.672L33.5468 89.6564L33.9376 89.5312C34.1524 89.4624 34.3456 89.3992 34.3672 89.3904C34.3888 89.382 34.4064 89.4452 34.4064 89.5312ZM38.0392 89.954C37.8456 89.9912 37.5292 89.9912 37.336 89.954C37.1424 89.9168 37.3008 89.8864 37.6876 89.8864C38.0744 89.8864 38.2324 89.9168 38.0392 89.954ZM42.3752 90.1752C42.3752 90.2964 42.4476 90.2908 42.6092 90.1564C42.7508 90.0388 42.8436 90.026 42.8436 90.124C42.8436 90.2132 42.756 90.316 42.6484 90.352C42.3592 90.4496 41.8968 90.2984 41.9952 90.1384C42.1168 89.9416 42.3752 89.9668 42.3752 90.1752ZM134.461 91.8752C134.461 92.6056 134.488 92.9044 134.521 92.5392C134.554 92.174 134.554 91.576 134.521 91.2108C134.488 90.8456 134.461 91.1444 134.461 91.8752ZM66.8932 91.154C66.8576 91.1868 66.2668 91.4376 65.5804 91.7108C64.1656 92.274 63.426 92.686 62.8048 93.2572C62.3036 93.7176 62.2164 93.4464 62.6528 92.7848C63.3088 91.7908 64.6876 91.102 66.034 91.0972C66.5424 91.0952 66.9292 91.1208 66.8932 91.154ZM43.6252 92.3812C43.6252 92.5636 43.4696 92.5232 43.2232 92.2768C42.9008 91.9544 42.9492 91.8404 43.3124 92.0676C43.4844 92.1748 43.6252 92.316 43.6252 92.3812ZM45.5632 92.2116C45.5264 92.2712 45.62 92.3524 45.7716 92.392C46.0004 92.4516 45.9928 92.4668 45.7264 92.482C45.5504 92.492 45.322 92.4156 45.2188 92.3124C45.0728 92.1668 45.0312 92.1668 45.0312 92.3124C45.0312 92.418 44.8436 92.4908 44.6016 92.4788C44.1756 92.4576 44.1752 92.4568 44.5624 92.3768L44.9532 92.296L44.5624 92.1812C44.2728 92.0956 44.36 92.0708 44.9012 92.0844C45.302 92.0948 45.6 92.152 45.5632 92.2116ZM48.742 92.4516C48.5916 92.4908 48.3456 92.4908 48.1952 92.4516C48.0448 92.412 48.168 92.38 48.4688 92.38C48.7696 92.38 48.8924 92.412 48.742 92.4516ZM145.031 92.4432C144.73 92.4704 143.781 92.5748 142.922 92.6756C142.062 92.776 141.254 92.8692 141.125 92.8824C138.842 93.1168 138 93.348 138.002 93.7408C138.005 94.2148 138.115 94.3864 138.584 94.6484C138.973 94.866 139.291 94.9148 138.963 94.7064C138.765 94.5812 140.162 94.3932 142.141 94.2788C142.57 94.254 143.186 94.1676 143.509 94.0864C143.852 94 144.131 93.9968 144.182 94.0788C144.23 94.1556 144.352 94.2176 144.454 94.2164C144.57 94.2148 144.551 94.1496 144.406 94.0452C144.212 93.9056 144.222 93.8928 144.462 93.9712C144.751 94.0648 145.756 93.8512 146.372 93.5644C146.969 93.2868 146.514 92.2976 145.822 92.3688C145.688 92.3824 145.332 92.416 145.031 92.4432ZM140.5 92.6564C140.178 92.7592 140.164 92.7836 140.422 92.7944C140.594 92.8016 140.84 92.7396 140.969 92.6564C141.242 92.4792 141.052 92.4792 140.5 92.6564ZM134.875 92.9688C134.875 93.0548 135.016 93.1252 135.188 93.1252C135.359 93.1252 135.5 93.0548 135.5 92.9688C135.5 92.8828 135.359 92.8124 135.188 92.8124C135.016 92.8124 134.875 92.8828 134.875 92.9688ZM40.3436 94.3752C40.3436 94.7916 40.2916 94.8436 39.8752 94.8436C39.4584 94.8436 39.4064 94.7916 39.4064 94.3752C39.4064 93.9584 39.4584 93.9064 39.8752 93.9064C40.2916 93.9064 40.3436 93.9584 40.3436 94.3752ZM60.236 95.6656C60.2524 95.9696 60.308 96.1924 60.36 96.1608C60.4324 96.1168 60.8124 96.756 60.8124 96.9216C60.8124 96.9388 60.6192 96.9656 60.3828 96.9812C59.402 97.0456 58.826 97.1528 58.4876 97.3336C58.2908 97.4392 58.0888 97.4844 58.0388 97.4344C57.9888 97.3848 58.0384 97.3436 58.1492 97.3436C58.3016 97.3436 58.3076 97.292 58.174 97.1308C58.0284 96.9552 58.1324 96.9244 58.7648 96.954C59.7988 97.0024 59.8812 96.9212 59.92 95.818C59.9548 94.8212 60.1852 94.71 60.236 95.6656ZM59.7188 95.5468C59.7188 95.8476 59.6484 96.0936 59.5624 96.0936C59.3892 96.0936 59.346 95.2688 59.5104 95.104C59.6904 94.9244 59.7188 94.9848 59.7188 95.5468ZM39.0936 95.6252C39.0936 96.0416 39.0416 96.0936 38.6252 96.0936C38.2084 96.0936 38.1564 96.0416 38.1564 95.6252C38.1564 95.2084 38.2084 95.1564 38.6252 95.1564C39.0416 95.1564 39.0936 95.2084 39.0936 95.6252ZM33.6904 95.4892C33.6372 95.5752 33.636 95.688 33.6876 95.7396C33.7392 95.7912 33.7812 95.7512 33.7812 95.6512C33.7812 95.5508 33.8492 95.4688 33.9324 95.4688C34.016 95.4688 34.0372 95.5916 33.9804 95.742C33.8836 95.9984 33.8936 95.9988 34.1416 95.7532C34.2872 95.6092 34.4064 95.466 34.4064 95.4352C34.4064 95.3 33.778 95.3476 33.6904 95.4892ZM31.1896 95.6468C31.1336 95.7372 30.8892 95.782 30.646 95.7464C30.4028 95.7108 30.2396 95.7388 30.2828 95.8092C30.326 95.8792 30.1656 95.862 29.9264 95.7712C29.6184 95.654 29.4744 95.6544 29.4352 95.7724C29.4048 95.8644 29.2976 95.8864 29.1976 95.8212C28.8052 95.5664 27.3752 95.6768 27.3752 95.9616C27.3752 96.1088 27.2344 96.2736 27.0624 96.328C26.8908 96.3828 26.75 96.5368 26.75 96.6704C26.75 96.862 26.7964 96.8748 26.9712 96.7296C27.1468 96.584 27.2112 96.6052 27.2836 96.8336C27.334 96.9916 27.5268 97.1324 27.7124 97.1464C27.898 97.1604 28.0916 97.228 28.142 97.2968C28.1928 97.3656 28.9024 97.4268 29.7188 97.4332C30.5352 97.4396 32.3012 97.5004 33.6436 97.5684C35.3368 97.6544 36.116 97.6408 36.1876 97.5248C36.344 97.2724 36.75 97.492 36.75 97.8292C36.75 97.992 36.8556 98.1252 36.9844 98.1252C37.1132 98.1252 37.2196 98.0372 37.2208 97.9296C37.222 97.8224 37.268 97.5668 37.3228 97.3616C37.4148 97.0176 37.3848 96.9944 36.934 97.0604C36.5504 97.1168 36.4808 97.0892 36.6104 96.9332C36.952 96.5216 36.7052 96.1928 36.0468 96.182C35.592 96.1748 35.4348 96.1116 35.4696 95.95C35.504 95.7916 35.4592 95.772 35.3136 95.8808C35.1348 96.014 34.2256 96.022 32.1896 95.9084C31.8724 95.8908 31.6436 95.8268 31.6808 95.7668C31.718 95.7068 31.6452 95.6184 31.5196 95.57C31.394 95.522 31.2456 95.5564 31.1896 95.6468ZM34.4948 95.7648C34.4472 95.8416 34.5768 95.8944 34.7828 95.882C34.9888 95.8696 35.1248 95.8068 35.0852 95.742C34.9852 95.5804 34.5996 95.5948 34.4948 95.7648ZM141.605 96.4708C141.432 96.6796 140.874 96.7968 139.25 96.9664C135.761 97.3304 135.251 97.5016 135.445 98.2432C135.577 98.7472 136.644 98.7756 139.309 98.3448C139.733 98.2764 139.882 98.2988 139.808 98.4204C139.657 98.6644 139.966 98.6356 140.508 98.3552C140.945 98.1292 140.969 98.1332 140.969 98.4336C140.969 98.616 140.866 98.75 140.725 98.75C140.572 98.75 140.525 98.8224 140.599 98.9452C140.667 99.0592 140.594 99.0428 140.422 98.9064C140.25 98.7696 140.176 98.7532 140.245 98.8672C140.309 98.9748 140.294 99.0624 140.21 99.0624C140.126 99.0624 140.022 98.9748 139.978 98.8672C139.932 98.7504 139.895 98.782 139.887 98.9452C139.877 99.1808 139.718 99.2164 138.742 99.2032C137.937 99.192 137.722 99.1516 138 99.0624L138.391 98.9376L137.966 98.922C137.686 98.9116 137.483 99.0164 137.368 99.2308C137.273 99.4096 137.108 99.5224 137.003 99.482C136.879 99.434 136.799 99.5948 136.776 99.9404C136.734 100.559 137.248 100.866 138.076 100.718C138.335 100.672 138.898 100.598 139.328 100.555C139.758 100.511 140.566 100.425 141.125 100.362C141.684 100.3 142.475 100.246 142.883 100.242C143.291 100.238 143.625 100.182 143.625 100.117C143.625 100.053 143.87 100 144.169 100C144.608 100 144.726 99.932 144.784 99.6484C144.956 98.8008 144.898 98.75 143.755 98.75C142.916 98.75 142.688 98.7004 142.688 98.5188C142.688 98.3912 142.529 98.2536 142.336 98.212C142.142 98.1708 141.844 98.1076 141.672 98.0712C141.442 98.0224 141.47 98.0004 141.779 97.9868C142.613 97.9508 143 97.7 143 97.1944C143 96.6948 142.502 96.4204 141.967 96.6256C141.787 96.6948 141.741 96.6552 141.806 96.486C141.919 96.1904 141.843 96.1844 141.605 96.4708ZM117.297 96.752C119.173 96.9612 119.221 96.9688 120.031 97.1804C123.736 98.1484 127.419 100.731 129.382 103.736C129.696 104.216 129.998 104.644 130.054 104.688C130.154 104.764 130.608 105.715 131.285 107.266C132.286 109.557 132.816 114.144 132.449 117.344C132.415 117.644 132.344 118.259 132.292 118.71C132.239 119.16 132.197 119.563 132.198 119.605C132.198 119.647 132.132 119.912 132.05 120.192C131.621 121.669 131.808 125 132.381 126.082C132.452 126.218 132.603 126.57 132.716 126.866C132.829 127.162 133.391 128.34 133.964 129.483C134.538 130.627 134.974 131.562 134.935 131.562C134.895 131.562 135.006 131.716 135.182 131.904C135.357 132.092 135.5 132.312 135.5 132.393C135.5 132.564 136.307 134.416 136.432 134.531C136.686 134.767 137.867 137.92 138.333 139.609C138.428 139.953 138.543 140.34 138.589 140.469C139.344 142.595 138.118 146.336 135.926 148.594C135.717 148.808 135.504 149.105 135.452 149.252C135.401 149.398 135.11 149.68 134.806 149.876C134.502 150.073 134.253 150.322 134.252 150.43C134.251 150.537 134.144 150.625 134.016 150.625C133.887 150.625 133.781 150.692 133.781 150.774C133.781 150.958 131.792 152.257 131.009 152.584C130.692 152.716 130.325 152.918 130.193 153.034C130.061 153.149 129.672 153.336 129.328 153.451C128.984 153.565 128.63 153.711 128.54 153.775C128.451 153.838 128.17 153.928 127.916 153.975C127.661 154.022 126.996 154.201 126.438 154.373C125.879 154.544 125.24 154.686 125.018 154.686C124.796 154.687 124.562 154.74 124.498 154.805C124.433 154.869 124.228 154.931 124.042 154.942C123.856 154.953 123.211 155.045 122.609 155.145C119.158 155.722 115.58 155.669 113.312 155.008C112.668 154.821 112.074 154.602 111.992 154.521C111.91 154.441 111.716 154.375 111.559 154.375C111.298 154.375 110.501 153.918 109.836 153.387C109.055 152.764 110.218 149.207 111.667 147.788C113.786 145.714 115.726 145.195 121.372 145.194C123.099 145.194 124.658 145.147 124.837 145.09C125.016 145.034 125.326 144.956 125.526 144.917C126.027 144.821 126.31 144.408 126.119 144.051C125.911 143.663 125.931 143.438 126.174 143.438C127.212 143.438 129.928 141.382 130.598 140.088C131.687 137.986 130.782 136.68 129.213 138.088C128.558 138.676 127.836 139.094 127.375 139.153C127.246 139.17 126.93 139.296 126.672 139.434C126.414 139.572 125.957 139.686 125.656 139.688C125.356 139.688 124.841 139.764 124.513 139.855C124.131 139.961 123.85 139.967 123.732 139.871C123.63 139.789 123.102 139.74 122.558 139.764C121.823 139.795 121.548 139.75 121.485 139.587C121.421 139.418 121.35 139.409 121.185 139.546C121.028 139.677 120.969 139.678 120.969 139.55C120.969 139.454 120.846 139.374 120.695 139.374C120.244 139.372 116.822 138.222 116.557 137.983C115.895 137.387 119.447 135.233 121.557 134.95C123.066 134.748 123.879 134.505 124.237 134.146L124.615 133.768L124.113 133.299C123.06 132.316 119.668 132.73 117.358 134.123L116.481 134.652L115.96 133.577C114.997 131.584 114.966 131.574 109.375 131.317L107.235 131.219L107.539 130.651C107.707 130.338 107.844 129.994 107.844 129.885C107.844 129.615 108.054 129.637 108.659 129.969C111.117 131.318 116.426 130.632 118.508 128.696C120.376 126.958 115.56 125.104 107.062 124.289C100.963 123.704 96.646 120.486 95.7124 115.828C94.6656 110.608 96.754 105.967 101.405 103.176C102.205 102.697 103.047 102.055 103.28 101.749C106.047 98.1076 111.623 96.12 117.297 96.752ZM136.281 97.0312C136.281 97.2148 136.401 97.2148 136.828 97.0312C137.105 96.9124 137.092 96.8956 136.711 96.886C136.475 96.88 136.281 96.9452 136.281 97.0312ZM57.0412 97.6696C56.9288 97.7388 56.8876 97.8456 56.9488 97.9072C57.0104 97.9688 57.1896 97.902 57.3472 97.7596C57.5048 97.6168 57.6948 97.5 57.7692 97.5C57.8436 97.5 57.6624 97.676 57.3664 97.8912C57.0704 98.1068 56.6848 98.458 56.51 98.6724C56.2112 99.0384 56.19 99.0428 56.1676 98.7464C56.1548 98.5728 56.21 98.4716 56.2908 98.5216C56.3716 98.5712 56.4376 98.5428 56.4376 98.458C56.4376 98.3736 56.3144 98.2664 56.164 98.22C56.0136 98.174 56.084 98.1592 56.3204 98.1872C56.7 98.232 56.75 98.1864 56.75 97.7956C56.75 97.4564 56.8076 97.3756 56.9976 97.4484C57.1924 97.5232 57.2016 97.57 57.0412 97.6696ZM28.1848 98.3592C28.0764 98.5968 28.0664 98.75 28.1596 98.75C28.2436 98.75 28.3124 98.8556 28.3124 98.9844C28.3124 99.1132 28.2312 99.2188 28.132 99.2188C28.0288 99.2188 28.0716 99.3512 28.2312 99.5276C28.3848 99.6976 28.5744 99.7968 28.6528 99.7484C28.7308 99.7 28.8796 99.724 28.9836 99.8012C29.4712 100.165 34.6576 100.024 34.8316 99.642C35.018 99.2328 34.8416 98.8944 34.328 98.6756C33.9808 98.5276 33.6972 98.496 32.2188 98.4392C31.66 98.4176 31.1392 98.3624 31.0608 98.316C30.7572 98.1364 28.7784 98.2452 28.5248 98.4556C28.2956 98.646 28.2796 98.6308 28.3788 98.3192C28.528 97.8484 28.406 97.8736 28.1848 98.3592ZM34.6816 98.0792C34.876 98.1168 35.1572 98.1152 35.3064 98.076C35.456 98.0368 35.2968 98.0064 34.9532 98.008C34.6092 98.01 34.4872 98.042 34.6816 98.0792ZM128.874 98.5268C129.339 98.6616 129.808 98.8616 129.917 98.9708C130.026 99.08 130.256 99.2444 130.428 99.336C130.773 99.5212 131.543 100.781 131.31 100.781C131.23 100.781 131.077 100.677 130.971 100.55C130.866 100.422 130.118 99.9152 129.311 99.4228C127.458 98.2916 127.358 98.0856 128.874 98.5268ZM138.03 98.6756C138.07 98.716 138.308 98.762 138.56 98.778C138.81 98.7936 139.105 98.8744 139.215 98.9568C139.324 99.0396 139.459 99.062 139.514 99.0068C139.57 98.9516 139.528 98.9064 139.423 98.9064C139.318 98.9064 139.265 98.852 139.306 98.786C139.347 98.7196 139.06 98.6512 138.668 98.634C138.277 98.6164 137.989 98.6352 138.03 98.6756ZM61.5716 99.316C62.288 99.4592 62.0052 99.6876 61.112 99.6876C60.2416 99.6876 58.7392 100.161 58.274 100.582C57.978 100.85 57.97 100.846 58.0232 100.484C58.1544 99.5892 59.9624 98.994 61.5716 99.316ZM55.892 99.5288C55.84 99.6136 55.7344 99.9828 55.6584 100.349L55.5192 101.016L55.5412 100.312C55.5532 99.9256 55.6364 99.5576 55.7268 99.4944C55.9524 99.3364 56.0044 99.3472 55.892 99.5288ZM27.9284 99.8328C27.822 100.006 28.0684 100.192 28.2124 100.048C28.3612 99.8992 28.3336 99.6876 28.1656 99.6876C28.0848 99.6876 27.978 99.7528 27.9284 99.8328ZM43.6252 100.391C43.6252 100.52 43.7304 100.625 43.8592 100.625C43.9884 100.625 44.0936 100.73 44.0936 100.859C44.0936 101.016 43.9376 101.094 43.6252 101.094C43.2084 101.094 43.1564 101.042 43.1564 100.625C43.1564 100.312 43.2344 100.156 43.3908 100.156C43.5196 100.156 43.6252 100.262 43.6252 100.391ZM51.5936 100.607C51.5936 100.94 51.5028 101.083 51.242 101.156C50.9148 101.248 50.91 101.266 51.1736 101.422C51.3292 101.514 51.5752 101.538 51.7204 101.476C51.8656 101.414 52.2656 101.341 52.6092 101.314C53.1316 101.272 53.0852 101.302 52.326 101.49C51.8268 101.614 51.3112 101.823 51.1808 101.953C51.0504 102.084 50.868 102.144 50.7756 102.087C50.6728 102.023 50.6536 102.057 50.726 102.174C50.8008 102.295 50.7252 102.396 50.5176 102.45C50.338 102.497 50.2268 102.594 50.2708 102.664C50.3144 102.735 50.2572 102.85 50.1436 102.92C49.9256 103.054 49.4972 104.12 49.3328 104.938C49.252 105.34 49.174 105.411 48.8784 105.354C48.5308 105.288 48.528 105.272 48.7684 104.773C48.9044 104.491 49.0376 104.317 49.0648 104.387C49.092 104.457 49.0368 104.658 48.942 104.835C48.8476 105.012 48.832 105.156 48.9072 105.156C49.0276 105.156 49.2284 104.624 49.5212 103.53C49.5692 103.35 49.6396 102.799 49.6776 102.305C49.7156 101.807 49.822 101.406 49.9156 101.406C50.2264 101.406 50.6564 100.893 50.6564 100.523C50.6564 100.22 50.7376 100.156 51.1252 100.156C51.5376 100.156 51.5936 100.21 51.5936 100.607ZM32.9404 100.853C32.9756 100.945 32.7656 101.021 32.4544 101.027C32.1528 101.034 31.906 100.999 31.906 100.949C31.906 100.81 28.9684 100.854 28.8276 100.995C28.7592 101.064 28.702 101.354 28.7008 101.641C28.6976 102.333 29.1308 102.456 31.9844 102.579C33.1876 102.631 34.438 102.687 34.7636 102.704C35.0888 102.721 35.4296 102.84 35.5204 102.969C35.6592 103.166 35.6716 103.16 35.5976 102.93C35.496 102.614 35.7824 102.552 35.9024 102.864C35.9464 102.979 36.0816 103.073 36.2028 103.073C36.3244 103.073 36.3876 103.014 36.3432 102.943C36.2992 102.871 36.658 102.812 37.1408 102.812C37.7976 102.812 37.9908 102.862 37.908 103.008C37.82 103.164 37.84 103.164 38.0084 103.008C38.124 102.9 38.2792 102.812 38.3528 102.812C38.4268 102.812 38.4376 102.9 38.3768 103.008C38.2928 103.156 38.3132 103.16 38.4616 103.023C38.5768 102.917 38.826 102.888 39.0704 102.951C39.4252 103.044 39.7684 103.049 40.9236 102.98C41.0276 102.974 41.256 102.815 41.4316 102.627C41.8196 102.21 41.8604 102.427 41.4764 102.866C41.326 103.038 41.2912 103.127 41.3984 103.064C41.506 103.002 41.5936 103.018 41.5936 103.101C41.5936 103.184 41.7372 103.214 41.9128 103.169C42.088 103.123 42.1936 103.006 42.1472 102.91C42.1008 102.813 42.0192 102.611 41.9664 102.461C41.9132 102.31 41.8 102.188 41.7152 102.188C41.63 102.188 41.602 102.078 41.6532 101.945C41.7044 101.812 41.6944 101.734 41.6312 101.772C41.5676 101.811 41.4124 101.731 41.2864 101.594C41.0832 101.375 41.0872 101.358 41.3204 101.448C41.4652 101.503 41.6252 101.482 41.676 101.4C41.7288 101.314 41.5128 101.251 41.1732 101.252C40.7316 101.254 40.6384 101.294 40.8124 101.406C41.0128 101.536 41.0072 101.558 40.7736 101.56C40.6232 101.562 40.4996 101.51 40.4992 101.445C40.4988 101.381 39.3208 101.313 37.882 101.294C34.6304 101.252 33.6252 101.147 33.6252 100.85C33.6252 100.712 33.484 100.64 33.252 100.659C33.0464 100.676 32.9064 100.764 32.9404 100.853ZM54.6728 101.465C54.802 101.594 54.29 101.558 53.7032 101.397C53.2952 101.285 53.3216 101.274 53.9048 101.317C54.2732 101.344 54.6192 101.411 54.6728 101.465ZM55.4584 101.812C55.2684 102.003 54.8952 101.684 55.0772 101.486C55.2316 101.319 55.2892 101.324 55.3972 101.512C55.4696 101.639 55.4972 101.774 55.4584 101.812ZM46.5936 102.5V103.594H46.1252H45.6564V102.5V101.406H46.1252H46.5936V102.5ZM138.014 101.579C137.721 101.64 137.402 101.659 137.305 101.622C137.056 101.526 136.438 102.144 136.438 102.489C136.438 103.011 136.951 103.07 139.096 102.795C140.52 102.613 140.573 102.571 140.41 101.762C140.335 101.39 139.303 101.311 138.014 101.579ZM145.018 103.028C144.961 103.081 143.252 103.245 141.572 103.359C141.259 103.38 140.942 103.434 140.869 103.478C140.795 103.522 140.172 103.604 139.484 103.66C136.818 103.876 136.47 104.044 136.815 104.945C136.923 105.226 139.09 105.18 140.969 104.858C141.442 104.778 142.391 104.667 143.078 104.613C145.55 104.418 146.115 104.238 146.123 103.642C146.127 103.311 145.244 102.821 145.018 103.028ZM45.5 103.438C45.5 103.646 45.396 103.75 45.1876 103.75C44.9792 103.75 44.8752 103.646 44.8752 103.438C44.8752 103.229 44.9792 103.125 45.1876 103.125C45.396 103.125 45.5 103.229 45.5 103.438ZM97.058 103.702C97.2212 103.846 96.6352 104.058 96.0684 104.06C95.5372 104.062 95.37 104.166 94.672 104.928C93.728 105.959 93.31 105.805 94.016 104.687C94.7556 103.516 94.9044 103.43 96.0056 103.54C96.544 103.594 97.0176 103.667 97.058 103.702ZM54.6232 104.002C55.3676 104.363 55.4228 104.594 54.7804 104.657C54.194 104.714 52.4732 103.97 52.6248 103.725C52.7696 103.491 53.8912 103.646 54.6232 104.002ZM48.4688 104.375C48.4688 104.633 48.3984 104.844 48.3124 104.844C48.2264 104.844 48.1564 104.633 48.1564 104.375C48.1564 104.117 48.2264 103.906 48.3124 103.906C48.3984 103.906 48.4688 104.117 48.4688 104.375ZM40.348 104.529C40.0728 104.699 40.4988 104.829 40.8824 104.692C41.1764 104.587 41.1756 104.581 40.8604 104.498C40.6812 104.452 40.4508 104.465 40.348 104.529ZM100.618 105.04C99.4352 106.007 99.0568 107.191 99.8196 107.539C100.566 107.879 102.594 105.437 102.031 104.875C101.737 104.58 101.087 104.656 100.618 105.04ZM46.9976 105.196C47.0504 105.248 46.8032 105.271 46.4484 105.245C46.094 105.22 45.7632 105.159 45.7136 105.11C45.664 105.06 45.9112 105.038 46.2628 105.06C46.614 105.082 46.9448 105.143 46.9976 105.196ZM58.2584 106.367C58.0536 106.775 57.7972 107.391 57.6884 107.734C57.5796 108.078 57.4268 108.44 57.3492 108.538C57.2716 108.637 57.2216 108.777 57.2384 108.851C57.2552 108.924 57.186 109.186 57.0844 109.433C56.9828 109.68 56.8788 110.07 56.8536 110.3C56.8284 110.529 56.768 110.784 56.7192 110.866C56.6704 110.948 56.5884 111.226 56.5372 111.484C56.486 111.742 56.3976 112.164 56.3412 112.422C56.2848 112.68 56.2292 114.086 56.2176 115.547L56.1968 118.203L55.692 118.252C55.4144 118.279 55.1876 118.374 55.1876 118.464C55.1876 118.554 55.0844 118.588 54.958 118.539C54.832 118.491 54.6932 118.509 54.6496 118.58C54.6056 118.65 54.3752 118.674 54.1368 118.634C53.898 118.593 53.3692 118.526 52.9612 118.484C52.5528 118.442 52.252 118.354 52.2924 118.289C52.3324 118.224 52.2016 118.202 52.0012 118.24C51.8008 118.278 51.3284 118.157 50.9512 117.97C50.574 117.783 49.94 117.531 49.542 117.408C49.1444 117.286 48.7312 117.081 48.6244 116.953C48.518 116.824 48.316 116.717 48.176 116.716C47.8892 116.712 45.6456 115.095 45.4532 114.753C45.3844 114.631 45.2564 114.531 45.1684 114.531C44.5508 114.531 43.1564 111.423 43.1564 110.046C43.1564 108.643 44.0104 108.332 48.4532 108.116C51.0876 107.987 53.7212 107.6 54.6408 107.204C54.8124 107.13 55.6212 106.814 56.4376 106.502C57.254 106.189 58.0272 105.865 58.1564 105.782C58.604 105.491 58.628 105.629 58.2584 106.367ZM134.852 107.252C135.428 107.659 136.419 109.052 136.013 108.884C135.595 108.711 134.1 107.543 134.042 107.344C134.004 107.215 133.918 106.975 133.85 106.81C133.709 106.465 133.788 106.5 134.852 107.252ZM41.2344 108.309C40.8556 108.918 40.7332 109.315 40.6836 110.093C40.6192 111.107 40.4256 111.396 40.258 110.728C39.4528 107.52 39.4688 107.408 40.7236 107.474L41.7212 107.525L41.2344 108.309ZM143 108.294C142.442 108.364 141.634 108.434 141.206 108.45C139.975 108.497 139.517 108.994 140.136 109.613C140.39 109.868 141.488 109.869 143.234 109.618C144.014 109.506 145.88 109.308 146.054 109.319C146.28 109.334 146.32 108.594 146.106 108.336C145.91 108.101 144.684 108.084 143 108.294ZM108.988 108.893C107.556 110.226 107.703 112.416 109.179 111.744C109.61 111.548 110.34 110.178 110.342 109.56C110.346 108.651 109.628 108.297 108.988 108.893ZM116.035 111.878C114.881 112.449 114.231 113.768 114.224 115.554C114.212 118.534 116.735 119.73 118.554 117.606C120.857 114.915 118.898 110.461 116.035 111.878ZM147.178 114.572C147.199 115.28 147.293 116.234 147.387 116.692C147.58 117.627 147.559 117.677 146.95 117.75C146.711 117.779 146.164 117.843 145.734 117.893C145.305 117.943 144.742 118.011 144.484 118.045C144.226 118.079 143.453 118.146 142.766 118.194C142.078 118.242 141.006 118.322 140.383 118.371L139.25 118.46V117.729C139.25 116.77 138.51 115.215 137.709 114.491L137.102 113.943L138.293 113.846C138.948 113.793 140.082 113.706 140.812 113.653C141.543 113.6 142.808 113.506 143.625 113.442C144.442 113.378 145.566 113.317 146.125 113.306L147.141 113.284L147.178 114.572ZM136.747 116.673C137.22 117.274 137.157 117.637 136.665 117.145C136.447 116.927 136.025 116.633 135.728 116.492C135.286 116.282 135.188 116.148 135.188 115.761V115.286L135.81 115.779C136.152 116.05 136.574 116.452 136.747 116.673ZM89.6408 116.766C91.6116 116.787 92.5524 116.739 92.7852 116.606C93.0944 116.429 93.136 116.468 93.38 117.153C93.7668 118.242 94.7628 120.311 94.99 120.499C96.2708 121.562 90.9 126.11 87.3172 126.997L86.1204 127.293L86.2228 126.732C86.2788 126.424 86.376 126.031 86.4384 125.859C87.0568 124.156 85.7464 117.918 84.5512 116.875C84.0236 116.415 84.3116 116.314 85.5552 116.522C86.2552 116.64 88.0936 116.75 89.6408 116.766ZM120.551 117.415C119.181 118.012 119.599 119.844 121.106 119.844C122.689 119.844 123.261 118.122 121.909 117.424C121.358 117.138 121.191 117.137 120.551 117.415ZM20.9052 120.391C20.6736 120.606 20.4524 120.781 20.414 120.781C20.3752 120.781 20.3436 120.606 20.3436 120.391C20.3436 120.057 20.4152 120 20.8352 120H21.3268L20.9052 120.391ZM26.5936 121.397V122.766L23.508 122.692C21.8104 122.651 20.3868 122.585 20.344 122.546C20.2252 122.437 20.8416 122.029 21.2812 121.926C21.7084 121.826 22.4748 121.043 22.6312 120.547C22.78 120.074 22.8784 120.051 24.8048 120.039L26.5936 120.028V121.397ZM43.3908 120.109C41.2484 120.525 40.04 121.585 39.596 123.438C39.2512 124.876 39.4888 140.18 39.8672 140.922C40.2228 141.62 40.2612 141.783 40.036 141.644C39.8992 141.559 36.2072 141.528 34.6408 141.599L34.0156 141.627L33.9756 130.81L33.9352 119.994L38.8192 120.021C41.5052 120.036 43.5624 120.076 43.3908 120.109ZM136.401 123.535C136.939 123.835 137.479 124.234 137.601 124.423C137.919 124.915 138.072 125.625 137.861 125.625C137.766 125.625 137.688 125.559 137.688 125.479C137.688 125.318 134.943 123.438 134.708 123.438C134.628 123.438 134.562 123.289 134.562 123.108C134.562 122.674 135.063 122.791 136.401 123.535ZM150.966 133.556L150.964 141.486L148.818 141.508C147.638 141.519 146.326 141.583 145.904 141.649C145.187 141.76 145.143 141.748 145.255 141.47C146.024 139.554 144.224 136.562 142.303 136.562C142.003 136.562 141.997 136.341 142.285 135.893C144.084 133.097 142.892 129.741 139.794 128.886C139.484 128.8 139.254 128.682 139.284 128.623C139.312 128.564 139.466 128.234 139.626 127.891C139.784 127.547 140.012 127.079 140.13 126.85C140.248 126.622 140.302 126.323 140.25 126.186C140.167 125.972 140.324 125.937 141.382 125.934C143.368 125.928 148.854 125.746 148.924 125.683C148.96 125.651 149.434 125.625 149.978 125.625H150.967L150.966 133.556ZM153.469 125.747C153.469 125.814 153.258 125.949 153 126.046C152.624 126.188 152.531 126.181 152.531 126.012C152.531 125.897 152.725 125.773 152.961 125.737C153.197 125.701 153.408 125.661 153.43 125.648C153.451 125.636 153.469 125.68 153.469 125.747ZM104.875 126.306C106.224 126.562 106.302 127.666 105.156 130.267C104.9 130.846 104.406 131.085 104.406 130.629C104.406 130.22 102.176 129.224 101.252 129.22C101.02 129.22 100.788 129.148 100.734 129.062C100.681 128.976 100.702 128.906 100.779 128.906C100.857 128.906 101.09 128.758 101.296 128.577C101.503 128.396 101.814 128.133 101.986 127.992C102.16 127.85 102.57 127.365 102.898 126.914C103.227 126.463 103.577 126.098 103.677 126.103C103.778 126.109 104.316 126.2 104.875 126.306ZM26.5904 134.456L26.5876 141.569L23.5048 141.527L20.422 141.484L20.3812 134.496L20.3404 127.508L22.9592 127.465C24.3996 127.441 25.8064 127.404 26.0856 127.383L26.5932 127.344L26.5904 134.456ZM139.094 130.985C140.515 131.501 140.969 131.93 140.969 132.759C140.969 133.19 140.966 133.191 140.735 132.861C140.456 132.462 139.236 131.691 138.415 131.394C138.09 131.276 137.75 131.09 137.658 130.981C137.434 130.71 138.346 130.713 139.094 130.985ZM161.009 133.633C160.988 134.686 160.97 136.884 160.97 138.52L160.969 141.492L159.094 141.525L157.219 141.557L157.206 138.396C157.198 136.657 157.17 134.443 157.141 133.476L157.09 131.719H159.068H161.047L161.009 133.633ZM105.5 133.2C113.729 133.369 113.15 133.243 114.132 135.078C114.999 136.699 114.856 137.508 113.962 136.034C113.266 134.885 112.58 134.22 112.083 134.214C111.328 134.204 108.73 134.072 106.125 133.909C104.707 133.82 102.37 133.731 100.93 133.71C99.4912 133.689 98.3144 133.637 98.3156 133.594C98.324 133.228 99.682 132.916 100.578 133.074C100.664 133.09 102.879 133.146 105.5 133.2ZM142.429 138.912C143.021 139.19 143.439 139.615 143.277 139.774C143.104 139.945 141.044 139.037 140.935 138.741C140.779 138.319 141.294 138.378 142.429 138.912ZM146.359 143.979L146.828 144.193L146.184 144.206C145.333 144.223 144.546 144.059 144.652 143.887C144.781 143.68 145.829 143.736 146.359 143.979ZM102.117 145.081C102.104 145.423 102.041 146.558 101.977 147.603C101.854 149.615 101.95 150.171 102.713 151.851C103.068 152.634 103.081 152.601 102.37 152.765C100.833 153.119 97.4124 152.892 96.5448 152.378C94.9268 151.42 97.1516 146.531 99.8752 145.062C101.396 144.241 102.149 144.248 102.117 145.081ZM143.064 146.172C143.588 146.774 144.156 147.381 144.328 147.522C144.5 147.662 144.838 147.962 145.079 148.186C145.32 148.411 145.742 148.71 146.016 148.85C146.291 148.991 146.551 149.158 146.594 149.222C146.671 149.336 148.518 150.458 149.875 151.214C150.796 151.727 151.89 152.526 152.363 153.033C152.731 153.426 152.626 153.626 152.25 153.25C152.147 153.147 152.062 153.132 152.062 153.216C152.062 153.394 151.916 153.422 150.422 153.53C147.56 153.736 144.593 152.888 142.359 151.227C141.484 150.576 141.278 150.346 141.342 150.088C141.638 148.888 141.76 147.378 141.675 145.938C141.582 144.356 141.588 144.311 141.846 144.688C141.992 144.902 142.541 145.57 143.064 146.172ZM106.237 147.016C106.772 147.196 107.596 147.344 108.07 147.344H108.931L108.753 147.734C108.655 147.949 108.516 148.125 108.444 148.125C108.372 148.125 108.312 148.215 108.312 148.325C108.312 148.434 108.102 148.931 107.844 149.428C107.586 149.925 107.375 150.498 107.375 150.702C107.375 150.906 107.303 151.263 107.215 151.494L107.055 151.914L106.753 151.566C106.179 150.904 104.719 147.406 104.719 146.693C104.719 146.545 105.059 146.618 106.237 147.016ZM59.3168 152.582C59.4824 152.707 59.5876 152.839 59.5512 152.876C59.5144 152.912 59.3184 152.807 59.1156 152.643C58.688 152.296 58.8676 152.242 59.3168 152.582Z" fill="#B42E1E"/>
</g>
</g>
<defs>
<clipPath id="clip0_65_2069">
<rect width="160" height="141" fill="white" transform="translate(18 25)"/>
</clipPath>
<clipPath id="clip1_65_2069">
<rect x="18" y="25" width="160" height="145.254" rx="72.6269" fill="white"/>
</clipPath>
</defs>
</svg>
