<svg width="203" height="143" viewBox="0 0 203 143" fill="none" xmlns="http://www.w3.org/2000/svg">
<ellipse cx="101.102" cy="71.486" rx="93.8034" ry="59.0053" transform="rotate(8 101.102 71.486)" fill="#B42E1E"/>
<path d="M94.368 119.404C116.712 122.544 137.807 120.287 153.885 113.951C169.866 107.652 181.519 97.0156 183.48 83.0633C185.44 69.1111 177.171 55.675 163.545 45.2151C149.836 34.6921 130.181 26.7084 107.837 23.5682C85.4928 20.4279 64.3981 22.6845 48.3203 29.0214C32.3391 35.3203 20.6861 45.9564 18.7252 59.9086C16.7644 73.8609 25.0342 87.2969 38.6602 97.7568C52.3684 108.28 72.0239 116.264 94.368 119.404Z" fill="#B42E1E" stroke="#FFEC96" stroke-width="6"/>
<g clip-path="url(#clip0_65_2065)">
<path d="M50.955 43.0681C50.9789 43.0291 51.0074 42.9999 51.0485 42.9798C52.0672 42.4793 66.7767 35.8724 96.6324 55.7214C124.833 74.4707 157.71 61.788 163.665 59.1656C163.863 59.0788 164.127 59.4108 164.002 59.587L156.989 69.5327C156.878 69.6894 156.969 69.9072 157.158 69.9365C158.588 70.1577 163.574 70.9169 169.176 71.6286C169.409 71.6581 169.504 71.9406 169.312 72.0762C165.058 75.0925 135.135 95.6624 114.323 92.7375C91.8735 89.5824 80.4527 82.63 66.6544 76.647C53.0671 70.7555 46.4479 68.4894 37.5969 68.71C37.406 68.7148 37.2724 68.5193 37.3498 68.3448L42.3512 57.0563L50.955 43.0681Z" fill="#FFEC96"/>
<path d="M57.3095 49.5424C56.6981 51.4207 55.5793 54.6376 53.6039 58.7203C49.7908 65.1387 54.8157 64.7106 56.608 62.0732C57.6543 60.6247 58.7427 59.0464 58.7427 59.0464L62.8823 61.3388C62.8823 61.3388 62.2501 63.2817 61.6582 64.8796C59.6827 68.9623 63.7619 69.012 65.3141 66.009C66.0356 64.4539 69.2875 57.9945 70.4255 54.4969C71.7038 52.3359 68.7273 49.7807 66.7261 53.2815C65.7431 54.5356 64.0383 57.3451 64.0383 57.3451C64.0383 57.3451 60.6143 55.5032 60.5917 55.3523C60.5023 54.9648 61.0781 54.0784 61.2223 53.1938C61.865 47.0244 58.1315 47.0163 57.3095 49.5424Z" fill="#B42E1E" stroke="#FFEC96" stroke-width="0.0647178" stroke-miterlimit="10"/>
<path d="M75.9158 57.0327C77.341 54.9723 78.6719 54.7802 79.6085 55.0149C80.0139 55.1065 80.4545 56.0191 80.7684 56.8805C81.4233 62.3544 77.5564 71.7093 77.0223 72.2991C75.1532 74.5455 72.5459 73.7045 73.9346 71.1891C74.6358 69.641 75.35 68.2445 75.35 68.2445L71.9445 67.3719C68.4837 72.2712 66.3501 69.7164 68.0794 67.6328C69.9619 65.1718 73.9946 59.7714 75.9158 57.0327ZM73.8182 63.6602L77.1469 64.7216C77.1469 64.7216 78.9381 58.8493 77.784 59.3332L73.8182 63.6602Z" fill="#B42E1E" stroke="#FFEC96" stroke-width="0.0647178" stroke-miterlimit="10"/>
<path d="M92.7801 64.8289C93.4103 63.6204 92.876 60.6122 89.5299 60.6311C84.7762 59.9979 81.9638 68.0877 81.9638 68.0877C81.9638 68.0877 80.6081 72.0066 81.4678 74.9283C82.2276 77.7355 84.9725 78.1299 85.4963 78.272C88.745 77.7728 87.9694 75.5461 87.4458 75.4043C86.7721 75.2743 85.8359 75.2562 85.1777 74.5454C84.06 73.3523 84.647 70.8052 85.1157 69.4567C86.0882 67.2148 88.1581 62.7823 90.2611 64.2336C91.375 66.1593 92.4396 65.4963 92.7801 64.8289Z" fill="#B42E1E" stroke="#FFEC96" stroke-width="0.0647178" stroke-miterlimit="10"/>
<path d="M95.9333 65.0539C94.74 67.4865 95.4094 70.3194 92.6392 74.8801C91.9748 75.9957 90.4482 77.9985 90.2602 78.2869C88.7956 80.3156 90.9628 81.9372 94.088 78.4722C94.8379 77.684 95.8432 75.5398 95.8432 75.5398L96.9866 75.5716C96.9866 75.5716 97.3618 80.0373 97.3276 81.923C97.3182 83.7461 100.344 85.2092 100.884 81.7044C100.94 80.485 100.749 78.799 100.251 76.6211C100.251 76.6211 99.9478 75.0349 99.4769 74.7682C99.4769 74.7682 103.507 71.7485 104.036 70.4311C104.59 69.0513 104.086 67.967 100.993 69.9108C97.9003 71.8549 97.4742 72.5565 97.4742 72.5565C97.4742 72.5565 98.545 69.7083 98.7924 67.4716C99.3638 65.149 96.9501 63.0605 95.9333 65.0539Z" fill="#B42E1E" stroke="#FFEC96" stroke-width="0.0647178" stroke-miterlimit="10"/>
<path d="M113.12 71.9874C111.768 72.9967 110.711 75.0997 110.325 78.4519C109.79 83.4615 111.453 86.6165 115.06 86.5419C118.668 86.467 118.195 83.8052 117.882 83.6752C117.632 83.5712 117.608 83.2629 116.085 83.6036C114.562 83.944 113.562 83.1559 112.961 80.8147C112.569 79.2324 112.652 76.2772 113.968 74.8051C114.361 74.3698 114.688 74.281 114.865 74.2046C115.57 73.8994 116.183 74.3774 116.283 74.4935C117.919 76.068 118.481 74.657 118.013 73.267C116.983 71.271 115.328 70.6602 113.12 71.9874Z" fill="#B42E1E" stroke="#FFEC96" stroke-width="0.0647178" stroke-miterlimit="10"/>
<path d="M120.994 73.1707C121.243 71.2756 123.402 70.0912 123.495 74.42C123.959 77.274 123 82.5317 123.338 83.0786C123.676 83.6254 126.803 83.3679 127.662 83.2071C128.521 83.0463 129.982 83.6213 129.525 84.3952C129.131 85.1948 128.337 85.1646 128.161 85.2402C127.984 85.3154 120.849 86.3833 120.785 84.9959C120.72 83.6081 120.792 82.9837 120.859 80.6454C120.926 78.3068 120.746 75.0662 120.994 73.1707Z" fill="#B42E1E" stroke="#FFEC96" stroke-width="0.0647178" stroke-miterlimit="10"/>
<path d="M129.447 72.6315C129.49 71.2423 131.003 70.6024 131.619 72.1871C132.083 73.4137 132.113 78.4621 132.84 80.6851C133.28 81.6057 134.408 81.919 135.058 81.2225C135.862 80.1442 135.811 77.161 135.745 74.764C135.622 73.6032 135.42 72.7005 135.524 72.0765C136.066 70.0023 137.687 70.7397 138.173 73.0118C138.492 75.5126 138.631 79.4996 138.092 80.8346C137.58 82.1057 137.002 83.7208 135.237 83.8877C134.781 83.9231 131.012 83.9361 130.281 79.7119C129.626 75.2969 129.403 74.0208 129.447 72.6315Z" fill="#B42E1E" stroke="#FFEC96" stroke-width="0.0647178" stroke-miterlimit="10"/>
<path d="M141.665 69.7418C144.129 68.6879 145.9 68.4563 147.164 69.1241C147.876 69.7125 148.195 71.0991 147.825 72.2025C147.444 73.1533 146.925 73.9 146.925 73.9C148.254 74.2252 149.051 75.7087 149.06 77.5048C149.069 79.301 147.179 80.7245 143.951 81.3166C142.871 81.4631 141.768 81.3044 141.77 80.9361C141.836 80.2247 140.402 71.4373 140.402 71.4373C140.391 70.9161 140.194 70.318 141.665 69.7418ZM142.396 71.3721L143.16 74.197C143.16 74.197 146.075 73.4761 145.957 71.9506C145.84 70.4254 143.979 71.063 142.396 71.3721ZM143.262 76.3067C143.262 76.3067 143.583 79.688 143.571 79.5356C143.585 79.3197 147.737 79.0829 147.171 76.8561C146.605 74.6295 143.262 76.3067 143.262 76.3067Z" fill="#B42E1E" stroke="#FFEC96" stroke-width="0.0647178" stroke-miterlimit="10"/>
<path d="M34.1126 86.4902L34.8617 86.5955L34.967 85.8464C34.9707 85.8201 34.9765 85.7759 34.9845 85.7145C35.1756 84.2541 36.6382 73.0732 41.3799 63.0763C46.3525 52.5925 52.4652 43.5297 52.6962 43.195C52.8495 42.9728 53.0412 42.6196 53.0793 42.2351C53.0995 42.0319 53.082 41.7595 52.9255 41.4991C52.7601 41.2239 52.4998 41.0624 52.2266 40.9881C51.8071 40.8738 51.4461 40.9285 51.1842 41.0234C51.0562 41.0698 50.9537 41.1249 50.879 41.172C50.8414 41.1956 50.8101 41.2177 50.7853 41.2363C50.7851 41.2365 50.7849 41.2367 50.7847 41.2368C50.72 41.2813 50.6694 41.3271 50.6408 41.3536C50.5923 41.3985 50.5423 41.4496 50.4933 41.5022C50.3946 41.608 50.2762 41.7452 50.1423 41.9072C49.8734 42.2328 49.5207 42.6846 49.102 43.244C48.2634 44.3643 47.1461 45.934 45.8797 47.8254C43.3479 51.607 40.2089 56.6916 37.506 62.0584C34.795 67.4411 32.8682 72.8979 31.6054 77.1511C30.3489 81.383 29.7338 84.4786 29.6712 85.1363L29.6028 85.8564L30.319 85.957L34.1126 86.4902Z" fill="#B42E1E" stroke="#FFEC96" stroke-width="1.51296"/>
</g>
<defs>
<clipPath id="clip0_65_2065">
<rect width="136.166" height="47.6323" fill="white" transform="translate(37.0508 38.0388) rotate(8)"/>
</clipPath>
</defs>
</svg>
