<svg width="361" height="464" viewBox="0 0 361 464" fill="none" xmlns="http://www.w3.org/2000/svg">
<g clip-path="url(#clip0_319_2)">
<path d="M211.983 424.792C211.983 426.379 211.718 428.031 211.19 429.749C210.661 431.336 209.405 432.658 207.422 433.715C205.439 434.773 202.399 435.301 198.301 435.301C195.658 435.301 192.287 435.103 188.189 434.706C183.959 434.178 179.861 433.649 175.895 433.12C169.286 432.063 162.015 431.137 154.084 430.344C146.153 429.419 138.288 428.956 130.488 428.956C127.712 428.956 124.804 429.022 121.764 429.155C118.724 429.287 115.815 429.551 113.039 429.948C113.436 430.741 113.833 431.666 114.229 432.724C114.494 433.649 114.626 434.442 114.626 435.103C114.626 436.425 113.965 437.35 112.643 437.879C111.189 438.276 109.536 438.474 107.686 438.474C103.456 438.474 100.085 437.482 97.5734 435.5C94.9296 433.385 92.5502 430.278 90.4352 426.18C87.3948 420.761 85.2137 415.01 83.8918 408.93C82.4377 402.717 81.7107 396.834 81.7107 391.282C81.7107 383.087 83.1648 375.816 86.0729 369.471C88.9811 363.126 93.0789 358.169 98.3665 354.6C103.654 351.031 109.999 349.246 117.402 349.246C125.069 349.246 131.876 351.097 137.825 354.798C143.773 358.367 148.664 362.994 152.498 368.678C156.199 374.23 158.645 379.914 159.834 385.73C163.139 383.615 166.444 381.368 169.748 378.989C173.053 376.477 176.027 373.966 178.671 371.454C186.47 363.919 190.37 356.252 190.37 348.453C190.37 346.338 190.238 344.488 189.973 342.901C189.841 342.108 190.172 341.447 190.965 340.918C191.626 340.257 193.014 339.927 195.129 339.927C197.64 339.927 200.218 340.456 202.862 341.513C205.373 342.571 207.488 344.355 209.207 346.867C210.925 349.379 211.785 352.815 211.785 357.178C211.785 362.333 210.066 367.29 206.629 372.049C203.192 376.676 198.83 380.972 193.542 384.937C188.123 388.903 182.439 392.472 176.49 395.645C170.542 398.685 165.056 401.263 160.033 403.378C158.579 403.906 157.191 404.369 155.869 404.766C154.415 405.162 153.027 405.361 151.705 405.361C149.457 405.361 147.607 404.633 146.153 403.179C145.095 402.122 144.368 400.668 143.972 398.817C143.575 396.834 143.377 393.992 143.377 390.291C143.377 383.285 141.46 377.601 137.627 373.239C133.793 368.876 128.836 366.695 122.755 366.695C116.146 366.695 111.321 369.207 108.281 374.23C105.24 379.121 103.72 385.136 103.72 392.274C103.72 398.09 104.645 404.171 106.496 410.516C115.088 410.912 124.936 411.838 136.04 413.292C142.65 414.085 149.193 414.812 155.67 415.473C162.148 416.002 168.03 416.266 173.318 416.266C177.944 416.266 182.042 415.87 185.611 415.076C189.048 414.151 192.022 412.367 194.534 409.723C196.385 407.872 198.367 406.947 200.482 406.947C203.391 406.947 206.034 408.599 208.414 411.904C210.793 415.209 211.983 419.505 211.983 424.792ZM212.578 297.57C212.578 304.048 211.652 310.062 209.802 315.614C207.819 321.034 205.109 325.396 201.672 328.701C198.235 332.005 194.203 333.658 189.577 333.658C186.536 333.658 183.893 332.931 181.645 331.477C179.266 330.023 178.076 328.04 178.076 325.528C178.076 323.942 178.671 322.29 179.861 320.571C182.769 317.266 185.347 313.036 187.594 307.881C189.709 302.593 190.767 296.975 190.767 291.027C190.767 283.228 189.246 276.883 186.206 271.992C183.033 266.969 178.803 264.457 173.516 264.457C168.493 264.457 164.857 266.77 162.61 271.397C160.363 276.023 158.248 282.435 156.265 290.63C154.811 296.711 152.96 302.593 150.713 308.278C148.466 313.83 145.36 318.456 141.394 322.157C137.296 325.727 131.876 327.511 125.135 327.511C119.979 327.511 114.89 326.387 109.867 324.14C104.712 321.893 100.019 318.588 95.7888 314.226C91.5588 309.864 88.1879 304.576 85.6764 298.363C83.0326 292.151 81.7107 285.145 81.7107 277.345C81.7107 271.529 82.3716 266.242 83.6935 261.483C85.0154 256.592 86.8661 252.758 89.2455 249.982C91.6249 247.074 94.533 245.62 97.9699 245.62C100.614 245.62 102.927 246.347 104.91 247.801C106.893 249.255 108.479 250.974 109.669 252.957C110.726 254.939 111.255 256.658 111.255 258.112C111.255 259.434 110.66 261.218 109.47 263.466C107.488 267.167 105.967 271.331 104.91 275.957C103.72 280.452 103.125 284.417 103.125 287.854C103.125 294.332 104.579 299.619 107.488 303.717C110.263 307.683 113.568 309.666 117.402 309.666C121.632 309.666 125.201 307.154 128.109 302.131C130.885 296.975 133.859 287.788 137.032 274.569C139.411 265.581 142.716 258.575 146.946 253.551C151.044 248.528 157.587 246.017 166.576 246.017C174.639 246.017 182.174 248.198 189.18 252.56C196.186 256.79 201.87 262.805 206.233 270.604C210.463 278.271 212.578 287.26 212.578 297.57ZM213.173 190.866C213.173 195.36 211.718 198.863 208.81 201.375C205.77 203.754 200.548 205.142 193.146 205.539C185.347 205.803 177.614 206.464 169.947 207.522C162.148 208.447 154.877 209.769 148.136 211.487C138.354 213.735 129.365 216.775 121.169 220.608C112.841 224.31 106.033 229.465 100.746 236.075C99.8206 237.132 98.9613 237.991 98.1682 238.652C97.2429 239.313 96.1193 239.644 94.7974 239.644C91.8892 239.644 89.1133 238.19 86.4695 235.281C83.8257 232.241 82.5038 228.738 82.5038 224.772C82.5038 220.146 84.4206 216.18 88.254 212.875C92.0875 209.571 97.4412 206.596 104.315 203.953C115.154 199.458 127.316 196.22 140.799 194.237C154.15 192.122 167.039 190.932 179.464 190.668C183.166 190.536 185.677 190.007 186.999 189.081C188.189 188.156 188.784 186.57 188.784 184.323C188.784 179.564 186.933 174.937 183.232 170.443C179.53 165.816 174.507 161.652 168.162 157.951C161.817 154.117 154.613 151.077 146.549 148.83C138.486 146.583 130.026 145.459 121.169 145.459C115.749 145.459 111.387 145.856 108.082 146.649C104.645 147.31 101.936 148.103 99.9528 149.028C97.309 150.218 95.194 150.813 93.6077 150.813C91.6249 150.813 89.7742 149.887 88.0558 148.037C86.3373 146.186 84.9493 144.071 83.8918 141.692C82.7021 139.18 82.1073 136.933 82.1073 134.95C82.1073 132.306 83.0987 130.39 85.0815 129.2C86.9321 128.01 89.3115 127.217 92.2197 126.82C95.1279 126.424 98.1021 126.226 101.142 126.226C110.263 126.226 119.913 127.283 130.092 129.398C140.27 131.513 150.317 134.554 160.231 138.519C170.013 142.353 178.936 146.979 186.999 152.399C194.93 157.687 201.276 163.569 206.034 170.046C210.793 176.523 213.173 183.463 213.173 190.866ZM211.983 97.5473C211.983 99.1336 211.718 100.786 211.19 102.504C210.661 104.091 209.405 105.413 207.422 106.47C205.439 107.528 202.399 108.056 198.301 108.056C194.997 108.056 190.833 107.792 185.809 107.263C180.654 106.602 175.168 105.809 169.352 104.884C163.403 103.958 157.124 103.231 150.515 102.703C143.906 102.042 137.23 101.711 130.488 101.711C127.845 101.711 125.003 101.777 121.962 101.91C118.922 102.042 115.948 102.306 113.039 102.703C113.568 103.628 114.031 104.553 114.427 105.479C114.692 106.272 114.824 107.065 114.824 107.858C114.824 110.105 112.643 111.229 108.281 111.229C104.315 111.229 101.01 110.37 98.3665 108.651C95.5905 106.801 92.9467 103.496 90.4352 98.737C87.9236 94.1104 85.8746 88.6907 84.2884 82.4778C82.5699 76.1327 81.7107 69.7216 81.7107 63.2443C81.7107 50.422 85.0815 40.1774 91.8231 32.5104C98.5648 24.7113 107.554 20.8117 118.79 20.8117C125.663 20.8117 132.009 22.1997 137.825 24.9756C143.641 27.7516 148.73 31.4529 153.093 36.0795C157.323 40.5739 160.627 45.531 163.007 50.9508C165.254 56.2383 166.378 61.4598 166.378 66.6151C166.378 71.5061 165.32 74.8108 163.205 76.5293C160.958 78.2478 157.785 79.107 153.688 79.107C151.705 79.107 149.92 78.9087 148.334 78.5121C146.615 77.9834 145.756 76.9259 145.756 75.3396C145.756 74.943 145.822 74.3482 145.954 73.5551C146.087 72.7619 146.285 71.9688 146.549 71.1757C146.682 70.3825 146.88 69.2589 147.144 67.8048C147.409 66.3508 147.541 64.6984 147.541 62.8478C147.541 55.5774 145.492 49.695 141.394 45.2005C137.296 40.5739 132.009 38.2606 125.531 38.2606C118.79 38.2606 113.502 40.7722 109.669 45.7954C105.835 50.8186 103.918 57.2958 103.918 65.2272C103.918 68.1353 104.183 71.1096 104.712 74.1499C105.108 77.1902 105.703 80.2306 106.496 83.2709C115.221 83.6675 125.135 84.5928 136.239 86.0469C142.848 86.84 149.391 87.5671 155.869 88.228C162.214 88.7568 168.03 89.0212 173.318 89.0212C177.944 89.0212 182.042 88.6246 185.611 87.8315C189.048 86.9061 192.022 85.1216 194.534 82.4778C196.385 80.6272 198.367 79.7018 200.482 79.7018C203.391 79.7018 206.034 81.3542 208.414 84.6589C210.793 87.9636 211.983 92.2598 211.983 97.5473Z" fill="#FFEC96"/>
<rect y="6" width="6" height="296" transform="rotate(-90 0 6)" fill="#FFEC96"/>
<rect x="293" y="432" width="6" height="32" fill="#FFEC96"/>
<g clip-path="url(#clip1_319_2)">
<mask id="path-4-outside-1_319_2" maskUnits="userSpaceOnUse" x="237" y="0" width="112" height="112" fill="black">
<rect fill="white" x="237" width="112" height="112"/>
<path d="M343 56C343 67.0585 339.334 77.8051 332.575 86.558C325.817 95.3109 316.347 101.576 305.648 104.374C294.95 107.171 283.625 106.343 273.447 102.018C263.269 97.6939 254.812 90.1172 249.399 80.474C243.986 70.8308 241.923 59.6652 243.532 48.7243C245.141 37.7835 250.332 27.6848 258.292 20.0085C266.253 12.3322 276.533 7.51149 287.525 6.30063C298.517 5.08978 309.601 7.55714 319.041 13.3166L293 56H343Z"/>
</mask>
<path d="M343 56C343 67.0585 339.334 77.8051 332.575 86.558C325.817 95.3109 316.347 101.576 305.648 104.374C294.95 107.171 283.625 106.343 273.447 102.018C263.269 97.6939 254.812 90.1172 249.399 80.474C243.986 70.8308 241.923 59.6652 243.532 48.7243C245.141 37.7835 250.332 27.6848 258.292 20.0085C266.253 12.3322 276.533 7.51149 287.525 6.30063C298.517 5.08978 309.601 7.55714 319.041 13.3166L293 56H343Z" fill="#B42E1E"/>
<path d="M343 56C343 67.0585 339.334 77.8051 332.575 86.558C325.817 95.3109 316.347 101.576 305.648 104.374C294.95 107.171 283.625 106.343 273.447 102.018C263.269 97.6939 254.812 90.1172 249.399 80.474C243.986 70.8308 241.923 59.6652 243.532 48.7243C245.141 37.7835 250.332 27.6848 258.292 20.0085C266.253 12.3322 276.533 7.51149 287.525 6.30063C298.517 5.08978 309.601 7.55714 319.041 13.3166L293 56H343Z" stroke="#FFEC96" stroke-width="12" mask="url(#path-4-outside-1_319_2)"/>
</g>
<path d="M293 223C322.484 223 346 197.259 346 166C346 134.741 322.484 109 293 109C263.516 109 240 134.741 240 166C240 197.259 263.516 223 293 223Z" fill="#B42E1E" stroke="#FFEC96" stroke-width="6"/>
<path d="M293 210C315.854 210 334 190.082 334 166C334 141.918 315.854 122 293 122C270.146 122 252 141.918 252 166C252 190.082 270.146 210 293 210Z" fill="#B42E1E" stroke="#FFEC96" stroke-width="6"/>
<path d="M293 195C308.133 195 320 181.786 320 166C320 150.214 308.133 137 293 137C277.867 137 266 150.214 266 166C266 181.786 277.867 195 293 195Z" fill="#FFEC96" stroke="#FFEC96" stroke-width="6"/>
<g clip-path="url(#clip2_319_2)">
<circle cx="293" cy="382" r="53" fill="#B42E1E" stroke="#FFEC96" stroke-width="6"/>
<path d="M293 411C308.133 411 320 397.786 320 382C320 366.214 308.133 353 293 353C277.867 353 266 366.214 266 382C266 397.786 277.867 411 293 411Z" fill="#FFEC96" stroke="#FFEC96" stroke-width="6"/>
</g>
<g clip-path="url(#clip3_319_2)">
<circle cx="293" cy="276" r="53" fill="#B42E1E" stroke="#FFEC96" stroke-width="6"/>
</g>
<path d="M278.26 172.26C277.46 172.26 276.827 171.993 276.36 171.46C275.907 170.927 275.68 170.2 275.68 169.28C275.68 168.6 275.787 167.933 276 167.28C276.227 166.627 276.54 166.04 276.94 165.52C277.34 165 277.807 164.587 278.34 164.28C278.873 163.973 279.453 163.82 280.08 163.82C280.48 163.82 280.833 163.88 281.14 164C281.46 164.12 281.74 164.273 281.98 164.46C281.967 163.553 281.92 162.74 281.84 162.02C281.76 161.3 281.567 160.633 281.26 160.02C281.207 159.913 281.16 159.82 281.12 159.74C281.093 159.647 281.08 159.56 281.08 159.48C281.08 159.293 281.153 159.12 281.3 158.96C281.46 158.8 281.653 158.667 281.88 158.56C282.107 158.453 282.32 158.4 282.52 158.4C282.88 158.4 283.147 158.56 283.32 158.88C283.507 159.187 283.627 159.613 283.68 160.16C283.733 160.693 283.76 161.307 283.76 162C283.76 163.013 283.713 163.927 283.62 164.74C283.527 165.553 283.44 166.267 283.36 166.88C283.307 167.28 283.26 167.627 283.22 167.92C283.18 168.213 283.16 168.453 283.16 168.64C283.16 169.587 283.567 170.147 284.38 170.32C284.593 170.36 284.7 170.5 284.7 170.74C284.7 170.887 284.653 171.073 284.56 171.3C284.48 171.527 284.327 171.733 284.1 171.92C283.873 172.093 283.547 172.18 283.12 172.18C282.547 172.18 282.16 171.987 281.96 171.6C281.76 171.213 281.66 170.627 281.66 169.84C281.287 170.52 280.813 171.093 280.24 171.56C279.667 172.027 279.007 172.26 278.26 172.26ZM278.88 170.12C279.253 170.12 279.627 170 280 169.76C280.373 169.52 280.707 169.193 281 168.78C281.173 168.527 281.327 168.24 281.46 167.92C281.607 167.587 281.74 167.253 281.86 166.92C281.18 166.307 280.427 166 279.6 166C278.88 166 278.307 166.22 277.88 166.66C277.453 167.087 277.24 167.62 277.24 168.26C277.24 168.807 277.4 169.253 277.72 169.6C278.04 169.947 278.427 170.12 278.88 170.12ZM287.674 162.06C287.301 162.047 287.001 161.933 286.774 161.72C286.548 161.507 286.434 161.207 286.434 160.82C286.448 160.407 286.588 160.073 286.854 159.82C287.121 159.553 287.461 159.427 287.874 159.44C288.261 159.453 288.561 159.567 288.774 159.78C289.001 159.993 289.108 160.293 289.094 160.68C289.081 161.08 288.948 161.413 288.694 161.68C288.441 161.933 288.101 162.06 287.674 162.06ZM287.694 172.2C287.294 172.2 286.981 172.093 286.754 171.88C286.528 171.653 286.414 171.273 286.414 170.74C286.414 170.433 286.441 170.133 286.494 169.84C286.561 169.547 286.634 169.26 286.714 168.98C286.808 168.687 286.881 168.387 286.934 168.08C287.001 167.773 287.034 167.447 287.034 167.1C287.034 166.86 287.001 166.633 286.934 166.42C286.868 166.193 286.721 166.027 286.494 165.92C286.321 165.827 286.168 165.733 286.034 165.64C285.914 165.533 285.854 165.4 285.854 165.24C285.854 165.053 285.941 164.853 286.114 164.64C286.288 164.427 286.514 164.247 286.794 164.1C287.088 163.94 287.388 163.86 287.694 163.86C288.028 163.86 288.268 163.947 288.414 164.12C288.574 164.293 288.681 164.513 288.734 164.78C288.788 165.047 288.814 165.32 288.814 165.6C288.814 166.027 288.781 166.447 288.714 166.86C288.648 167.26 288.581 167.633 288.514 167.98C288.461 168.233 288.421 168.467 288.394 168.68C288.368 168.893 288.354 169.093 288.354 169.28C288.354 169.613 288.434 169.867 288.594 170.04C288.754 170.2 288.981 170.353 289.274 170.5C289.394 170.567 289.454 170.667 289.454 170.8C289.454 170.907 289.401 171.073 289.294 171.3C289.188 171.527 289.001 171.733 288.734 171.92C288.481 172.107 288.134 172.2 287.694 172.2ZM292.075 172.22C291.595 172.22 291.382 172.06 291.435 171.74C291.582 171.167 291.702 170.587 291.795 170C291.902 169.4 291.955 168.827 291.955 168.28C291.955 167.573 291.909 167.06 291.815 166.74C291.735 166.407 291.622 166.18 291.475 166.06C291.329 165.927 291.149 165.827 290.935 165.76C290.842 165.72 290.755 165.667 290.675 165.6C290.609 165.533 290.575 165.44 290.575 165.32C290.575 165.133 290.649 164.927 290.795 164.7C290.942 164.473 291.149 164.28 291.415 164.12C291.695 163.947 292.009 163.86 292.355 163.86C292.809 163.86 293.122 164.02 293.295 164.34C293.469 164.647 293.555 165.053 293.555 165.56C293.555 165.893 293.522 166.267 293.455 166.68C293.389 167.093 293.322 167.467 293.255 167.8L293.315 167.82C293.582 167.113 293.902 166.46 294.275 165.86C294.662 165.247 295.109 164.753 295.615 164.38C296.122 164.007 296.709 163.82 297.375 163.82C298.082 163.82 298.622 164.033 298.995 164.46C299.369 164.887 299.555 165.42 299.555 166.06C299.555 166.327 299.522 166.58 299.455 166.82C299.402 167.06 299.342 167.293 299.275 167.52C299.209 167.733 299.149 167.953 299.095 168.18C299.055 168.407 299.035 168.633 299.035 168.86C299.035 169.62 299.395 170.133 300.115 170.4C300.302 170.48 300.395 170.6 300.395 170.76C300.395 170.88 300.355 171.053 300.275 171.28C300.195 171.507 300.049 171.72 299.835 171.92C299.622 172.107 299.309 172.2 298.895 172.2C298.362 172.2 297.949 172.013 297.655 171.64C297.362 171.253 297.215 170.767 297.215 170.18C297.215 169.847 297.249 169.513 297.315 169.18C297.395 168.833 297.475 168.513 297.555 168.22C297.609 167.993 297.655 167.773 297.695 167.56C297.749 167.333 297.775 167.133 297.775 166.96C297.775 166.347 297.455 166.04 296.815 166.04C296.269 166.04 295.789 166.247 295.375 166.66C294.962 167.06 294.609 167.567 294.315 168.18C294.022 168.793 293.782 169.413 293.595 170.04V170.52C293.595 171.013 293.455 171.42 293.175 171.74C292.909 172.06 292.542 172.22 292.075 172.22ZM304.838 172.26C303.918 172.26 303.178 172.013 302.618 171.52C302.071 171.013 301.798 170.273 301.798 169.3C301.798 168.847 301.858 168.407 301.978 167.98C302.111 167.553 302.285 167.153 302.498 166.78C302.285 166.913 302.125 166.98 302.018 166.98C301.858 166.98 301.745 166.893 301.678 166.72C301.625 166.533 301.598 166.353 301.598 166.18C301.598 165.873 301.658 165.633 301.778 165.46C301.911 165.273 302.038 165.133 302.158 165.04C302.438 164.8 302.878 164.54 303.478 164.26C304.078 163.967 304.798 163.82 305.638 163.82C306.785 163.82 307.671 164.14 308.298 164.78C308.938 165.42 309.258 166.313 309.258 167.46C309.258 168.353 309.071 169.167 308.698 169.9C308.325 170.62 307.805 171.193 307.138 171.62C306.485 172.047 305.718 172.26 304.838 172.26ZM305.458 170.22C306.125 170.22 306.685 170.013 307.138 169.6C307.605 169.173 307.838 168.613 307.838 167.92C307.838 167.2 307.605 166.687 307.138 166.38C306.671 166.073 306.131 165.92 305.518 165.92C305.238 165.92 304.985 165.947 304.758 166C304.531 166.053 304.318 166.12 304.118 166.2C303.931 166.467 303.765 166.767 303.618 167.1C303.471 167.433 303.398 167.8 303.398 168.2C303.398 168.867 303.598 169.373 303.998 169.72C304.398 170.053 304.885 170.22 305.458 170.22Z" fill="#B42E1E"/>
</g>
<defs>
<clipPath id="clip0_319_2">
<rect width="361" height="464" fill="white"/>
</clipPath>
<clipPath id="clip1_319_2">
<rect width="63" height="115" fill="white" transform="translate(293)"/>
</clipPath>
<clipPath id="clip2_319_2">
<rect width="66" height="143" fill="white" transform="translate(227 310)"/>
</clipPath>
<clipPath id="clip3_319_2">
<rect width="68" height="136" fill="white" transform="translate(293 209)"/>
</clipPath>
</defs>
</svg>
