<svg width="361" height="466" viewBox="0 0 361 466" fill="none" xmlns="http://www.w3.org/2000/svg">
<path d="M211.983 426.792C211.983 428.379 211.718 430.031 211.19 431.749C210.661 433.336 209.405 434.658 207.422 435.715C205.439 436.773 202.399 437.301 198.301 437.301C195.658 437.301 192.287 437.103 188.189 436.706C183.959 436.178 179.861 435.649 175.895 435.12C169.286 434.063 162.015 433.137 154.084 432.344C146.153 431.419 138.288 430.956 130.488 430.956C127.712 430.956 124.804 431.022 121.764 431.155C118.724 431.287 115.815 431.551 113.039 431.948C113.436 432.741 113.833 433.666 114.229 434.724C114.494 435.649 114.626 436.442 114.626 437.103C114.626 438.425 113.965 439.35 112.643 439.879C111.189 440.276 109.536 440.474 107.686 440.474C103.456 440.474 100.085 439.482 97.5734 437.5C94.9296 435.385 92.5502 432.278 90.4352 428.18C87.3948 422.761 85.2137 417.01 83.8918 410.93C82.4377 404.717 81.7107 398.834 81.7107 393.282C81.7107 385.087 83.1648 377.816 86.0729 371.471C88.9811 365.126 93.0789 360.169 98.3665 356.6C103.654 353.031 109.999 351.246 117.402 351.246C125.069 351.246 131.876 353.097 137.825 356.798C143.773 360.367 148.664 364.994 152.498 370.678C156.199 376.23 158.645 381.914 159.834 387.73C163.139 385.615 166.444 383.368 169.748 380.989C173.053 378.477 176.027 375.966 178.671 373.454C186.47 365.919 190.37 358.252 190.37 350.453C190.37 348.338 190.238 346.488 189.973 344.901C189.841 344.108 190.172 343.447 190.965 342.918C191.626 342.257 193.014 341.927 195.129 341.927C197.64 341.927 200.218 342.456 202.862 343.513C205.373 344.571 207.488 346.355 209.207 348.867C210.925 351.379 211.785 354.815 211.785 359.178C211.785 364.333 210.066 369.29 206.629 374.049C203.192 378.676 198.83 382.972 193.542 386.937C188.123 390.903 182.439 394.472 176.49 397.645C170.542 400.685 165.056 403.263 160.033 405.378C158.579 405.906 157.191 406.369 155.869 406.766C154.415 407.162 153.027 407.361 151.705 407.361C149.457 407.361 147.607 406.633 146.153 405.179C145.095 404.122 144.368 402.668 143.972 400.817C143.575 398.834 143.377 395.992 143.377 392.291C143.377 385.285 141.46 379.601 137.627 375.239C133.793 370.876 128.836 368.695 122.755 368.695C116.146 368.695 111.321 371.207 108.281 376.23C105.24 381.121 103.72 387.136 103.72 394.274C103.72 400.09 104.645 406.171 106.496 412.516C115.088 412.912 124.936 413.838 136.04 415.292C142.65 416.085 149.193 416.812 155.67 417.473C162.148 418.002 168.03 418.266 173.318 418.266C177.944 418.266 182.042 417.87 185.611 417.076C189.048 416.151 192.022 414.367 194.534 411.723C196.385 409.872 198.367 408.947 200.482 408.947C203.391 408.947 206.034 410.599 208.414 413.904C210.793 417.209 211.983 421.505 211.983 426.792ZM212.578 299.57C212.578 306.048 211.652 312.062 209.802 317.614C207.819 323.034 205.109 327.396 201.672 330.701C198.235 334.005 194.203 335.658 189.577 335.658C186.536 335.658 183.893 334.931 181.645 333.477C179.266 332.023 178.076 330.04 178.076 327.528C178.076 325.942 178.671 324.29 179.861 322.571C182.769 319.266 185.347 315.036 187.594 309.881C189.709 304.593 190.767 298.975 190.767 293.027C190.767 285.228 189.246 278.883 186.206 273.992C183.033 268.969 178.803 266.457 173.516 266.457C168.493 266.457 164.857 268.77 162.61 273.397C160.363 278.023 158.248 284.435 156.265 292.63C154.811 298.711 152.96 304.593 150.713 310.278C148.466 315.83 145.36 320.456 141.394 324.157C137.296 327.727 131.876 329.511 125.135 329.511C119.979 329.511 114.89 328.387 109.867 326.14C104.712 323.893 100.019 320.588 95.7888 316.226C91.5588 311.864 88.1879 306.576 85.6764 300.363C83.0326 294.151 81.7107 287.145 81.7107 279.345C81.7107 273.529 82.3716 268.242 83.6935 263.483C85.0154 258.592 86.8661 254.758 89.2455 251.982C91.6249 249.074 94.533 247.62 97.9699 247.62C100.614 247.62 102.927 248.347 104.91 249.801C106.893 251.255 108.479 252.974 109.669 254.957C110.726 256.939 111.255 258.658 111.255 260.112C111.255 261.434 110.66 263.218 109.47 265.466C107.488 269.167 105.967 273.331 104.91 277.957C103.72 282.452 103.125 286.417 103.125 289.854C103.125 296.332 104.579 301.619 107.488 305.717C110.263 309.683 113.568 311.666 117.402 311.666C121.632 311.666 125.201 309.154 128.109 304.131C130.885 298.975 133.859 289.788 137.032 276.569C139.411 267.581 142.716 260.575 146.946 255.551C151.044 250.528 157.587 248.017 166.576 248.017C174.639 248.017 182.174 250.198 189.18 254.56C196.186 258.79 201.87 264.805 206.233 272.604C210.463 280.271 212.578 289.26 212.578 299.57ZM213.173 192.866C213.173 197.36 211.718 200.863 208.81 203.375C205.77 205.754 200.548 207.142 193.146 207.539C185.347 207.803 177.614 208.464 169.947 209.522C162.148 210.447 154.877 211.769 148.136 213.487C138.354 215.735 129.365 218.775 121.169 222.608C112.841 226.31 106.033 231.465 100.746 238.075C99.8206 239.132 98.9613 239.991 98.1682 240.652C97.2429 241.313 96.1193 241.644 94.7974 241.644C91.8892 241.644 89.1133 240.19 86.4695 237.281C83.8257 234.241 82.5038 230.738 82.5038 226.772C82.5038 222.146 84.4206 218.18 88.254 214.875C92.0875 211.571 97.4412 208.596 104.315 205.953C115.154 201.458 127.316 198.22 140.799 196.237C154.15 194.122 167.039 192.932 179.464 192.668C183.166 192.536 185.677 192.007 186.999 191.081C188.189 190.156 188.784 188.57 188.784 186.323C188.784 181.564 186.933 176.937 183.232 172.443C179.53 167.816 174.507 163.652 168.162 159.951C161.817 156.117 154.613 153.077 146.549 150.83C138.486 148.583 130.026 147.459 121.169 147.459C115.749 147.459 111.387 147.856 108.082 148.649C104.645 149.31 101.936 150.103 99.9528 151.028C97.309 152.218 95.194 152.813 93.6077 152.813C91.6249 152.813 89.7742 151.887 88.0558 150.037C86.3373 148.186 84.9493 146.071 83.8918 143.692C82.7021 141.18 82.1073 138.933 82.1073 136.95C82.1073 134.306 83.0987 132.39 85.0815 131.2C86.9321 130.01 89.3115 129.217 92.2197 128.82C95.1279 128.424 98.1021 128.226 101.142 128.226C110.263 128.226 119.913 129.283 130.092 131.398C140.27 133.513 150.317 136.554 160.231 140.519C170.013 144.353 178.936 148.979 186.999 154.399C194.93 159.687 201.276 165.569 206.034 172.046C210.793 178.523 213.173 185.463 213.173 192.866ZM211.983 99.5473C211.983 101.134 211.718 102.786 211.19 104.504C210.661 106.091 209.405 107.413 207.422 108.47C205.439 109.528 202.399 110.056 198.301 110.056C194.997 110.056 190.833 109.792 185.809 109.263C180.654 108.602 175.168 107.809 169.352 106.884C163.403 105.958 157.124 105.231 150.515 104.703C143.906 104.042 137.23 103.711 130.488 103.711C127.845 103.711 125.003 103.777 121.962 103.91C118.922 104.042 115.948 104.306 113.039 104.703C113.568 105.628 114.031 106.553 114.427 107.479C114.692 108.272 114.824 109.065 114.824 109.858C114.824 112.105 112.643 113.229 108.281 113.229C104.315 113.229 101.01 112.37 98.3665 110.651C95.5905 108.801 92.9467 105.496 90.4352 100.737C87.9236 96.1104 85.8746 90.6907 84.2884 84.4778C82.5699 78.1327 81.7107 71.7216 81.7107 65.2443C81.7107 52.422 85.0815 42.1774 91.8231 34.5104C98.5648 26.7113 107.554 22.8117 118.79 22.8117C125.663 22.8117 132.009 24.1997 137.825 26.9756C143.641 29.7516 148.73 33.4529 153.093 38.0795C157.323 42.5739 160.627 47.531 163.007 52.9508C165.254 58.2383 166.378 63.4598 166.378 68.6151C166.378 73.5061 165.32 76.8108 163.205 78.5293C160.958 80.2478 157.785 81.107 153.688 81.107C151.705 81.107 149.92 80.9087 148.334 80.5121C146.615 79.9834 145.756 78.9259 145.756 77.3396C145.756 76.943 145.822 76.3482 145.954 75.5551C146.087 74.7619 146.285 73.9688 146.549 73.1757C146.682 72.3825 146.88 71.2589 147.144 69.8048C147.409 68.3508 147.541 66.6984 147.541 64.8478C147.541 57.5774 145.492 51.695 141.394 47.2005C137.296 42.5739 132.009 40.2606 125.531 40.2606C118.79 40.2606 113.502 42.7722 109.669 47.7954C105.835 52.8186 103.918 59.2958 103.918 67.2272C103.918 70.1353 104.183 73.1096 104.712 76.1499C105.108 79.1902 105.703 82.2306 106.496 85.2709C115.221 85.6675 125.135 86.5928 136.239 88.0469C142.848 88.84 149.391 89.5671 155.869 90.228C162.214 90.7568 168.03 91.0212 173.318 91.0212C177.944 91.0212 182.042 90.6246 185.611 89.8315C189.048 88.9061 192.022 87.1216 194.534 84.4778C196.385 82.6272 198.367 81.7018 200.482 81.7018C203.391 81.7018 206.034 83.3542 208.414 86.6589C210.793 89.9636 211.983 94.2598 211.983 99.5473Z" fill="#FFEC96"/>
<rect y="8" width="6" height="296" transform="rotate(-90 0 8)" fill="#FFEC96"/>
<rect x="293" y="434" width="6" height="32" fill="#FFEC96"/>
<g clip-path="url(#clip0_246_3)">
<mask id="path-4-outside-1_246_3" maskUnits="userSpaceOnUse" x="237" y="2" width="112" height="112" fill="black">
<rect fill="white" x="237" y="2" width="112" height="112"/>
<path d="M343 58C343 69.0585 339.334 79.8051 332.575 88.558C325.817 97.3109 316.347 103.576 305.648 106.374C294.95 109.171 283.625 108.343 273.447 104.018C263.269 99.6939 254.812 92.1172 249.399 82.474C243.986 72.8308 241.923 61.6652 243.532 50.7243C245.141 39.7835 250.332 29.6848 258.292 22.0085C266.253 14.3322 276.533 9.51149 287.525 8.30063C298.517 7.08978 309.601 9.55714 319.041 15.3166L293 58H343Z"/>
</mask>
<path d="M343 58C343 69.0585 339.334 79.8051 332.575 88.558C325.817 97.3109 316.347 103.576 305.648 106.374C294.95 109.171 283.625 108.343 273.447 104.018C263.269 99.6939 254.812 92.1172 249.399 82.474C243.986 72.8308 241.923 61.6652 243.532 50.7243C245.141 39.7835 250.332 29.6848 258.292 22.0085C266.253 14.3322 276.533 9.51149 287.525 8.30063C298.517 7.08978 309.601 9.55714 319.041 15.3166L293 58H343Z" fill="#B42E1E"/>
<path d="M343 58C343 69.0585 339.334 79.8051 332.575 88.558C325.817 97.3109 316.347 103.576 305.648 106.374C294.95 109.171 283.625 108.343 273.447 104.018C263.269 99.6939 254.812 92.1172 249.399 82.474C243.986 72.8308 241.923 61.6652 243.532 50.7243C245.141 39.7835 250.332 29.6848 258.292 22.0085C266.253 14.3322 276.533 9.51149 287.525 8.30063C298.517 7.08978 309.601 9.55714 319.041 15.3166L293 58H343Z" stroke="#FFEC96" stroke-width="12" mask="url(#path-4-outside-1_246_3)"/>
</g>
<path d="M293 225C322.484 225 346 199.259 346 168C346 136.741 322.484 111 293 111C263.516 111 240 136.741 240 168C240 199.259 263.516 225 293 225Z" fill="#B42E1E" stroke="#FFEC96" stroke-width="6"/>
<path d="M293 212C315.854 212 334 192.082 334 168C334 143.918 315.854 124 293 124C270.146 124 252 143.918 252 168C252 192.082 270.146 212 293 212Z" fill="#B42E1E" stroke="#FFEC96" stroke-width="6"/>
<path d="M293 197C308.133 197 320 183.786 320 168C320 152.214 308.133 139 293 139C277.867 139 266 152.214 266 168C266 183.786 277.867 197 293 197Z" fill="#FFEC96" stroke="#FFEC96" stroke-width="6"/>
<g clip-path="url(#clip1_246_3)">
<circle cx="293" cy="384" r="53" fill="#B42E1E" stroke="#FFEC96" stroke-width="6"/>
<path d="M293 413C308.133 413 320 399.786 320 384C320 368.214 308.133 355 293 355C277.867 355 266 368.214 266 384C266 399.786 277.867 413 293 413Z" fill="#FFEC96" stroke="#FFEC96" stroke-width="6"/>
</g>
<g clip-path="url(#clip2_246_3)">
<circle cx="293" cy="278" r="53" fill="#B42E1E" stroke="#FFEC96" stroke-width="6"/>
</g>
<path d="M278.26 174.26C277.46 174.26 276.827 173.993 276.36 173.46C275.907 172.927 275.68 172.2 275.68 171.28C275.68 170.6 275.787 169.933 276 169.28C276.227 168.627 276.54 168.04 276.94 167.52C277.34 167 277.807 166.587 278.34 166.28C278.873 165.973 279.453 165.82 280.08 165.82C280.48 165.82 280.833 165.88 281.14 166C281.46 166.12 281.74 166.273 281.98 166.46C281.967 165.553 281.92 164.74 281.84 164.02C281.76 163.3 281.567 162.633 281.26 162.02C281.207 161.913 281.16 161.82 281.12 161.74C281.093 161.647 281.08 161.56 281.08 161.48C281.08 161.293 281.153 161.12 281.3 160.96C281.46 160.8 281.653 160.667 281.88 160.56C282.107 160.453 282.32 160.4 282.52 160.4C282.88 160.4 283.147 160.56 283.32 160.88C283.507 161.187 283.627 161.613 283.68 162.16C283.733 162.693 283.76 163.307 283.76 164C283.76 165.013 283.713 165.927 283.62 166.74C283.527 167.553 283.44 168.267 283.36 168.88C283.307 169.28 283.26 169.627 283.22 169.92C283.18 170.213 283.16 170.453 283.16 170.64C283.16 171.587 283.567 172.147 284.38 172.32C284.593 172.36 284.7 172.5 284.7 172.74C284.7 172.887 284.653 173.073 284.56 173.3C284.48 173.527 284.327 173.733 284.1 173.92C283.873 174.093 283.547 174.18 283.12 174.18C282.547 174.18 282.16 173.987 281.96 173.6C281.76 173.213 281.66 172.627 281.66 171.84C281.287 172.52 280.813 173.093 280.24 173.56C279.667 174.027 279.007 174.26 278.26 174.26ZM278.88 172.12C279.253 172.12 279.627 172 280 171.76C280.373 171.52 280.707 171.193 281 170.78C281.173 170.527 281.327 170.24 281.46 169.92C281.607 169.587 281.74 169.253 281.86 168.92C281.18 168.307 280.427 168 279.6 168C278.88 168 278.307 168.22 277.88 168.66C277.453 169.087 277.24 169.62 277.24 170.26C277.24 170.807 277.4 171.253 277.72 171.6C278.04 171.947 278.427 172.12 278.88 172.12ZM287.674 164.06C287.301 164.047 287.001 163.933 286.774 163.72C286.548 163.507 286.434 163.207 286.434 162.82C286.448 162.407 286.588 162.073 286.854 161.82C287.121 161.553 287.461 161.427 287.874 161.44C288.261 161.453 288.561 161.567 288.774 161.78C289.001 161.993 289.108 162.293 289.094 162.68C289.081 163.08 288.948 163.413 288.694 163.68C288.441 163.933 288.101 164.06 287.674 164.06ZM287.694 174.2C287.294 174.2 286.981 174.093 286.754 173.88C286.528 173.653 286.414 173.273 286.414 172.74C286.414 172.433 286.441 172.133 286.494 171.84C286.561 171.547 286.634 171.26 286.714 170.98C286.808 170.687 286.881 170.387 286.934 170.08C287.001 169.773 287.034 169.447 287.034 169.1C287.034 168.86 287.001 168.633 286.934 168.42C286.868 168.193 286.721 168.027 286.494 167.92C286.321 167.827 286.168 167.733 286.034 167.64C285.914 167.533 285.854 167.4 285.854 167.24C285.854 167.053 285.941 166.853 286.114 166.64C286.288 166.427 286.514 166.247 286.794 166.1C287.088 165.94 287.388 165.86 287.694 165.86C288.028 165.86 288.268 165.947 288.414 166.12C288.574 166.293 288.681 166.513 288.734 166.78C288.788 167.047 288.814 167.32 288.814 167.6C288.814 168.027 288.781 168.447 288.714 168.86C288.648 169.26 288.581 169.633 288.514 169.98C288.461 170.233 288.421 170.467 288.394 170.68C288.368 170.893 288.354 171.093 288.354 171.28C288.354 171.613 288.434 171.867 288.594 172.04C288.754 172.2 288.981 172.353 289.274 172.5C289.394 172.567 289.454 172.667 289.454 172.8C289.454 172.907 289.401 173.073 289.294 173.3C289.188 173.527 289.001 173.733 288.734 173.92C288.481 174.107 288.134 174.2 287.694 174.2ZM292.075 174.22C291.595 174.22 291.382 174.06 291.435 173.74C291.582 173.167 291.702 172.587 291.795 172C291.902 171.4 291.955 170.827 291.955 170.28C291.955 169.573 291.909 169.06 291.815 168.74C291.735 168.407 291.622 168.18 291.475 168.06C291.329 167.927 291.149 167.827 290.935 167.76C290.842 167.72 290.755 167.667 290.675 167.6C290.609 167.533 290.575 167.44 290.575 167.32C290.575 167.133 290.649 166.927 290.795 166.7C290.942 166.473 291.149 166.28 291.415 166.12C291.695 165.947 292.009 165.86 292.355 165.86C292.809 165.86 293.122 166.02 293.295 166.34C293.469 166.647 293.555 167.053 293.555 167.56C293.555 167.893 293.522 168.267 293.455 168.68C293.389 169.093 293.322 169.467 293.255 169.8L293.315 169.82C293.582 169.113 293.902 168.46 294.275 167.86C294.662 167.247 295.109 166.753 295.615 166.38C296.122 166.007 296.709 165.82 297.375 165.82C298.082 165.82 298.622 166.033 298.995 166.46C299.369 166.887 299.555 167.42 299.555 168.06C299.555 168.327 299.522 168.58 299.455 168.82C299.402 169.06 299.342 169.293 299.275 169.52C299.209 169.733 299.149 169.953 299.095 170.18C299.055 170.407 299.035 170.633 299.035 170.86C299.035 171.62 299.395 172.133 300.115 172.4C300.302 172.48 300.395 172.6 300.395 172.76C300.395 172.88 300.355 173.053 300.275 173.28C300.195 173.507 300.049 173.72 299.835 173.92C299.622 174.107 299.309 174.2 298.895 174.2C298.362 174.2 297.949 174.013 297.655 173.64C297.362 173.253 297.215 172.767 297.215 172.18C297.215 171.847 297.249 171.513 297.315 171.18C297.395 170.833 297.475 170.513 297.555 170.22C297.609 169.993 297.655 169.773 297.695 169.56C297.749 169.333 297.775 169.133 297.775 168.96C297.775 168.347 297.455 168.04 296.815 168.04C296.269 168.04 295.789 168.247 295.375 168.66C294.962 169.06 294.609 169.567 294.315 170.18C294.022 170.793 293.782 171.413 293.595 172.04V172.52C293.595 173.013 293.455 173.42 293.175 173.74C292.909 174.06 292.542 174.22 292.075 174.22ZM304.838 174.26C303.918 174.26 303.178 174.013 302.618 173.52C302.071 173.013 301.798 172.273 301.798 171.3C301.798 170.847 301.858 170.407 301.978 169.98C302.111 169.553 302.285 169.153 302.498 168.78C302.285 168.913 302.125 168.98 302.018 168.98C301.858 168.98 301.745 168.893 301.678 168.72C301.625 168.533 301.598 168.353 301.598 168.18C301.598 167.873 301.658 167.633 301.778 167.46C301.911 167.273 302.038 167.133 302.158 167.04C302.438 166.8 302.878 166.54 303.478 166.26C304.078 165.967 304.798 165.82 305.638 165.82C306.785 165.82 307.671 166.14 308.298 166.78C308.938 167.42 309.258 168.313 309.258 169.46C309.258 170.353 309.071 171.167 308.698 171.9C308.325 172.62 307.805 173.193 307.138 173.62C306.485 174.047 305.718 174.26 304.838 174.26ZM305.458 172.22C306.125 172.22 306.685 172.013 307.138 171.6C307.605 171.173 307.838 170.613 307.838 169.92C307.838 169.2 307.605 168.687 307.138 168.38C306.671 168.073 306.131 167.92 305.518 167.92C305.238 167.92 304.985 167.947 304.758 168C304.531 168.053 304.318 168.12 304.118 168.2C303.931 168.467 303.765 168.767 303.618 169.1C303.471 169.433 303.398 169.8 303.398 170.2C303.398 170.867 303.598 171.373 303.998 171.72C304.398 172.053 304.885 172.22 305.458 172.22Z" fill="#B42E1E"/>
<defs>
<clipPath id="clip0_246_3">
<rect width="63" height="117" fill="white" transform="translate(293)"/>
</clipPath>
<clipPath id="clip1_246_3">
<rect width="66" height="143" fill="white" transform="translate(227 312)"/>
</clipPath>
<clipPath id="clip2_246_3">
<rect width="68" height="136" fill="white" transform="translate(293 211)"/>
</clipPath>
</defs>
</svg>
