<?xml version="1.0" standalone="no"?>
<!DOCTYPE svg PUBLIC "-//W3C//DTD SVG 20010904//EN"
 "http://www.w3.org/TR/2001/REC-SVG-20010904/DTD/svg10.dtd">
<svg version="1.0" xmlns="http://www.w3.org/2000/svg"
 width="700.000000pt" height="700.000000pt" viewBox="0 0 700.000000 700.000000"
 preserveAspectRatio="xMidYMid meet">
<metadata>
Created by potrace 1.14, written by Peter Selinger 2001-2017
</metadata>
<g transform="translate(0.000000,700.000000) scale(0.100000,-0.100000)"
fill="#000000" stroke="none">
<path d="M3205 6989 c-599 -51 -1176 -257 -1674 -596 -684 -466 -1188 -1168
-1405 -1958 -77 -283 -114 -533 -123 -835 -28 -970 334 -1883 1018 -2569 1260
-1265 3266 -1380 4659 -268 670 535 1127 1304 1269 2137 37 217 46 331 46 600
0 426 -49 733 -177 1115 -390 1162 -1373 2045 -2568 2304 -332 73 -715 98
-1045 70z m745 -488 c503 -78 967 -272 1365 -571 631 -473 1053 -1167 1179
-1940 49 -304 49 -676 0 -980 -183 -1119 -988 -2054 -2064 -2398 -341 -109
-629 -148 -1013 -139 -464 11 -861 109 -1268 312 -825 412 -1413 1164 -1613
2065 -52 235 -61 333 -61 650 0 317 9 415 61 650 274 1232 1276 2168 2517
2350 195 28 189 28 487 25 220 -2 302 -7 410 -24z"/>
<path d="M3180 6305 c-364 -44 -663 -137 -987 -305 -377 -195 -692 -465 -976
-838 -21 -28 6 -20 134 36 74 32 148 64 165 71 24 9 100 12 295 9 l264 -4 120
-36 c141 -42 269 -93 478 -187 84 -38 215 -96 292 -129 77 -33 190 -81 250
-107 61 -26 162 -69 225 -95 63 -26 160 -69 215 -95 161 -75 375 -165 396
-165 10 0 80 28 156 61 76 34 218 94 315 134 125 50 184 79 198 98 24 30 151
106 192 114 19 4 35 0 46 -10 28 -25 111 -59 155 -63 23 -2 45 -8 50 -13 18
-18 26 -167 26 -482 1 -237 4 -319 14 -330 6 -9 35 -24 62 -34 28 -9 84 -35
125 -57 41 -22 156 -75 255 -118 99 -43 277 -123 395 -178 118 -54 230 -104
249 -111 l34 -11 -6 168 c-14 382 -108 755 -282 1107 -206 420 -471 741 -845
1024 -156 118 -275 190 -465 282 -299 144 -576 225 -911 264 -156 18 -485 18
-634 0z"/>
<path d="M1612 5230 c-72 -15 -447 -183 -484 -217 -18 -16 -17 -17 4 -40 25
-27 146 -96 204 -117 83 -29 948 -427 1132 -520 54 -27 72 -41 70 -54 -3 -9
-10 -16 -18 -14 -18 4 -6 -79 16 -113 16 -24 15 -25 -1 -19 -15 6 -17 2 -11
-42 3 -27 8 -76 12 -109 8 -84 34 -237 42 -250 4 -5 7 -47 7 -93 0 -59 4 -85
14 -91 9 -6 10 -11 2 -15 -14 -9 -14 -51 -1 -77 6 -10 34 -31 62 -45 l52 -27
29 34 c16 19 35 48 44 64 20 39 108 160 198 271 29 37 30 40 28 142 -1 66 -7
111 -15 124 -7 11 -49 38 -93 61 -46 24 -80 48 -80 57 0 39 109 -4 551 -220
292 -143 274 -127 274 -243 0 -48 1 -50 16 -31 15 18 15 18 5 -3 -6 -12 -11
-32 -11 -45 0 -26 83 -148 101 -148 5 0 23 30 40 67 17 38 38 76 46 86 19 20
18 21 -38 50 -54 27 -68 63 -21 54 48 -10 473 -213 702 -336 40 -21 124 -60
193 -90 26 -11 50 -26 53 -34 3 -8 22 -17 42 -21 55 -9 142 -62 142 -86 0 -11
-7 -20 -15 -20 -21 0 -46 -60 -34 -82 14 -26 11 -36 -13 -40 -18 -2 -25 -13
-33 -45 -6 -23 -13 -45 -18 -49 -10 -11 -9 -84 2 -84 5 0 13 9 16 21 6 17 11
19 33 12 15 -4 94 -7 176 -7 114 1 150 5 157 15 5 8 6 41 3 74 -5 50 -3 63 11
75 15 12 19 12 30 -3 7 -9 21 -17 32 -17 21 0 179 -73 203 -95 8 -7 26 -16 40
-20 14 -4 163 -74 332 -156 169 -82 311 -149 316 -149 5 0 23 46 41 103 58
187 102 422 117 622 l6 90 -38 14 c-37 12 -93 38 -464 211 -85 40 -171 78
-191 85 -19 7 -120 52 -225 100 -104 48 -229 103 -279 122 -49 19 -124 52
-165 73 -41 21 -128 62 -193 91 -66 29 -125 58 -132 65 -7 7 -16 10 -20 6 -3
-4 -13 2 -21 13 -13 17 -17 18 -35 7 -18 -12 -29 -10 -78 15 -31 15 -61 37
-66 49 -6 11 -16 19 -23 16 -6 -2 -15 3 -18 12 -4 11 -11 13 -23 6 -12 -6 -26
-4 -43 4 -14 8 -43 19 -65 26 -59 20 -146 66 -165 89 -10 11 -24 18 -32 15 -8
-3 -17 -1 -20 5 -4 6 -13 8 -20 5 -17 -7 -96 24 -321 124 -264 117 -489 215
-630 274 -66 27 -124 53 -130 58 -5 4 -28 13 -50 20 -22 7 -103 42 -180 77
-337 155 -483 207 -704 248 -102 19 -321 28 -379 15z m1013 -985 c50 -30 67
-39 130 -61 27 -9 44 -19 38 -21 -13 -5 -131 44 -203 82 -30 16 -38 24 -25 24
11 1 38 -10 60 -24z m-45 -165 c0 -5 -10 -10 -22 -10 -19 0 -20 2 -8 10 19 13
30 13 30 0z m47 -102 c-3 -8 -6 -5 -6 6 -1 11 2 17 5 13 3 -3 4 -12 1 -19z
m1212 -21 c-2 -1 -13 -9 -24 -17 -19 -14 -19 -14 -6 3 7 9 18 17 24 17 6 0 8
-1 6 -3z m-929 -50 c0 -2 -17 -19 -37 -38 -34 -31 -31 -21 6 24 12 15 31 23
31 14z m-141 -149 c-9 -16 -14 -19 -17 -9 -2 7 2 17 9 22 20 13 21 11 8 -13z
m921 -20 c0 -13 -23 -5 -28 10 -2 7 2 10 12 6 9 -3 16 -11 16 -16z m58 -27 c3
-8 -1 -12 -9 -9 -7 2 -15 10 -17 17 -3 8 1 12 9 9 7 -2 15 -10 17 -17z m-1068
-70 c-6 -12 -15 -21 -21 -21 -10 0 -5 13 14 38 15 19 20 7 7 -17z m195 -11
c-3 -5 -11 -10 -16 -10 -6 0 -7 5 -4 10 3 6 11 10 16 10 6 0 7 -4 4 -10z m930
-30 c-3 -5 -12 -10 -18 -10 -7 0 -6 4 3 10 19 12 23 12 15 0z m-1025 -23 c0
-2 -15 -16 -32 -33 l-33 -29 29 33 c28 30 36 37 36 29z m960 -7 c-8 -5 -19
-10 -25 -10 -5 0 -3 5 5 10 8 5 20 10 25 10 6 0 3 -5 -5 -10z m1180 -54 c0 -2
-8 -10 -17 -17 -16 -13 -17 -12 -4 4 13 16 21 21 21 13z m150 -110 c0 -2 -8
-10 -17 -17 -16 -13 -17 -12 -4 4 13 16 21 21 21 13z m100 -99 c0 -2 -10 -12
-22 -23 l-23 -19 19 23 c18 21 26 27 26 19z m170 -111 c0 -2 -8 -10 -17 -17
-16 -13 -17 -12 -4 4 13 16 21 21 21 13z m-341 -85 c33 -17 72 -51 58 -51 -9
0 -97 52 -102 61 -9 14 2 11 44 -10z m141 -71 c22 -11 40 -23 40 -25 0 -7 -73
24 -84 36 -16 15 2 11 44 -11z m-65 -20 c3 -5 1 -10 -4 -10 -6 0 -11 5 -11 10
0 6 2 10 4 10 3 0 8 -4 11 -10z m85 -154 c0 -12 -5 -7 -19 24 -11 24 -11 24 3
6 9 -11 16 -24 16 -30z m-326 18 c4 -10 1 -14 -6 -12 -15 5 -23 28 -10 28 5 0
13 -7 16 -16z"/>
<path d="M1036 4878 c-168 -301 -275 -618 -333 -988 -26 -164 -26 -616 0 -780
52 -330 131 -583 268 -860 279 -560 718 -1000 1276 -1279 262 -131 543 -218
863 -268 164 -26 616 -26 780 0 319 50 584 132 855 267 281 139 524 310 735
519 95 94 230 247 230 261 0 4 -41 26 -92 50 -75 36 -105 45 -169 50 -43 3
-81 8 -84 12 -12 12 5 28 31 28 13 0 24 4 24 9 0 5 -249 136 -552 291 -304
156 -603 309 -664 341 l-110 59 -31 -28 c-18 -15 -33 -36 -35 -47 -2 -12 -14
-21 -34 -26 -18 -3 -65 -34 -105 -69 -41 -34 -137 -115 -214 -180 -77 -65
-148 -131 -158 -148 -22 -38 -22 -75 0 -108 10 -16 18 -54 21 -104 4 -69 2
-80 -17 -99 -12 -12 -35 -21 -53 -22 -83 -3 -166 4 -235 21 -74 17 -76 17
-108 -1 -38 -23 -55 -18 -137 34 -29 19 -86 53 -126 77 -65 38 -76 42 -99 31
-33 -15 -73 8 -73 43 0 26 -60 71 -169 126 -85 42 -138 82 -171 127 -25 33
-105 91 -273 194 -108 66 -128 81 -157 124 -44 65 -60 117 -69 231 -5 57 -21
141 -36 193 -30 104 -28 113 34 131 57 17 268 24 346 12 57 -9 111 -31 283
-117 l213 -105 21 47 c11 27 45 102 74 167 30 65 54 122 54 126 0 10 -118 74
-500 271 -1058 544 -993 509 -1066 572 -46 41 -70 93 -59 128 4 11 19 35 35
52 l28 32 -49 270 c-27 149 -54 283 -61 298 -6 15 -23 34 -39 42 -15 8 -34 24
-42 36 -15 20 -16 18 -51 -43z m964 -1289 c0 -6 -4 -7 -10 -4 -5 3 -10 11 -10
16 0 6 5 7 10 4 6 -3 10 -11 10 -16z m65 -179 c9 -16 13 -30 11 -30 -3 0 -12
14 -21 30 -9 17 -13 30 -11 30 3 0 12 -13 21 -30z m35 -100 c6 -11 8 -20 6
-20 -3 0 -10 9 -16 20 -6 11 -8 20 -6 20 3 0 10 -9 16 -20z m29 -90 c11 -24
11 -24 -3 -6 -9 11 -16 24 -16 30 0 12 5 7 19 -24z"/>
<path d="M1258 4778 c0 -13 0 -30 1 -38 6 -55 62 -417 66 -428 5 -14 34 -3 68
26 10 9 37 22 60 28 23 7 96 35 162 62 132 54 133 55 120 137 -6 41 -8 44 -76
74 -75 34 -99 37 -117 19 -11 -11 -12 -11 -26 36 -5 14 -108 66 -130 66 -6 -1
2 -12 19 -25 23 -19 27 -27 17 -37 -9 -9 -24 -3 -68 27 -31 22 -61 47 -68 57
-15 24 -26 23 -28 -4z m42 -67 c-1 -13 -3 -13 -15 3 -19 26 -19 42 0 26 8 -7
15 -20 15 -29z m72 -85 c16 -29 -7 -11 -33 27 l-23 32 23 -20 c13 -11 27 -28
33 -39z m158 -6 c0 -5 -7 -10 -15 -10 -8 0 -15 5 -15 10 0 6 7 10 15 10 8 0
15 -4 15 -10z m186 -118 c-18 -16 -18 -16 -6 6 6 13 14 21 18 18 3 -4 -2 -14
-12 -24z m-236 -56 c0 -12 -5 -7 -19 24 -11 24 -11 24 3 6 9 -11 16 -24 16
-30z"/>
<path d="M4880 4724 c0 -8 5 -12 10 -9 6 3 10 10 10 16 0 5 -4 9 -10 9 -5 0
-10 -7 -10 -16z"/>
<path d="M4624 4551 c-39 -20 -130 -61 -202 -91 -73 -30 -130 -59 -129 -65 2
-5 50 -30 107 -55 l103 -45 39 45 c22 25 44 54 49 65 5 11 34 52 64 90 50 64
66 97 48 94 -5 -1 -40 -17 -79 -38z"/>
<path d="M1870 4521 c0 -15 9 -20 45 -23 56 -4 57 5 5 26 -50 20 -50 20 -50
-3z"/>
<path d="M1947 4400 c6 -24 -5 -25 -35 -4 -33 23 -38 11 -23 -54 7 -31 16 -95
21 -142 9 -90 16 -120 31 -120 5 0 6 -18 3 -40 -4 -24 1 -76 11 -130 10 -49
15 -101 12 -116 -4 -24 1 -29 67 -60 57 -28 78 -33 109 -28 35 5 37 4 37 -20
0 -22 12 -32 89 -70 49 -25 95 -51 102 -58 8 -8 33 -19 56 -26 23 -7 56 -25
74 -39 l32 -27 -7 44 c-3 25 -15 147 -26 272 -11 125 -25 238 -31 252 -11 24
-12 24 -45 8 -19 -8 -34 -19 -34 -23 0 -4 -21 -30 -48 -57 -26 -27 -67 -79
-91 -115 -24 -37 -45 -67 -47 -67 -3 0 7 21 21 47 14 27 25 51 25 54 0 4 15
22 33 41 58 60 107 119 107 129 0 5 7 21 17 35 14 22 15 33 3 97 -20 117 -35
145 -84 158 -22 6 -78 21 -122 34 -70 20 -207 45 -249 45 -8 0 -11 -7 -8 -20z
m53 -290 c0 -5 -5 -10 -11 -10 -5 0 -7 5 -4 10 3 6 8 10 11 10 2 0 4 -4 4 -10z
m-5 -130 c-3 -5 -11 -10 -16 -10 -6 0 -7 5 -4 10 3 6 11 10 16 10 6 0 7 -4 4
-10z m140 -10 c-3 -5 -16 -15 -28 -21 -22 -12 -22 -12 -3 10 19 21 43 30 31
11z m-95 -85 c-7 -8 -17 -15 -23 -15 -5 0 -2 9 8 20 21 23 35 19 15 -5z m142
-157 c-7 -7 -12 -8 -12 -2 0 14 12 26 19 19 2 -3 -1 -11 -7 -17z"/>
<path d="M1665 4377 c-55 -22 -83 -39 -90 -54 -10 -24 -25 -29 -41 -13 -6 6
-43 -7 -103 -35 -84 -41 -93 -47 -87 -67 3 -13 11 -49 18 -80 10 -49 16 -59
49 -77 20 -12 49 -21 65 -21 17 0 36 -9 49 -24 11 -13 105 -67 208 -121 167
-86 187 -94 182 -73 -20 87 -37 187 -55 320 -26 195 -30 212 -59 216 -15 2
-27 14 -34 33 -6 16 -14 29 -17 29 -3 0 -41 -15 -85 -33z m80 -81 c-14 -19
-34 -37 -43 -41 -9 -3 1 12 23 34 48 50 54 52 20 7z m-260 -46 c-10 -11 -20
-18 -23 -15 -7 6 18 35 31 35 5 0 2 -9 -8 -20z m145 10 c0 -5 -4 -10 -10 -10
-5 0 -10 5 -10 10 0 6 5 10 10 10 6 0 10 -4 10 -10z m-70 -44 c0 -2 -7 -6 -15
-10 -8 -3 -15 -1 -15 4 0 6 7 10 15 10 8 0 15 -2 15 -4z m105 -16 c-3 -5 -10
-10 -16 -10 -5 0 -9 5 -9 10 0 6 7 10 16 10 8 0 12 -4 9 -10z m-40 -57 c-11
-3 -24 -11 -28 -19 -4 -8 -13 -14 -19 -14 -6 0 -3 9 7 20 10 11 28 19 39 19
20 -1 20 -2 1 -6z m-67 -65 c-2 -6 -15 -18 -28 -27 -21 -14 -23 -14 -16 -1 16
27 28 40 38 40 5 0 8 -5 6 -12z m202 -9 c0 -5 -4 -9 -10 -9 -5 0 -10 7 -10 16
0 8 5 12 10 9 6 -3 10 -10 10 -16z m44 -93 c-3 -9 -10 -16 -15 -16 -6 0 -5 9
1 21 13 24 24 20 14 -5z"/>
<path d="M4657 4253 c-12 -12 -7 -33 8 -33 17 0 19 9 7 28 -5 7 -11 9 -15 5z"/>
<path d="M1284 4176 c-3 -8 -1 -23 5 -33 9 -15 10 -13 11 15 0 34 -7 42 -16
18z"/>
<path d="M3070 3980 c0 -16 5 -32 11 -36 6 -3 7 -9 3 -13 -5 -3 -7 -35 -4 -71
l5 -65 33 83 c36 92 34 102 -19 121 -28 10 -29 9 -29 -19z"/>
<path d="M3190 3884 c-11 -25 -20 -52 -20 -59 0 -19 202 -195 224 -195 3 0 -4
21 -15 48 -11 26 -21 61 -22 78 -2 17 -7 38 -12 45 -6 8 -18 30 -28 49 -17 35
-72 80 -95 80 -7 0 -22 -21 -32 -46z"/>
<path d="M3119 3734 c-18 -43 -18 -212 0 -223 12 -8 12 -14 2 -40 -11 -24 -11
-48 -1 -116 7 -47 15 -85 19 -85 3 1 34 38 69 84 45 61 62 92 62 115 0 24 5
32 24 37 13 3 33 15 44 27 l20 22 -55 49 c-39 35 -63 49 -86 50 -27 1 -32 5
-38 35 -4 18 -16 43 -28 54 l-20 21 -12 -30z m58 -346 c-3 -8 -6 -5 -6 6 -1
11 2 17 5 13 3 -3 4 -12 1 -19z"/>
<path d="M3414 3724 c3 -8 6 -20 6 -25 0 -6 5 -7 10 -4 15 10 12 32 -6 39 -12
5 -15 2 -10 -10z"/>
<path d="M3018 3724 c-5 -4 -8 -14 -8 -23 0 -8 -18 -33 -39 -56 -22 -22 -76
-94 -120 -159 -90 -134 -90 -130 -1 -161 37 -13 41 -13 46 3 3 9 11 29 19 44
7 15 11 37 8 49 -4 14 0 26 11 35 16 11 57 112 87 212 11 36 9 69 -3 56z"/>
<path d="M3466 3636 c-8 -33 7 -69 40 -95 35 -27 44 -27 44 5 0 30 -14 60 -43
92 -26 28 -33 28 -41 -2z"/>
<path d="M3900 3550 c-11 -25 -28 -58 -36 -73 -12 -21 -13 -32 -5 -41 14 -17
92 -28 142 -20 l39 7 0 58 c0 65 -12 79 -69 79 -18 0 -34 7 -40 17 -8 15 -13
11 -31 -27z m117 -112 c-3 -7 -5 -2 -5 12 0 14 2 19 5 13 2 -7 2 -19 0 -25z"/>
<path d="M3025 3490 c-10 -25 -21 -70 -24 -100 -5 -44 -10 -55 -24 -55 -10 0
-22 -7 -27 -15 -20 -31 -10 -50 41 -75 76 -39 83 -29 75 110 -4 60 -10 126
-14 145 l-8 35 -19 -45z m-5 -190 c0 -5 -5 -10 -11 -10 -5 0 -7 5 -4 10 3 6 8
10 11 10 2 0 4 -4 4 -10z"/>
<path d="M3371 3484 c-12 -15 -21 -29 -22 -33 0 -3 -2 -14 -4 -23 -5 -28 11
-30 54 -9 53 27 57 38 30 67 -28 30 -33 30 -58 -2z"/>
<path d="M4152 3468 c5 -15 28 -18 29 -3 0 6 -7 12 -17 13 -10 3 -15 -1 -12
-10z"/>
<path d="M4206 3433 c-9 -23 -8 -23 29 -23 43 0 46 14 6 28 -24 8 -31 7 -35
-5z"/>
<path d="M3270 3358 c-52 -67 -53 -68 -46 -68 13 0 96 83 96 96 0 24 -16 15
-50 -28z"/>
<path d="M3437 3368 c-41 -56 -41 -58 -6 -51 28 5 32 4 27 -14 -4 -16 4 -22
45 -37 55 -20 67 -14 67 34 0 62 -27 89 -57 59 -18 -18 -46 -2 -40 21 8 30 -9
24 -36 -12z"/>
<path d="M3664 3365 c3 -11 6 -39 6 -63 0 -30 4 -42 13 -40 14 5 68 99 63 113
-1 5 -22 10 -45 10 -37 0 -41 -2 -37 -20z"/>
<path d="M3820 3355 c-6 -15 -10 -28 -10 -30 0 -2 17 -5 38 -7 31 -3 37 -7 36
-25 0 -19 2 -21 15 -10 14 11 14 10 1 -7 -17 -22 -40 -86 -31 -86 3 0 31 9 61
20 93 33 156 130 90 138 -17 2 -34 -6 -50 -23 -28 -29 -60 -33 -60 -7 0 10 5
23 12 30 13 13 6 17 -55 27 -33 5 -38 3 -47 -20z"/>
<path d="M3330 3259 l-35 -30 30 6 c38 8 63 31 49 45 -7 7 -21 0 -44 -21z"/>
<path d="M4522 3251 c-10 -6 -3 -13 25 -24 38 -15 50 -10 39 18 -6 16 -43 20
-64 6z"/>
<path d="M3401 3196 c-10 -12 -8 -13 8 -9 12 3 21 9 21 14 0 14 -16 11 -29 -5z"/>
<path d="M2885 3171 c-8 -16 -30 -72 -49 -123 -19 -51 -40 -107 -47 -125 -7
-18 -10 -35 -7 -39 4 -3 93 29 198 71 145 60 190 82 188 94 -3 13 -238 150
-260 151 -4 0 -14 -13 -23 -29z"/>
<path d="M4440 3185 c0 -9 5 -15 11 -13 6 2 11 8 11 13 0 5 -5 11 -11 13 -6 2
-11 -4 -11 -13z"/>
<path d="M3257 3164 c-35 -19 -29 -28 12 -19 36 8 64 35 35 35 -11 -1 -32 -8
-47 -16z"/>
<path d="M4800 3151 c0 -10 6 -24 14 -30 12 -10 17 -8 25 8 9 16 8 22 -8 31
-27 14 -31 13 -31 -9z"/>
<path d="M4485 3140 c-3 -6 -31 -10 -62 -10 -40 0 -62 -5 -80 -20 -14 -11 -36
-20 -48 -20 -12 0 -28 -7 -36 -16 -7 -8 -30 -24 -51 -35 -48 -25 -56 -43 -34
-83 15 -29 16 -35 2 -61 -18 -34 -21 -91 -5 -100 5 -4 14 -18 20 -31 7 -21 12
-23 29 -14 29 15 40 5 40 -39 0 -47 23 -72 39 -43 11 21 78 52 111 52 11 0 27
11 36 25 18 27 39 33 47 13 3 -8 6 -5 6 5 1 16 7 18 41 12 46 -8 110 10 110
30 0 8 12 29 28 47 45 55 52 75 52 152 0 53 -4 77 -15 86 -8 7 -15 19 -15 28
0 27 -41 -36 -47 -73 -5 -33 -45 -85 -65 -85 -14 0 -20 27 -10 46 7 13 5 25
-6 42 -15 22 -15 25 1 37 33 24 15 46 -50 58 -18 4 -35 2 -38 -3z m-55 -101
c-14 -26 -38 -35 -53 -20 -8 8 -6 11 10 11 11 0 26 7 33 15 18 21 23 19 10 -6z
m130 -12 c0 -2 -10 -12 -22 -23 l-23 -19 19 23 c18 21 26 27 26 19z m-137 -68
c28 -33 34 -49 16 -49 -5 0 -15 14 -20 30 -7 20 -18 30 -31 30 -10 0 -16 5
-13 10 10 16 19 12 48 -21z m121 -64 c-30 -69 -57 -111 -62 -97 -3 9 76 152
84 152 2 0 -8 -25 -22 -55z m-204 24 c-7 -11 -14 -18 -17 -15 -3 3 0 12 7 21
18 21 23 19 10 -6z m124 -45 c3 -8 2 -12 -4 -9 -6 3 -10 10 -10 16 0 14 7 11
14 -7z m-184 -95 c0 -5 -7 -9 -15 -9 -15 0 -20 12 -9 23 8 8 24 -1 24 -14z"/>
<path d="M3351 3106 l-22 -24 22 -16 c27 -18 24 -20 37 27 12 45 -2 50 -37 13z"/>
<path d="M3696 3060 c-22 -126 -23 -138 -12 -134 6 3 19 16 29 30 17 23 17 29
4 82 l-15 57 -6 -35z"/>
<path d="M1952 3040 c-45 -4 -85 -10 -89 -13 -9 -9 25 -87 55 -127 46 -61 115
-131 144 -146 34 -18 38 -54 6 -54 -11 0 -36 11 -54 25 -76 58 -119 6 -75 -90
29 -64 90 -121 179 -170 45 -25 84 -45 87 -45 3 0 5 10 5 23 0 12 7 35 15 51
22 41 19 61 -16 100 -32 38 -31 56 4 56 20 0 255 -123 383 -201 159 -97 483
-259 545 -273 83 -19 283 -40 304 -33 34 13 7 158 -45 242 -27 44 -92 86 -307
199 -98 51 -205 110 -238 130 -84 52 -526 273 -599 301 -71 26 -185 36 -304
25z m108 -130 c0 -5 -4 -10 -10 -10 -5 0 -10 5 -10 10 0 6 5 10 10 10 6 0 10
-4 10 -10z m160 -65 c0 -2 -10 -9 -22 -15 -22 -11 -22 -10 -4 4 21 17 26 19
26 11z m170 -30 c0 -2 -10 -9 -22 -15 -22 -11 -22 -10 -4 4 21 17 26 19 26 11z
m230 -48 c0 -2 -12 -14 -27 -28 l-28 -24 24 28 c23 25 31 32 31 24z m-468 -97
c18 -11 29 -20 23 -20 -5 0 -23 9 -40 20 -39 26 -25 26 17 0z m338 -3 c0 -2
-10 -12 -22 -23 l-23 -19 19 23 c18 21 26 27 26 19z m490 -267 c0 -5 -4 -10
-10 -10 -5 0 -10 5 -10 10 0 6 5 10 10 10 6 0 10 -4 10 -10z m220 6 c0 -2 -8
-10 -17 -17 -16 -13 -17 -12 -4 4 13 16 21 21 21 13z m124 -90 c-3 -9 -10 -16
-15 -16 -6 0 -5 9 1 21 13 24 24 20 14 -5z"/>
<path d="M3007 2908 c-139 -59 -166 -73 -155 -84 21 -21 171 -104 188 -104 9
0 41 18 71 40 30 21 77 56 106 77 48 35 52 41 53 80 0 48 -1 49 -55 56 -34 5
-65 -4 -208 -65z"/>
<path d="M5250 2911 l0 -51 80 0 c44 0 80 2 80 5 0 2 -24 17 -52 31 -29 15
-65 35 -80 46 l-28 19 0 -50z"/>
<path d="M4085 2881 c-3 -5 -1 -12 5 -16 5 -3 10 1 10 9 0 18 -6 21 -15 7z"/>
<path d="M3410 2875 c0 -2 23 -16 50 -30 28 -14 50 -21 50 -15 0 6 -11 16 -25
22 -14 6 -25 15 -25 20 0 4 -11 8 -25 8 -14 0 -25 -2 -25 -5z"/>
<path d="M3254 2797 c-33 -24 -65 -51 -73 -60 -7 -9 -19 -17 -26 -17 -6 0 -19
-8 -29 -19 -14 -15 -14 -20 -3 -29 21 -18 231 -122 245 -122 13 0 85 143 98
194 5 21 -1 28 -59 60 -35 20 -71 36 -79 36 -9 0 -42 -19 -74 -43z"/>
<path d="M3962 2796 c-12 -20 -22 -39 -22 -41 0 -5 125 -75 133 -75 9 0 -25
71 -43 90 -8 8 -22 26 -31 39 l-15 24 -22 -37z"/>
<path d="M3595 2780 c10 -11 20 -20 22 -20 2 0 -1 9 -7 20 -6 11 -16 20 -22
20 -6 0 -3 -9 7 -20z"/>
<path d="M3680 2796 c0 -2 7 -7 16 -10 8 -3 12 -2 9 4 -6 10 -25 14 -25 6z"/>
<path d="M5256 2781 c-12 -19 121 -27 189 -12 l30 7 -40 7 c-57 10 -173 9
-179 -2z"/>
<path d="M5074 2763 c-22 -3 -34 -11 -37 -25 -5 -16 -10 -19 -24 -12 -10 5
-39 8 -64 8 -63 -1 -112 -33 -133 -84 -19 -49 -22 -146 -3 -153 9 -3 9 -11 0
-38 -6 -19 -13 -61 -14 -94 l-3 -59 74 -38 c95 -48 106 -48 113 0 8 50 31 81
48 65 9 -9 9 -25 0 -73 -7 -34 -11 -63 -9 -64 24 -18 162 -93 321 -175 l197
-102 0 185 c0 101 4 196 9 210 6 13 13 110 17 214 7 185 7 189 -15 211 l-22
22 -33 -26 c-51 -39 -92 -50 -112 -31 -11 11 -34 16 -79 16 l-63 0 -36 -64
c-20 -36 -36 -69 -35 -73 1 -4 0 -15 -4 -23 -3 -8 -5 -26 -4 -40 2 -19 -3 -25
-18 -26 -21 0 -48 -9 -77 -25 -10 -5 -25 -9 -33 -9 -14 0 -16 4 -19 29 -1 5
18 23 42 40 42 31 42 32 27 61 -17 33 -6 47 23 31 17 -9 24 -2 56 60 20 39 33
75 30 80 -5 9 -58 10 -120 2z m76 -43 c0 -5 -5 -10 -11 -10 -5 0 -7 5 -4 10 3
6 8 10 11 10 2 0 4 -4 4 -10z m-72 -48 c-6 -7 -17 -11 -24 -8 -7 3 -16 1 -19
-4 -4 -6 -11 -10 -17 -10 -6 0 -4 8 5 18 10 10 17 23 17 29 0 8 7 8 24 0 19
-9 22 -15 14 -25z m262 -7 c0 -6 -56 -35 -67 -35 -4 1 8 9 27 20 39 22 40 22
40 15z m-101 -59 c-2 -2 -15 -9 -29 -15 -24 -11 -24 -11 -6 3 16 13 49 24 35
12z m-359 -39 c0 -2 -12 -14 -27 -28 -24 -22 -24 -13 0 19 8 11 27 17 27 9z
m110 -117 c-24 -19 -40 -25 -40 -15 0 5 51 34 60 34 3 0 -6 -8 -20 -19z m73
-37 c-16 -48 -33 -77 -33 -56 0 15 38 103 44 103 3 0 -2 -21 -11 -47z m155 1
c-4 -3 -12 5 -18 18 -12 22 -12 22 6 6 10 -10 15 -20 12 -24z m-308 -8 c0 -2
-8 -10 -17 -17 -16 -13 -17 -12 -4 4 13 16 21 21 21 13z m395 -123 l18 -28
-21 19 c-12 11 -22 23 -22 28 0 14 7 9 25 -19z m158 -106 c-22 -24 -42 -50
-45 -58 -3 -8 -9 -11 -14 -6 -4 4 14 30 41 57 60 61 72 66 18 7z"/>
<path d="M3794 2731 c21 -23 26 -26 26 -11 0 5 -10 15 -22 21 -23 12 -23 12
-4 -10z"/>
<path d="M5636 2568 c-4 -101 -11 -228 -16 -283 -5 -55 -10 -165 -12 -245 l-3
-145 75 -43 75 -43 31 37 c51 60 100 147 86 152 -18 6 -15 20 17 60 16 20 48
81 71 135 23 53 45 97 49 97 3 0 7 63 9 139 l2 139 -176 91 c-97 50 -182 91
-189 91 -10 0 -14 -46 -19 -182z m194 -572 c0 -2 -7 -7 -16 -10 -8 -3 -12 -2
-9 4 6 10 25 14 25 6z"/>
<path d="M3713 2715 c15 -14 38 -25 49 -25 26 0 24 2 -32 29 l-45 22 28 -26z"/>
<path d="M3507 2645 c-20 -41 -32 -75 -26 -75 14 0 182 70 193 80 7 8 -101 70
-122 70 -4 0 -24 -34 -45 -75z"/>
<path d="M4672 2663 c-47 -17 -72 -47 -46 -57 17 -6 56 17 88 53 22 24 17 25
-42 4z"/>
<path d="M3866 2657 l-30 -13 38 -22 c50 -29 58 -28 54 10 -3 37 -19 43 -62
25z"/>
<path d="M4475 2591 c-33 -15 -67 -36 -75 -45 -12 -16 -11 -20 10 -37 39 -30
59 -20 101 49 21 34 35 62 31 61 -4 0 -34 -13 -67 -28z"/>
<path d="M3700 2593 c-64 -23 -248 -107 -259 -118 -11 -11 -10 -18 8 -43 23
-33 81 -172 81 -196 0 -34 25 -24 98 44 42 40 125 108 184 153 59 45 104 85
100 89 -4 4 -38 23 -75 42 -64 34 -102 42 -137 29z"/>
<path d="M4578 2573 c-20 -24 -58 -88 -58 -98 0 -11 47 34 72 68 24 33 11 59
-14 30z"/>
<path d="M2272 2528 c-8 -13 -12 -40 -10 -59 3 -33 3 -34 16 -11 7 13 12 39
10 59 l-3 37 -13 -26z"/>
<path d="M6068 2433 c-3 -60 -4 -109 -3 -111 3 -4 75 175 75 186 0 9 -44 32
-59 32 -5 0 -11 -48 -13 -107z"/>
<path d="M2356 2496 c-3 -13 -9 -31 -12 -40 -9 -23 6 -20 41 8 30 24 30 25 10
40 -27 21 -32 20 -39 -8z"/>
<path d="M4595 2470 c-21 -22 -34 -40 -28 -40 10 0 73 65 73 75 0 10 -7 4 -45
-35z"/>
<path d="M4651 2434 c-27 -39 -27 -38 31 -69 38 -21 41 -19 22 18 -10 17 -20
44 -23 59 l-6 28 -24 -36z"/>
<path d="M2424 2389 c-66 -67 -68 -60 29 -110 32 -16 62 -27 67 -24 18 11 23
111 7 142 -30 58 -38 58 -103 -8z"/>
<path d="M2587 2306 c-9 -35 -17 -72 -17 -80 0 -35 31 -27 95 25 l66 53 -53
33 c-29 18 -57 33 -63 33 -6 0 -19 -29 -28 -64z"/>
<path d="M6040 2295 c-7 -9 -8 -15 -2 -15 5 0 12 7 16 15 3 8 4 15 2 15 -2 0
-9 -7 -16 -15z"/>
<path d="M2765 2257 c-11 -12 -32 -43 -47 -70 l-27 -48 82 -40 82 -40 7 23 c3
13 6 44 7 70 1 42 -4 53 -35 88 -20 22 -39 40 -43 39 -3 0 -15 -10 -26 -22z"/>
<path d="M2929 2138 c-15 -54 -17 -116 -4 -120 6 -2 11 12 13 31 2 23 9 35 23
38 22 6 23 17 8 62 -15 42 -26 39 -40 -11z"/>
<path d="M3130 2113 c0 -5 -22 -45 -49 -91 l-50 -83 32 -19 c60 -37 198 -80
293 -92 114 -14 119 -11 109 61 -6 47 -10 53 -46 71 -21 11 -39 25 -39 30 0 6
-6 10 -12 10 -7 0 -33 14 -58 31 -52 35 -155 89 -170 89 -5 0 -10 -3 -10 -7z
m30 -67 c0 -2 -8 -10 -17 -17 -16 -13 -17 -12 -4 4 13 16 21 21 21 13z"/>
<path d="M2989 1983 c-13 -16 -12 -17 4 -4 16 13 21 21 13 21 -2 0 -10 -8 -17
-17z"/>
</g>
</svg>
