<svg width="363" height="464" viewBox="0 0 363 464" fill="none" xmlns="http://www.w3.org/2000/svg">
<path d="M189.2 418.28C189.2 419.24 189.04 420.24 188.72 421.28C188.4 422.24 187.64 423.04 186.44 423.68C185.24 424.32 183.4 424.64 180.92 424.64C179.16 424.64 177 424.52 174.44 424.28C171.88 423.96 169.12 423.56 166.16 423.08C162.16 422.44 157.96 421.92 153.56 421.52C149.08 421.04 144.52 420.8 139.88 420.8C136.12 420.8 132.88 421 130.16 421.4C127.36 421.72 125.2 422.16 123.68 422.72C123.76 425.76 123.96 428.64 124.28 431.36C124.6 434.08 125.12 436.84 125.84 439.64C125.92 440.36 126.04 441 126.2 441.56C126.28 442.04 126.32 442.52 126.32 443C126.32 443.72 126.2 444.24 125.96 444.56C125.64 444.88 124.92 445.04 123.8 445.04C122.44 445.04 121.04 444.84 119.6 444.44C118.08 444.04 116.8 443.44 115.76 442.64C114.64 441.84 113.84 440.92 113.36 439.88C112.8 438.76 112.44 437.56 112.28 436.28C112.04 434.28 111.84 431.72 111.68 428.6C111.44 425.48 111.24 422.08 111.08 418.4C110.92 414.64 110.84 410.96 110.84 407.36C110.84 401.52 110.88 397.36 110.96 394.88C111.04 392.32 111.16 390.6 111.32 389.72C111.48 388.6 111.84 387.84 112.4 387.44C112.88 386.96 113.68 386.72 114.8 386.72C116.96 386.72 119.12 387.68 121.28 389.6C122.24 390.4 123 391.24 123.56 392.12C124.04 393 124.24 394.16 124.16 395.6C124 396.88 123.88 398.76 123.8 401.24C123.72 403.72 123.68 406.48 123.68 409.52C126.48 409.6 129.76 409.84 133.52 410.24C137.2 410.56 140.92 410.96 144.68 411.44C148.36 411.92 152.04 412.32 155.72 412.64C159.4 412.96 162.76 413.12 165.8 413.12C168.6 413.12 171.08 412.88 173.24 412.4C175.32 411.84 177.12 410.76 178.64 409.16C179.76 408.04 180.96 407.48 182.24 407.48C184 407.48 185.6 408.48 187.04 410.48C188.48 412.48 189.2 415.08 189.2 418.28ZM189.32 376.132C189.32 379.252 188.2 380.812 185.96 380.812C185.32 380.812 184.48 380.692 183.44 380.452C175.04 378.772 166.52 377.572 157.88 376.852C158.2 378.052 158.36 379.012 158.36 379.732C158.36 380.532 157.64 380.932 156.2 380.932C154.28 380.932 152.12 380.452 149.72 379.492C147.32 378.532 145.56 377.412 144.44 376.132C140.2 376.132 136.68 376.252 133.88 376.492C131 376.652 128.48 377.012 126.32 377.572C124.16 378.132 122.08 379.012 120.08 380.212C118.96 380.932 118.12 381.292 117.56 381.292C116.52 381.292 115.52 380.772 114.56 379.732C113.52 378.612 112.64 377.292 111.92 375.772C111.2 374.172 110.84 372.692 110.84 371.332C110.84 368.772 112 367.092 114.32 366.292C116.56 365.412 119.52 364.972 123.2 364.972C124.96 365.052 127.48 365.212 130.76 365.452C134.04 365.692 138.08 366.052 142.88 366.532C142.56 361.492 142.32 356.572 142.16 351.772C142 346.972 141.92 342.372 141.92 337.972V329.092H138.56C131.6 329.092 125.48 330.012 120.2 331.852C118.84 332.412 117.88 332.692 117.32 332.692C115.72 332.692 114.24 331.692 112.88 329.692C111.52 327.612 110.84 325.452 110.84 323.212C110.84 320.732 111.76 319.092 113.6 318.292C115.36 317.412 117.88 316.972 121.16 316.972C123.32 316.972 126.24 317.172 129.92 317.572C133.6 317.972 138.08 318.532 143.36 319.252C148.96 319.972 153.6 320.532 157.28 320.932C160.88 321.332 164.08 321.532 166.88 321.532C172.16 321.532 176.08 320.172 178.64 317.452C179.84 316.412 181.04 315.892 182.24 315.892C184.08 315.892 185.72 316.972 187.16 319.132C188.52 321.292 189.2 323.892 189.2 326.932C189.2 328.852 188.68 330.372 187.64 331.492C186.6 332.612 184.36 333.172 180.92 333.172C179.72 333.172 177.92 333.052 175.52 332.812C173.12 332.572 170.08 332.172 166.4 331.612C164.08 331.292 161.84 331.012 159.68 330.772C157.52 330.452 155.48 330.212 153.56 330.052C154.28 330.612 154.84 331.172 155.24 331.732C155.64 332.212 155.8 332.892 155.72 333.772C155.56 336.652 155.44 339.532 155.36 342.412C155.2 345.212 155.12 348.012 155.12 350.812C155.12 356.652 155.48 362.212 156.2 367.492C156.76 367.572 157.72 367.652 159.08 367.732C160.36 367.732 161.44 367.732 162.32 367.732C165.76 367.732 169.32 367.572 173 367.252C176.68 366.932 179.96 366.612 182.84 366.292C184.84 366.052 186.44 367.012 187.64 369.172C188.76 371.332 189.32 373.652 189.32 376.132ZM189.56 281.486C189.56 289.086 188.36 294.726 185.96 298.406C183.48 302.006 178.88 303.806 172.16 303.806C170.8 303.806 169.16 303.726 167.24 303.566C165.32 303.326 163 303.006 160.28 302.606C156.36 301.966 152.88 301.486 149.84 301.166C146.72 300.846 143.32 300.686 139.64 300.686C137.24 300.686 134.92 300.766 132.68 300.926C130.44 301.006 128.32 301.206 126.32 301.526C126.56 302.726 126.68 303.526 126.68 303.926C126.68 304.566 126.56 305.006 126.32 305.246C126 305.486 125.44 305.606 124.64 305.606C122.96 305.606 121.32 305.406 119.72 305.006C118.04 304.606 116.68 304.046 115.64 303.326C113.72 301.966 112.6 299.886 112.28 297.086C112.04 294.926 111.8 292.286 111.56 289.166C111.32 285.966 111.16 282.726 111.08 279.446C110.92 276.086 110.84 273.086 110.84 270.446C110.84 263.086 111 258.726 111.32 257.366C111.64 255.286 112.76 254.246 114.68 254.246C117.08 254.246 119.28 255.086 121.28 256.766C122.48 257.646 123.36 258.526 123.92 259.406C124.4 260.286 124.6 261.526 124.52 263.126C124.28 266.646 124.12 269.726 124.04 272.366C123.96 275.006 123.92 276.846 123.92 277.886C123.92 279.726 123.96 281.646 124.04 283.646C124.12 285.566 124.24 287.526 124.4 289.526C127.2 289.526 130.2 289.646 133.4 289.886C136.6 290.126 139.96 290.446 143.48 290.846C143.24 287.166 143.08 283.006 143 278.366C142.84 273.726 142.76 269.606 142.76 266.006C142.76 264.406 142.92 263.326 143.24 262.766C143.56 262.126 144.4 261.806 145.76 261.806C147.04 261.806 148.48 262.166 150.08 262.886C151.6 263.526 152.92 264.406 154.04 265.526C154.52 266.006 154.92 266.526 155.24 267.086C155.48 267.646 155.56 268.406 155.48 269.366C155.32 272.806 155.2 276.726 155.12 281.126C155.04 285.446 155.04 289.246 155.12 292.526C156.96 292.846 158.64 293.086 160.16 293.246C161.68 293.406 163.04 293.486 164.24 293.486C168.64 293.486 171.72 292.366 173.48 290.126C175.24 287.886 176.12 284.206 176.12 279.086C176.12 275.966 175.84 272.966 175.28 270.086C174.72 267.126 173.68 264.126 172.16 261.086C171.52 259.966 171.2 259.126 171.2 258.566C171.2 257.686 171.84 256.846 173.12 256.046C174.32 255.166 175.64 254.726 177.08 254.726C178.84 254.726 180.52 255.406 182.12 256.766C183.64 258.046 184.96 259.766 186.08 261.926C187.2 264.406 188.04 267.366 188.6 270.806C189.24 274.246 189.56 277.806 189.56 281.486ZM309.56 422.48C309.56 426.4 309 430.04 307.88 433.4C306.68 436.68 305.04 439.32 302.96 441.32C300.88 443.32 298.44 444.32 295.64 444.32C293.8 444.32 292.2 443.88 290.84 443C289.4 442.12 288.68 440.92 288.68 439.4C288.68 438.44 289.04 437.44 289.76 436.4C291.52 434.4 293.08 431.84 294.44 428.72C295.72 425.52 296.36 422.12 296.36 418.52C296.36 413.8 295.44 409.96 293.6 407C291.68 403.96 289.12 402.44 285.92 402.44C282.88 402.44 280.68 403.84 279.32 406.64C277.96 409.44 276.68 413.32 275.48 418.28C274.6 421.96 273.48 425.52 272.12 428.96C270.76 432.32 268.88 435.12 266.48 437.36C264 439.52 260.72 440.6 256.64 440.6C253.52 440.6 250.44 439.92 247.4 438.56C244.28 437.2 241.44 435.2 238.88 432.56C236.32 429.92 234.28 426.72 232.76 422.96C231.16 419.2 230.36 414.96 230.36 410.24C230.36 406.72 230.76 403.52 231.56 400.64C232.36 397.68 233.48 395.36 234.92 393.68C236.36 391.92 238.12 391.04 240.2 391.04C241.8 391.04 243.2 391.48 244.4 392.36C245.6 393.24 246.56 394.28 247.28 395.48C247.92 396.68 248.24 397.72 248.24 398.6C248.24 399.4 247.88 400.48 247.16 401.84C245.96 404.08 245.04 406.6 244.4 409.4C243.68 412.12 243.32 414.52 243.32 416.6C243.32 420.52 244.2 423.72 245.96 426.2C247.64 428.6 249.64 429.8 251.96 429.8C254.52 429.8 256.68 428.28 258.44 425.24C260.12 422.12 261.92 416.56 263.84 408.56C265.28 403.12 267.28 398.88 269.84 395.84C272.32 392.8 276.28 391.28 281.72 391.28C286.6 391.28 291.16 392.6 295.4 395.24C299.64 397.8 303.08 401.44 305.72 406.16C308.28 410.8 309.56 416.24 309.56 422.48ZM309.56 353.583C309.56 361.983 307.36 368.263 302.96 372.423C298.48 376.583 291.48 378.663 281.96 378.663C280.36 378.663 278.68 378.623 276.92 378.543C275.16 378.383 273.44 378.223 271.76 378.063C270.16 377.903 268.56 377.783 266.96 377.703C265.36 377.623 263.92 377.583 262.64 377.583C257.84 377.583 253.68 377.783 250.16 378.183C246.64 378.583 243.28 379.783 240.08 381.783C239.04 382.423 238.2 382.743 237.56 382.743C236.52 382.743 235.52 382.183 234.56 381.063C233.52 379.863 232.64 378.463 231.92 376.863C231.2 375.263 230.84 373.743 230.84 372.303C230.84 370.383 231.48 369.023 232.76 368.223C234.04 367.343 235.64 366.783 237.56 366.543C239.4 366.303 241.28 366.183 243.2 366.183C245.2 366.183 247.4 366.303 249.8 366.543C252.2 366.703 254.8 366.983 257.6 367.383C260.64 367.703 263.84 368.023 267.2 368.343C270.48 368.583 273.8 368.703 277.16 368.703C281.8 368.703 285.52 367.903 288.32 366.303C291.04 364.623 293.04 362.383 294.32 359.583C295.52 356.703 296.12 353.503 296.12 349.983C296.12 343.823 294.56 339.183 291.44 336.063C288.24 332.943 284.08 330.783 278.96 329.583C276.64 329.023 274 328.583 271.04 328.263C268 327.943 264.92 327.783 261.8 327.783C257.88 327.783 254.12 328.063 250.52 328.623C246.92 329.103 243.76 330.103 241.04 331.623C240.4 331.943 239.84 332.223 239.36 332.463C238.88 332.703 238.36 332.823 237.8 332.823C236.68 332.823 235.6 332.343 234.56 331.383C233.44 330.423 232.56 329.223 231.92 327.783C231.2 326.343 230.84 324.863 230.84 323.343C230.84 320.783 231.92 319.063 234.08 318.183C236.24 317.303 238.76 316.863 241.64 316.863C243.4 316.863 245.96 317.023 249.32 317.343C252.68 317.583 256.28 317.943 260.12 318.423C263.96 318.903 267.6 319.383 271.04 319.863C274.4 320.343 277 320.783 278.84 321.183C288.36 323.183 295.88 326.703 301.4 331.743C306.84 336.783 309.56 344.063 309.56 353.583ZM309.2 306.33C309.2 307.85 308.76 308.89 307.88 309.45C307 310.01 306.04 310.29 305 310.29C300.04 310.29 294.36 309.81 287.96 308.85C281.56 307.81 275.2 306.57 268.88 305.13C263.52 303.85 258.52 302.45 253.88 300.93C249.24 299.33 245.44 297.93 242.48 296.73C238.32 294.97 235.16 292.97 233 290.73C230.76 288.41 229.64 285.73 229.64 282.69C229.64 280.45 230.4 278.45 231.92 276.69C233.36 274.93 236 273.89 239.84 273.57C244.48 273.09 249.16 272.53 253.88 271.89C258.6 271.25 262.92 270.53 266.84 269.73C270.68 268.93 273.64 268.09 275.72 267.21C277.56 266.49 278.48 265.45 278.48 264.09C278.48 262.57 277.52 261.25 275.6 260.13C273.84 259.09 271.44 257.97 268.4 256.77C265.36 255.57 262.16 254.41 258.8 253.29C255.36 252.09 252.24 251.05 249.44 250.17C246.4 249.13 243.36 247.97 240.32 246.69C237.2 245.33 234.64 243.61 232.64 241.53C230.56 239.45 229.52 236.85 229.52 233.73C229.52 230.85 230.52 228.81 232.52 227.61C234.44 226.33 237.52 225.69 241.76 225.69C245.04 225.69 248.48 225.81 252.08 226.05C254.16 226.13 256.32 226.25 258.56 226.41C260.72 226.49 262.96 226.53 265.28 226.53C268.88 226.53 272.68 226.37 276.68 226.05C280.68 225.65 284.44 224.93 287.96 223.89C291.48 222.77 294.44 221.13 296.84 218.97C297.4 218.33 298.04 217.77 298.76 217.29C299.48 216.73 300.28 216.45 301.16 216.45C303.16 216.45 305 217.53 306.68 219.69C308.28 221.77 309.08 224.17 309.08 226.89C309.08 229.37 308.28 231.21 306.68 232.41C305.08 233.61 302.92 234.57 300.2 235.29C296.84 236.09 293.24 236.65 289.4 236.97C285.56 237.29 281.84 237.45 278.24 237.45C272.48 237.45 267.2 237.25 262.4 236.85C257.52 236.37 253.92 236.13 251.6 236.13C250.32 236.13 249.4 236.25 248.84 236.49C248.2 236.73 247.88 237.33 247.88 238.29C247.88 239.41 248.4 240.37 249.44 241.17C250.4 241.89 251.76 242.49 253.52 242.97C256.88 244.01 260.48 245.17 264.32 246.45C268.16 247.73 271.92 249.09 275.6 250.53C279.28 251.89 282.56 253.37 285.44 254.97C288.8 256.81 291.08 258.81 292.28 260.97C293.4 263.05 293.96 265.17 293.96 267.33C293.96 270.69 292.92 273.25 290.84 275.01C288.68 276.69 286.32 277.93 283.76 278.73C280.32 279.77 275.84 280.73 270.32 281.61C264.72 282.49 258.44 283.13 251.48 283.53C248.52 283.69 247.04 284.65 247.04 286.41C247.04 288.33 248.48 289.85 251.36 290.97C254.24 291.93 257.64 292.85 261.56 293.73C265.4 294.61 269.44 295.33 273.68 295.89C277.84 296.37 281.96 296.61 286.04 296.61C289.48 296.61 292.48 296.49 295.04 296.25C297.6 295.93 300 295.77 302.24 295.77C303.84 295.77 305.16 296.41 306.2 297.69C307.24 298.89 308 300.33 308.48 302.01C308.96 303.69 309.2 305.13 309.2 306.33ZM309.2 207.541C309.2 209.061 308.76 210.101 307.88 210.661C307 211.221 306.04 211.501 305 211.501C300.04 211.501 294.36 211.021 287.96 210.061C281.56 209.021 275.2 207.781 268.88 206.341C263.52 205.061 258.52 203.661 253.88 202.141C249.24 200.541 245.44 199.141 242.48 197.941C238.32 196.181 235.16 194.181 233 191.941C230.76 189.621 229.64 186.941 229.64 183.901C229.64 181.661 230.4 179.661 231.92 177.901C233.36 176.141 236 175.101 239.84 174.781C244.48 174.301 249.16 173.741 253.88 173.101C258.6 172.461 262.92 171.741 266.84 170.941C270.68 170.141 273.64 169.301 275.72 168.421C277.56 167.701 278.48 166.661 278.48 165.301C278.48 163.781 277.52 162.461 275.6 161.341C273.84 160.301 271.44 159.181 268.4 157.981C265.36 156.781 262.16 155.621 258.8 154.501C255.36 153.301 252.24 152.261 249.44 151.381C246.4 150.341 243.36 149.181 240.32 147.901C237.2 146.541 234.64 144.821 232.64 142.741C230.56 140.661 229.52 138.061 229.52 134.941C229.52 132.061 230.52 130.021 232.52 128.821C234.44 127.541 237.52 126.901 241.76 126.901C245.04 126.901 248.48 127.021 252.08 127.261C254.16 127.341 256.32 127.461 258.56 127.621C260.72 127.701 262.96 127.741 265.28 127.741C268.88 127.741 272.68 127.581 276.68 127.261C280.68 126.861 284.44 126.141 287.96 125.101C291.48 123.981 294.44 122.341 296.84 120.181C297.4 119.541 298.04 118.981 298.76 118.501C299.48 117.941 300.28 117.661 301.16 117.661C303.16 117.661 305 118.741 306.68 120.901C308.28 122.981 309.08 125.381 309.08 128.101C309.08 130.581 308.28 132.421 306.68 133.621C305.08 134.821 302.92 135.781 300.2 136.501C296.84 137.301 293.24 137.861 289.4 138.181C285.56 138.501 281.84 138.661 278.24 138.661C272.48 138.661 267.2 138.461 262.4 138.061C257.52 137.581 253.92 137.341 251.6 137.341C250.32 137.341 249.4 137.461 248.84 137.701C248.2 137.941 247.88 138.541 247.88 139.501C247.88 140.621 248.4 141.581 249.44 142.381C250.4 143.101 251.76 143.701 253.52 144.181C256.88 145.221 260.48 146.381 264.32 147.661C268.16 148.941 271.92 150.301 275.6 151.741C279.28 153.101 282.56 154.581 285.44 156.181C288.8 158.021 291.08 160.021 292.28 162.181C293.4 164.261 293.96 166.381 293.96 168.541C293.96 171.901 292.92 174.461 290.84 176.221C288.68 177.901 286.32 179.141 283.76 179.941C280.32 180.981 275.84 181.941 270.32 182.821C264.72 183.701 258.44 184.341 251.48 184.741C248.52 184.901 247.04 185.861 247.04 187.621C247.04 189.541 248.48 191.061 251.36 192.181C254.24 193.141 257.64 194.061 261.56 194.941C265.4 195.821 269.44 196.541 273.68 197.101C277.84 197.581 281.96 197.821 286.04 197.821C289.48 197.821 292.48 197.701 295.04 197.461C297.6 197.141 300 196.981 302.24 196.981C303.84 196.981 305.16 197.621 306.2 198.901C307.24 200.101 308 201.541 308.48 203.221C308.96 204.901 309.2 206.341 309.2 207.541ZM309.2 101.371C309.2 103.291 308.68 104.851 307.64 106.051C306.6 107.251 304.48 107.851 301.28 107.851C299.68 107.851 297.6 107.691 295.04 107.371C292.48 107.051 289.92 106.731 287.36 106.411C281.68 105.531 276.76 104.891 272.6 104.491C268.44 104.091 264.2 103.891 259.88 103.891C255.88 103.891 252.16 104.131 248.72 104.611C245.28 105.011 242.32 106.091 239.84 107.851C238.8 108.491 238 108.811 237.44 108.811C236.48 108.811 235.48 108.291 234.44 107.251C233.32 106.131 232.4 104.811 231.68 103.291C230.96 101.691 230.6 100.211 230.6 98.8512C230.6 96.3712 231.72 94.7312 233.96 93.9312C236.12 93.0512 238.84 92.6112 242.12 92.6112C244.12 92.6112 246.6 92.7312 249.56 92.9712C252.52 93.2112 255.4 93.4912 258.2 93.8112C260.92 94.0512 263.04 94.2912 264.56 94.5312C268.8 95.0912 272.76 95.5312 276.44 95.8512C280.12 96.1712 283.24 96.3312 285.8 96.3312C288.84 96.3312 291.4 96.0512 293.48 95.4912C295.56 94.8512 297.28 93.7712 298.64 92.2512C299.6 91.2112 300.68 90.6912 301.88 90.6912C303.8 90.6912 305.52 91.6912 307.04 93.6912C308.48 95.6112 309.2 98.1712 309.2 101.371ZM309.2 56.9909C309.2 57.9509 309.04 58.9509 308.72 59.9909C308.4 60.9509 307.64 61.7509 306.44 62.3909C305.24 63.0309 303.4 63.3509 300.92 63.3509C299.16 63.3509 297 63.2309 294.44 62.9909C291.88 62.6709 289.12 62.2709 286.16 61.7909C282.16 61.1509 277.96 60.6309 273.56 60.2309C269.08 59.7509 264.52 59.5109 259.88 59.5109C256.12 59.5109 252.88 59.7109 250.16 60.1109C247.36 60.4309 245.2 60.8709 243.68 61.4309C243.76 64.4709 243.96 67.3509 244.28 70.0709C244.6 72.7909 245.12 75.5509 245.84 78.3509C245.92 79.0709 246.04 79.7109 246.2 80.2709C246.28 80.7509 246.32 81.2309 246.32 81.7109C246.32 82.4309 246.2 82.9509 245.96 83.2709C245.64 83.5909 244.92 83.7509 243.8 83.7509C242.44 83.7509 241.04 83.5509 239.6 83.1509C238.08 82.7509 236.8 82.1509 235.76 81.3509C234.64 80.5509 233.84 79.6309 233.36 78.5909C232.8 77.4709 232.44 76.2709 232.28 74.9909C232.04 72.9909 231.84 70.4309 231.68 67.3109C231.44 64.1909 231.24 60.7909 231.08 57.1109C230.92 53.3509 230.84 49.6709 230.84 46.0709C230.84 40.2309 230.88 36.0709 230.96 33.5909C231.04 31.0309 231.16 29.3109 231.32 28.4309C231.48 27.3109 231.84 26.5509 232.4 26.1509C232.88 25.6709 233.68 25.4309 234.8 25.4309C236.96 25.4309 239.12 26.3909 241.28 28.3109C242.24 29.1109 243 29.9509 243.56 30.8309C244.04 31.7109 244.24 32.8709 244.16 34.3109C244 35.5909 243.88 37.4709 243.8 39.9509C243.72 42.4309 243.68 45.1909 243.68 48.2309C246.48 48.3109 249.76 48.5509 253.52 48.9509C257.2 49.2709 260.92 49.6709 264.68 50.1509C268.36 50.6309 272.04 51.0309 275.72 51.3509C279.4 51.6709 282.76 51.8309 285.8 51.8309C288.6 51.8309 291.08 51.5909 293.24 51.1109C295.32 50.5509 297.12 49.4709 298.64 47.8709C299.76 46.7509 300.96 46.1909 302.24 46.1909C304 46.1909 305.6 47.1909 307.04 49.1909C308.48 51.1909 309.2 53.7909 309.2 56.9909Z" fill="#FFEC96"/>
<rect x="198" y="6" width="15" height="226" fill="#FFEC96"/>
<rect x="166" y="6" width="13" height="113" fill="#FFEC96"/>
<rect x="166" y="127" width="13" height="105" fill="#FFEC96"/>
<rect x="137" y="68" width="14" height="164" fill="#FFEC96"/>
<rect x="111" y="38" width="16" height="194" fill="#FFEC96"/>
<rect x="93" y="22" width="14" height="210" fill="#FFEC96"/>
<rect x="76" y="14" width="15" height="218" fill="#FFEC96"/>
<rect x="137" y="6" width="14" height="56" fill="#FFEC96"/>
<rect x="111" y="6" width="16" height="28" fill="#FFEC96"/>
<rect x="93" y="6" width="14" height="14" fill="#FFEC96"/>
<rect x="76" y="6" width="15" height="7" fill="#FFEC96"/>
<rect x="73" y="464" width="6" height="290" transform="rotate(-90 73 464)" fill="#FFEC96"/>
<rect x="70" width="6" height="464" fill="#FFEC96"/>
<path d="M45.416 349.322C45.416 350.794 45.0213 351.978 44.232 352.874C43.4213 353.748 42.2373 354.186 40.68 354.186C39.9547 354.186 39.2507 354.09 38.568 353.898C37.8853 353.684 37.2453 353.407 36.648 353.066C36.8613 353.407 36.968 353.663 36.968 353.834C36.968 354.09 36.8293 354.271 36.552 354.378C36.2533 354.463 35.9653 354.506 35.688 354.506C35.1973 354.506 34.8133 354.41 34.536 354.218C34.2373 354.004 34.0133 353.802 33.864 353.61C33.48 353.162 33.064 352.458 32.616 351.498C32.1467 350.538 31.912 349.386 31.912 348.042C31.912 346.207 32.424 344.788 33.448 343.786C34.472 342.762 35.9013 342.25 37.736 342.25C39.1653 342.25 40.4667 342.548 41.64 343.146C42.792 343.743 43.7093 344.575 44.392 345.642C45.0747 346.687 45.416 347.914 45.416 349.322ZM42.152 348.33C42.152 347.263 41.8213 346.367 41.16 345.642C40.4773 344.895 39.5813 344.522 38.472 344.522C37.32 344.522 36.4987 344.895 36.008 345.642C35.5173 346.388 35.272 347.252 35.272 348.234C35.272 348.682 35.3147 349.087 35.4 349.45C35.4853 349.812 35.592 350.154 35.72 350.474C36.1467 350.772 36.6267 351.039 37.16 351.274C37.6933 351.508 38.28 351.626 38.92 351.626C39.9867 351.626 40.7973 351.306 41.352 350.666C41.8853 350.026 42.152 349.247 42.152 348.33ZM45.352 337.864C45.352 338.205 45.288 338.483 45.16 338.696C45.0533 338.888 44.8613 338.952 44.584 338.888C43.6667 338.653 42.7387 338.461 41.8 338.312C40.84 338.141 39.9227 338.056 39.048 338.056C37.9173 338.056 37.096 338.131 36.584 338.28C36.0507 338.408 35.688 338.589 35.496 338.824C35.2827 339.059 35.1227 339.347 35.016 339.688C34.952 339.837 34.8667 339.976 34.76 340.104C34.6533 340.211 34.504 340.264 34.312 340.264C34.0133 340.264 33.6827 340.147 33.32 339.912C32.9573 339.677 32.648 339.347 32.392 338.92C32.1147 338.493 31.976 338.003 31.976 337.448C31.976 336.723 32.232 336.221 32.744 335.944C33.2347 335.645 33.8853 335.496 34.696 335.496C33.8427 335.112 33.1707 334.643 32.68 334.088C32.168 333.512 31.912 332.797 31.912 331.944C31.912 331.368 32.04 330.888 32.296 330.504C32.552 330.12 32.968 329.928 33.544 329.928C34.12 329.928 34.664 330.12 35.176 330.504C35.6667 330.867 35.912 331.24 35.912 331.624C35.912 331.688 35.9013 331.763 35.88 331.848C35.8587 331.933 35.8053 332.008 35.72 332.072C35.3787 332.349 35.208 332.691 35.208 333.096C35.208 333.715 35.6133 334.259 36.424 334.728C37.2347 335.197 38.3547 335.453 39.784 335.496C40.3173 335.475 40.8613 335.464 41.416 335.464C41.9707 335.443 42.376 335.432 42.632 335.432C43.4213 335.432 44.072 335.656 44.584 336.104C45.096 336.531 45.352 337.117 45.352 337.864ZM53.832 326.612C53.832 327.252 53.6507 327.753 53.288 328.116C52.9467 328.478 52.3173 328.66 51.4 328.66C50.7813 328.66 50.0027 328.596 49.064 328.468C48.1253 328.318 47.1333 328.148 46.088 327.956C45.256 327.806 44.3813 327.668 43.464 327.54C42.5467 327.39 41.6507 327.273 40.776 327.188C39.88 327.081 39.08 327.028 38.376 327.028C37.5653 327.028 36.8613 327.124 36.264 327.316C35.6667 327.486 35.2827 327.849 35.112 328.404C35.0267 328.617 34.9307 328.809 34.824 328.98C34.7173 329.15 34.5467 329.236 34.312 329.236C34.0133 329.236 33.6827 329.118 33.32 328.884C32.9573 328.649 32.648 328.318 32.392 327.892C32.1147 327.444 31.976 326.942 31.976 326.388C31.976 325.662 32.232 325.161 32.744 324.884C33.2347 324.606 33.8853 324.468 34.696 324.468C34.9307 324.468 35.176 324.478 35.432 324.5C35.6667 324.521 35.912 324.553 36.168 324.596C34.9733 323.977 33.9707 323.166 33.16 322.164C32.328 321.14 31.912 319.988 31.912 318.708C31.912 317.428 32.3493 316.425 33.224 315.7C34.0773 314.953 35.24 314.58 36.712 314.58C37.8 314.58 38.8667 314.75 39.912 315.092C40.936 315.433 41.864 315.913 42.696 316.532C43.528 317.15 44.1893 317.897 44.68 318.772C45.1707 319.625 45.416 320.585 45.416 321.652C45.416 322.42 45.2773 323.092 45 323.668C44.744 324.244 44.4027 324.745 43.976 325.172C44.5307 325.257 45.2027 325.342 45.992 325.428C46.7813 325.492 47.5173 325.524 48.2 325.524C48.9893 325.524 49.608 325.438 50.056 325.268C50.504 325.076 50.8453 324.713 51.08 324.18C51.1867 323.945 51.3573 323.828 51.592 323.828C51.7627 323.828 52.0293 323.913 52.392 324.084C52.7547 324.254 53.0853 324.542 53.384 324.948C53.6827 325.332 53.832 325.886 53.832 326.612ZM41.96 320.916C41.96 319.7 41.576 318.761 40.808 318.1C40.04 317.438 39.1547 317.108 38.152 317.108C37.2773 317.108 36.6053 317.342 36.136 317.812C35.6453 318.281 35.4 318.91 35.4 319.7C35.4 320.51 35.6453 321.225 36.136 321.844C36.6053 322.462 37.224 322.996 37.992 323.444C38.76 323.87 39.5813 324.222 40.456 324.5C41.4587 323.433 41.96 322.238 41.96 320.916ZM45.352 310.816C45.352 311.114 45.2773 311.37 45.128 311.584C45 311.797 44.8187 311.882 44.584 311.84C42.8773 311.52 41.1493 311.253 39.4 311.04C37.6293 310.805 35.848 310.688 34.056 310.688C32.4773 310.688 31.048 310.741 29.768 310.848C28.488 310.954 27.2613 311.296 26.088 311.872C25.8533 311.978 25.6507 312.064 25.48 312.128C25.3093 312.192 25.1493 312.224 25 312.224C24.5947 312.224 24.2 311.989 23.816 311.52C23.432 311.029 23.24 310.517 23.24 309.984C23.24 309.237 23.7093 308.725 24.648 308.448C25.5867 308.17 26.9733 308.032 28.808 308.032C31.0053 308.032 32.9253 308.16 34.568 308.416C36.1893 308.672 37.4267 308.896 38.28 309.088L38.344 308.96C37.2133 308.533 36.1573 308.021 35.176 307.424C34.1947 306.805 33.4053 306.09 32.808 305.28C32.2107 304.469 31.912 303.53 31.912 302.464C31.912 301.333 32.2533 300.48 32.936 299.904C33.6187 299.306 34.4613 299.008 35.464 299.008C35.8907 299.008 36.3067 299.05 36.712 299.136C37.096 299.221 37.4693 299.317 37.832 299.424C38.1733 299.53 38.5253 299.626 38.888 299.712C39.2293 299.797 39.5813 299.84 39.944 299.84C40.6053 299.84 41.1493 299.68 41.576 299.36C41.9813 299.04 42.2693 298.613 42.44 298.08C42.4827 297.93 42.5467 297.824 42.632 297.76C42.696 297.674 42.824 297.632 43.016 297.632C43.208 297.632 43.4853 297.696 43.848 297.824C44.2107 297.952 44.552 298.186 44.872 298.528C45.1707 298.869 45.32 299.37 45.32 300.032C45.32 300.885 45.0213 301.546 44.424 302.016C43.8053 302.485 43.016 302.72 42.056 302.72C41.5867 302.72 41.1067 302.677 40.616 302.592C40.1253 302.485 39.656 302.368 39.208 302.24C38.76 302.133 38.344 302.037 37.96 301.952C37.5547 301.866 37.2133 301.824 36.936 301.824C35.9547 301.824 35.464 302.336 35.464 303.36C35.464 304.213 35.7733 304.97 36.392 305.632C36.9893 306.272 37.7573 306.826 38.696 307.296C39.6133 307.744 40.5627 308.117 41.544 308.416H42.632C43.4213 308.416 44.072 308.65 44.584 309.12C45.096 309.568 45.352 310.133 45.352 310.816ZM45.416 290.572C45.416 292.194 44.9573 293.463 44.04 294.38C43.1013 295.276 41.8 295.724 40.136 295.724C38.6213 295.724 37.2453 295.394 36.008 294.732C34.7707 294.071 33.7893 293.186 33.064 292.076C32.3173 290.946 31.944 289.708 31.944 288.365C31.944 287.084 32.264 286.06 32.904 285.292C33.5227 284.524 34.3547 284.14 35.4 284.14C36.232 284.14 37 284.396 37.704 284.908C38.408 285.42 38.9733 286.103 39.4 286.956C39.8053 287.81 40.008 288.759 40.008 289.804C40.008 291.084 39.72 292.13 39.144 292.94C40.1253 292.919 40.9147 292.588 41.512 291.948C42.1093 291.287 42.408 290.444 42.408 289.42C42.408 288.802 42.3013 288.172 42.088 287.532C41.8533 286.871 41.544 286.306 41.16 285.836C40.904 285.538 40.776 285.26 40.776 285.004C40.776 284.791 40.8507 284.62 41 284.492C41.128 284.343 41.2987 284.268 41.512 284.268C41.9813 284.268 42.6 284.674 43.368 285.484C44.7333 286.914 45.416 288.61 45.416 290.572ZM37.896 290.092C37.896 289.324 37.736 288.684 37.416 288.172C37.096 287.66 36.6907 287.405 36.2 287.405C35.7947 287.405 35.4853 287.575 35.272 287.916C35.0373 288.258 34.92 288.727 34.92 289.324C34.92 290.114 35.1333 290.807 35.56 291.404C35.9653 291.98 36.5413 292.396 37.288 292.652C37.48 292.354 37.6293 291.97 37.736 291.5C37.8427 291.031 37.896 290.562 37.896 290.092ZM45.416 277.69C45.416 278.757 45.1067 279.589 44.488 280.186C43.8693 280.762 42.9733 281.05 41.8 281.05C40.968 281.05 40.1147 280.933 39.24 280.698C38.8773 280.592 38.5147 280.506 38.152 280.442C37.7893 280.378 37.4267 280.346 37.064 280.346C36.1253 280.346 35.5173 280.634 35.24 281.21C34.9413 281.765 34.6213 282.042 34.28 282.042C33.9387 282.042 33.5973 281.904 33.256 281.626C32.9147 281.328 32.6373 280.965 32.424 280.538C32.1893 280.112 32.072 279.685 32.072 279.258C32.072 278.042 33.064 277.434 35.048 277.434C35.688 277.434 36.2853 277.488 36.84 277.594C37.3733 277.68 37.8853 277.786 38.376 277.914C38.7173 278 39.0587 278.074 39.4 278.138C39.7413 278.181 40.04 278.202 40.296 278.202C41.3627 278.202 41.896 277.68 41.896 276.634C41.896 275.653 41.3733 274.736 40.328 273.882C39.2827 273.029 37.8213 272.325 35.944 271.77L35.336 271.802C34.2693 271.845 33.4587 271.664 32.904 271.258C32.3493 270.832 32.072 270.213 32.072 269.402C32.072 268.698 32.296 268.346 32.744 268.346C32.8933 268.346 33.0853 268.378 33.32 268.442C33.5547 268.485 33.832 268.56 34.152 268.666C34.9413 268.88 35.784 269.061 36.68 269.21C37.5547 269.36 38.3653 269.434 39.112 269.434C39.944 269.434 40.6373 269.306 41.192 269.05C41.7253 268.794 42.088 268.314 42.28 267.61C42.3013 267.418 42.3653 267.269 42.472 267.162C42.5573 267.034 42.7493 266.97 43.048 266.97C43.56 266.97 44.0613 267.184 44.552 267.61C45.0427 268.037 45.288 268.656 45.288 269.466C45.288 271.024 44.1893 271.802 41.992 271.802C41.608 271.802 41.032 271.77 40.264 271.706L40.232 271.77C43.688 273.114 45.416 275.088 45.416 277.69ZM45.416 260.935C45.416 261.724 45.2987 262.46 45.064 263.143C44.8293 263.826 44.4987 264.38 44.072 264.807C43.6453 265.234 43.1333 265.447 42.536 265.447C42.216 265.447 41.9173 265.372 41.64 265.223C41.3413 265.052 41.192 264.786 41.192 264.423C41.192 264.231 41.2453 264.028 41.352 263.815C41.5653 263.431 41.768 262.94 41.96 262.343C42.1307 261.746 42.216 261.116 42.216 260.455C42.216 259.708 42.1093 259.047 41.896 258.471C41.6827 257.895 41.384 257.607 41 257.607C40.7013 257.607 40.488 257.831 40.36 258.279C40.232 258.706 40.0933 259.431 39.944 260.455C39.816 261.159 39.6667 261.842 39.496 262.503C39.3253 263.164 39.0373 263.708 38.632 264.135C38.2053 264.562 37.5867 264.775 36.776 264.775C35.9867 264.775 35.2293 264.562 34.504 264.135C33.7573 263.687 33.1387 263.026 32.648 262.151C32.1573 261.276 31.912 260.21 31.912 258.951C31.912 258.29 31.9867 257.65 32.136 257.031C32.2853 256.412 32.5093 255.9 32.808 255.495C33.1067 255.09 33.48 254.887 33.928 254.887C34.312 254.887 34.664 255.026 34.984 255.303C35.304 255.559 35.5707 255.868 35.784 256.231C35.976 256.572 36.072 256.86 36.072 257.095C36.072 257.266 35.9547 257.468 35.72 257.703C35.4213 258.066 35.2187 258.471 35.112 258.919C34.984 259.346 34.92 259.772 34.92 260.199C34.92 260.839 35.016 261.362 35.208 261.767C35.4 262.151 35.6453 262.343 35.944 262.343C36.2213 262.343 36.4453 262.183 36.616 261.863C36.7867 261.522 36.9147 261.106 37 260.615C37.064 260.124 37.128 259.655 37.192 259.207C37.3627 257.97 37.6613 256.988 38.088 256.263C38.4933 255.538 39.2187 255.175 40.264 255.175C41.0747 255.175 41.8853 255.41 42.696 255.879C43.4853 256.327 44.136 256.988 44.648 257.863C45.16 258.716 45.416 259.74 45.416 260.935ZM53.832 241.768C53.832 242.408 53.6507 242.909 53.288 243.272C52.9467 243.635 52.3173 243.816 51.4 243.816C50.7813 243.816 50.0027 243.752 49.064 243.624C48.1253 243.475 47.1333 243.304 46.088 243.112C45.256 242.963 44.3813 242.824 43.464 242.696C42.5467 242.547 41.6507 242.429 40.776 242.344C39.88 242.237 39.08 242.184 38.376 242.184C37.5653 242.184 36.8613 242.28 36.264 242.472C35.6667 242.643 35.2827 243.005 35.112 243.56C35.0267 243.773 34.9307 243.965 34.824 244.136C34.7173 244.307 34.5467 244.392 34.312 244.392C34.0133 244.392 33.6827 244.275 33.32 244.04C32.9573 243.805 32.648 243.475 32.392 243.048C32.1147 242.6 31.976 242.099 31.976 241.544C31.976 240.819 32.232 240.317 32.744 240.04C33.2347 239.763 33.8853 239.624 34.696 239.624C34.9307 239.624 35.176 239.635 35.432 239.656C35.6667 239.677 35.912 239.709 36.168 239.752C34.9733 239.133 33.9707 238.323 33.16 237.32C32.328 236.296 31.912 235.144 31.912 233.864C31.912 232.584 32.3493 231.581 33.224 230.856C34.0773 230.109 35.24 229.736 36.712 229.736C37.8 229.736 38.8667 229.907 39.912 230.248C40.936 230.589 41.864 231.069 42.696 231.688C43.528 232.307 44.1893 233.053 44.68 233.928C45.1707 234.781 45.416 235.741 45.416 236.808C45.416 237.576 45.2773 238.248 45 238.824C44.744 239.4 44.4027 239.901 43.976 240.328C44.5307 240.413 45.2027 240.499 45.992 240.584C46.7813 240.648 47.5173 240.68 48.2 240.68C48.9893 240.68 49.608 240.595 50.056 240.424C50.504 240.232 50.8453 239.869 51.08 239.336C51.1867 239.101 51.3573 238.984 51.592 238.984C51.7627 238.984 52.0293 239.069 52.392 239.24C52.7547 239.411 53.0853 239.699 53.384 240.104C53.6827 240.488 53.832 241.043 53.832 241.768ZM41.96 236.072C41.96 234.856 41.576 233.917 40.808 233.256C40.04 232.595 39.1547 232.264 38.152 232.264C37.2773 232.264 36.6053 232.499 36.136 232.968C35.6453 233.437 35.4 234.067 35.4 234.856C35.4 235.667 35.6453 236.381 36.136 237C36.6053 237.619 37.224 238.152 37.992 238.6C38.76 239.027 39.5813 239.379 40.456 239.656C41.4587 238.589 41.96 237.395 41.96 236.072ZM45.352 225.364C45.352 225.705 45.288 225.983 45.16 226.196C45.0533 226.388 44.8613 226.452 44.584 226.388C43.6667 226.153 42.7387 225.961 41.8 225.812C40.84 225.641 39.9227 225.556 39.048 225.556C37.9173 225.556 37.096 225.631 36.584 225.78C36.0507 225.908 35.688 226.089 35.496 226.324C35.2827 226.559 35.1227 226.847 35.016 227.188C34.952 227.337 34.8667 227.476 34.76 227.604C34.6533 227.711 34.504 227.764 34.312 227.764C34.0133 227.764 33.6827 227.647 33.32 227.412C32.9573 227.177 32.648 226.847 32.392 226.42C32.1147 225.993 31.976 225.503 31.976 224.948C31.976 224.223 32.232 223.721 32.744 223.444C33.2347 223.145 33.8853 222.996 34.696 222.996C33.8427 222.612 33.1707 222.143 32.68 221.588C32.168 221.012 31.912 220.297 31.912 219.444C31.912 218.868 32.04 218.388 32.296 218.004C32.552 217.62 32.968 217.428 33.544 217.428C34.12 217.428 34.664 217.62 35.176 218.004C35.6667 218.367 35.912 218.74 35.912 219.124C35.912 219.188 35.9013 219.263 35.88 219.348C35.8587 219.433 35.8053 219.508 35.72 219.572C35.3787 219.849 35.208 220.191 35.208 220.596C35.208 221.215 35.6133 221.759 36.424 222.228C37.2347 222.697 38.3547 222.953 39.784 222.996C40.3173 222.975 40.8613 222.964 41.416 222.964C41.9707 222.943 42.376 222.932 42.632 222.932C43.4213 222.932 44.072 223.156 44.584 223.604C45.096 224.031 45.352 224.617 45.352 225.364ZM45.416 212.041C45.416 213.663 44.9573 214.932 44.04 215.849C43.1013 216.745 41.8 217.193 40.136 217.193C38.6213 217.193 37.2453 216.863 36.008 216.201C34.7707 215.54 33.7893 214.655 33.064 213.545C32.3173 212.415 31.944 211.177 31.944 209.833C31.944 208.553 32.264 207.529 32.904 206.761C33.5227 205.993 34.3547 205.609 35.4 205.609C36.232 205.609 37 205.865 37.704 206.377C38.408 206.889 38.9733 207.572 39.4 208.425C39.8053 209.279 40.008 210.228 40.008 211.273C40.008 212.553 39.72 213.599 39.144 214.409C40.1253 214.388 40.9147 214.057 41.512 213.417C42.1093 212.756 42.408 211.913 42.408 210.889C42.408 210.271 42.3013 209.641 42.088 209.001C41.8533 208.34 41.544 207.775 41.16 207.305C40.904 207.007 40.776 206.729 40.776 206.473C40.776 206.26 40.8507 206.089 41 205.961C41.128 205.812 41.2987 205.737 41.512 205.737C41.9813 205.737 42.6 206.143 43.368 206.953C44.7333 208.383 45.416 210.079 45.416 212.041ZM37.896 211.561C37.896 210.793 37.736 210.153 37.416 209.641C37.096 209.129 36.6907 208.873 36.2 208.873C35.7947 208.873 35.4853 209.044 35.272 209.385C35.0373 209.727 34.92 210.196 34.92 210.793C34.92 211.583 35.1333 212.276 35.56 212.873C35.9653 213.449 36.5413 213.865 37.288 214.121C37.48 213.823 37.6293 213.439 37.736 212.969C37.8427 212.5 37.896 212.031 37.896 211.561ZM45.416 198.935C45.416 199.724 45.2987 200.46 45.064 201.143C44.8293 201.826 44.4987 202.38 44.072 202.807C43.6453 203.234 43.1333 203.447 42.536 203.447C42.216 203.447 41.9173 203.372 41.64 203.223C41.3413 203.052 41.192 202.786 41.192 202.423C41.192 202.231 41.2453 202.028 41.352 201.815C41.5653 201.431 41.768 200.94 41.96 200.343C42.1307 199.746 42.216 199.116 42.216 198.455C42.216 197.708 42.1093 197.047 41.896 196.471C41.6827 195.895 41.384 195.607 41 195.607C40.7013 195.607 40.488 195.831 40.36 196.279C40.232 196.706 40.0933 197.431 39.944 198.455C39.816 199.159 39.6667 199.842 39.496 200.503C39.3253 201.164 39.0373 201.708 38.632 202.135C38.2053 202.562 37.5867 202.775 36.776 202.775C35.9867 202.775 35.2293 202.562 34.504 202.135C33.7573 201.687 33.1387 201.026 32.648 200.151C32.1573 199.276 31.912 198.21 31.912 196.951C31.912 196.29 31.9867 195.65 32.136 195.031C32.2853 194.412 32.5093 193.9 32.808 193.495C33.1067 193.09 33.48 192.887 33.928 192.887C34.312 192.887 34.664 193.026 34.984 193.303C35.304 193.559 35.5707 193.868 35.784 194.231C35.976 194.572 36.072 194.86 36.072 195.095C36.072 195.266 35.9547 195.468 35.72 195.703C35.4213 196.066 35.2187 196.471 35.112 196.919C34.984 197.346 34.92 197.772 34.92 198.199C34.92 198.839 35.016 199.362 35.208 199.767C35.4 200.151 35.6453 200.343 35.944 200.343C36.2213 200.343 36.4453 200.183 36.616 199.863C36.7867 199.522 36.9147 199.106 37 198.615C37.064 198.124 37.128 197.655 37.192 197.207C37.3627 195.97 37.6613 194.988 38.088 194.263C38.4933 193.538 39.2187 193.175 40.264 193.175C41.0747 193.175 41.8853 193.41 42.696 193.879C43.4853 194.327 44.136 194.988 44.648 195.863C45.16 196.716 45.416 197.74 45.416 198.935ZM45.416 185.385C45.416 187.006 44.9573 188.276 44.04 189.193C43.1013 190.089 41.8 190.537 40.136 190.537C38.6213 190.537 37.2453 190.206 36.008 189.545C34.7707 188.884 33.7893 187.998 33.064 186.889C32.3173 185.758 31.944 184.521 31.944 183.177C31.944 181.897 32.264 180.873 32.904 180.105C33.5227 179.337 34.3547 178.953 35.4 178.953C36.232 178.953 37 179.209 37.704 179.721C38.408 180.233 38.9733 180.916 39.4 181.769C39.8053 182.622 40.008 183.572 40.008 184.617C40.008 185.897 39.72 186.942 39.144 187.753C40.1253 187.732 40.9147 187.401 41.512 186.761C42.1093 186.1 42.408 185.257 42.408 184.233C42.408 183.614 42.3013 182.985 42.088 182.345C41.8533 181.684 41.544 181.118 41.16 180.649C40.904 180.35 40.776 180.073 40.776 179.817C40.776 179.604 40.8507 179.433 41 179.305C41.128 179.156 41.2987 179.081 41.512 179.081C41.9813 179.081 42.6 179.486 43.368 180.297C44.7333 181.726 45.416 183.422 45.416 185.385ZM37.896 184.905C37.896 184.137 37.736 183.497 37.416 182.985C37.096 182.473 36.6907 182.217 36.2 182.217C35.7947 182.217 35.4853 182.388 35.272 182.729C35.0373 183.07 34.92 183.54 34.92 184.137C34.92 184.926 35.1333 185.62 35.56 186.217C35.9653 186.793 36.5413 187.209 37.288 187.465C37.48 187.166 37.6293 186.782 37.736 186.313C37.8427 185.844 37.896 185.374 37.896 184.905ZM45.352 174.711C45.352 175.479 45.096 175.82 44.584 175.735C43.6667 175.5 42.7387 175.308 41.8 175.159C40.84 174.988 39.9227 174.903 39.048 174.903C37.9173 174.903 37.096 174.977 36.584 175.127C36.0507 175.255 35.688 175.436 35.496 175.671C35.2827 175.905 35.1227 176.193 35.016 176.535C34.952 176.684 34.8667 176.823 34.76 176.951C34.6533 177.057 34.504 177.111 34.312 177.111C34.0133 177.111 33.6827 176.993 33.32 176.759C32.9573 176.524 32.648 176.193 32.392 175.767C32.1147 175.319 31.976 174.817 31.976 174.263C31.976 173.537 32.232 173.036 32.744 172.759C33.2347 172.481 33.8853 172.343 34.696 172.343C35.2293 172.343 35.8267 172.396 36.488 172.503C37.1493 172.609 37.7467 172.716 38.28 172.823L38.312 172.727C37.1813 172.3 36.136 171.788 35.176 171.191C34.1947 170.572 33.4053 169.857 32.808 169.047C32.2107 168.236 31.912 167.297 31.912 166.231C31.912 165.1 32.2533 164.236 32.936 163.639C33.6187 163.041 34.472 162.743 35.496 162.743C35.9227 162.743 36.328 162.796 36.712 162.903C37.096 162.988 37.4693 163.084 37.832 163.191C38.1733 163.297 38.5253 163.393 38.888 163.479C39.2507 163.543 39.6133 163.575 39.976 163.575C41.192 163.575 42.0133 162.999 42.44 161.847C42.568 161.548 42.76 161.399 43.016 161.399C43.208 161.399 43.4853 161.463 43.848 161.591C44.2107 161.719 44.552 161.953 44.872 162.295C45.1707 162.636 45.32 163.137 45.32 163.799C45.32 164.652 45.0213 165.313 44.424 165.783C43.8053 166.252 43.0267 166.487 42.088 166.487C41.5547 166.487 41.0213 166.433 40.488 166.327C39.9333 166.199 39.4213 166.071 38.952 165.943C38.5893 165.857 38.2373 165.783 37.896 165.719C37.5333 165.633 37.2133 165.591 36.936 165.591C35.9547 165.591 35.464 166.103 35.464 167.127C35.464 168.001 35.7947 168.769 36.456 169.431C37.096 170.092 37.9067 170.657 38.888 171.127C39.8693 171.596 40.8613 171.98 41.864 172.279H42.632C43.4213 172.279 44.072 172.503 44.584 172.951C45.096 173.377 45.352 173.964 45.352 174.711ZM45.416 154.674C45.416 155.976 44.9893 156.914 44.136 157.49C43.2613 158.045 42.1413 158.322 40.776 158.322C40.2853 158.322 39.8053 158.301 39.336 158.258C38.8667 158.194 38.3973 158.13 37.928 158.066C37.4587 158.002 37 157.938 36.552 157.874C36.104 157.81 35.6773 157.757 35.272 157.714C35.4 158.162 35.464 158.61 35.464 159.058C35.464 159.528 35.272 159.762 34.888 159.762C34.4827 159.762 33.992 159.581 33.416 159.218C32.8187 158.856 32.232 158.408 31.656 157.874C31.08 157.32 30.6 156.776 30.216 156.242C29.8107 155.688 29.608 155.218 29.608 154.834C29.608 154.365 30.0133 154.13 30.824 154.13C31.0373 154.13 31.2613 154.152 31.496 154.194C31.7093 154.216 31.9333 154.248 32.168 154.29C32.0827 153.885 32.008 153.48 31.944 153.074C31.88 152.648 31.848 152.242 31.848 151.858C31.848 151.368 31.9333 150.994 32.104 150.738C32.2747 150.461 32.6053 150.322 33.096 150.322C33.608 150.322 34.12 150.45 34.632 150.706C35.144 150.941 35.4 151.208 35.4 151.506C35.4 151.57 35.3893 151.677 35.368 151.826C35.3467 151.976 35.3147 152.157 35.272 152.37C35.208 152.648 35.144 153 35.08 153.426C35.016 153.853 34.984 154.365 34.984 154.962C35.6453 155.112 36.328 155.25 37.032 155.378C37.7147 155.485 38.3333 155.538 38.888 155.538C40.1253 155.538 40.968 155.229 41.416 154.61C41.864 153.992 42.088 153.096 42.088 151.922C42.088 151.56 42.152 151.304 42.28 151.155C42.3867 151.005 42.5893 150.93 42.888 150.93C43.592 150.93 44.1893 151.293 44.68 152.018C45.1707 152.744 45.416 153.629 45.416 154.674ZM45.416 144.404C45.416 145.193 45.2987 145.929 45.064 146.612C44.8293 147.294 44.4987 147.849 44.072 148.276C43.6453 148.702 43.1333 148.916 42.536 148.916C42.216 148.916 41.9173 148.841 41.64 148.692C41.3413 148.521 41.192 148.254 41.192 147.892C41.192 147.7 41.2453 147.497 41.352 147.284C41.5653 146.9 41.768 146.409 41.96 145.812C42.1307 145.214 42.216 144.585 42.216 143.924C42.216 143.177 42.1093 142.516 41.896 141.94C41.6827 141.364 41.384 141.076 41 141.076C40.7013 141.076 40.488 141.3 40.36 141.748C40.232 142.174 40.0933 142.9 39.944 143.924C39.816 144.628 39.6667 145.31 39.496 145.972C39.3253 146.633 39.0373 147.177 38.632 147.604C38.2053 148.03 37.5867 148.244 36.776 148.244C35.9867 148.244 35.2293 148.03 34.504 147.604C33.7573 147.156 33.1387 146.494 32.648 145.62C32.1573 144.745 31.912 143.678 31.912 142.42C31.912 141.758 31.9867 141.118 32.136 140.5C32.2853 139.881 32.5093 139.369 32.808 138.964C33.1067 138.558 33.48 138.356 33.928 138.356C34.312 138.356 34.664 138.494 34.984 138.772C35.304 139.028 35.5707 139.337 35.784 139.7C35.976 140.041 36.072 140.329 36.072 140.564C36.072 140.734 35.9547 140.937 35.72 141.172C35.4213 141.534 35.2187 141.94 35.112 142.388C34.984 142.814 34.92 143.241 34.92 143.668C34.92 144.308 35.016 144.83 35.208 145.236C35.4 145.62 35.6453 145.812 35.944 145.812C36.2213 145.812 36.4453 145.652 36.616 145.332C36.7867 144.99 36.9147 144.574 37 144.084C37.064 143.593 37.128 143.124 37.192 142.676C37.3627 141.438 37.6613 140.457 38.088 139.732C38.4933 139.006 39.2187 138.644 40.264 138.644C41.0747 138.644 41.8853 138.878 42.696 139.348C43.4853 139.796 44.136 140.457 44.648 141.332C45.16 142.185 45.416 143.209 45.416 144.404ZM45.288 134.159C45.288 134.757 45.096 135.247 44.712 135.631C44.328 135.994 43.8373 136.175 43.24 136.175C42.6213 136.175 42.1093 135.973 41.704 135.567C41.2987 135.162 41.096 134.639 41.096 133.999C41.096 133.402 41.2773 132.922 41.64 132.559C42.0027 132.197 42.4827 132.015 43.08 132.015C43.72 132.015 44.2533 132.218 44.68 132.623C45.0853 133.029 45.288 133.541 45.288 134.159ZM45.288 126.284C45.288 126.882 45.096 127.372 44.712 127.756C44.328 128.119 43.8373 128.3 43.24 128.3C42.6213 128.3 42.1093 128.098 41.704 127.692C41.2987 127.287 41.096 126.764 41.096 126.124C41.096 125.527 41.2773 125.047 41.64 124.684C42.0027 124.322 42.4827 124.14 43.08 124.14C43.72 124.14 44.2533 124.343 44.68 124.748C45.0853 125.154 45.288 125.666 45.288 126.284ZM45.288 118.409C45.288 119.007 45.096 119.497 44.712 119.881C44.328 120.244 43.8373 120.425 43.24 120.425C42.6213 120.425 42.1093 120.223 41.704 119.817C41.2987 119.412 41.096 118.889 41.096 118.249C41.096 117.652 41.2773 117.172 41.64 116.809C42.0027 116.447 42.4827 116.265 43.08 116.265C43.72 116.265 44.2533 116.468 44.68 116.873C45.0853 117.279 45.288 117.791 45.288 118.409Z" fill="#FFEC96"/>
</svg>
